<?xml version="1.0" standalone="no"?>
<!DOCTYPE svg PUBLIC "-//W3C//DTD SVG 1.1//EN" "http://www.w3.org/Graphics/SVG/1.1/DTD/svg11.dtd" >
<svg>
<metadata>
Created by FontForge 20090622 at Thu Dec 19 05:11:17 2019
 By deploy user
Copyright 2016 Dalton Maag Ltd. Modification of this file requires prior written permission from Dalton Maag Ltd.
</metadata>
<defs>
<font id="OscineTrial" horiz-adv-x="0" >
  <font-face 
    font-family="Oscine Trial"
    font-weight="400"
    font-stretch="normal"
    units-per-em="1000"
    panose-1="2 11 5 6 4 2 2 2 2 4"
    ascent="712"
    descent="-288"
    x-height="524"
    cap-height="712"
    bbox="-261 -214 1156 1071"
    underline-thickness="64"
    underline-position="-73"
    unicode-range="U+001D-U+FEFF"
  />
<missing-glyph horiz-adv-x="500" 
d="M50 0v750h400v-750h-400zM400 50v650h-300v-650h300z" />
    <glyph glyph-name="f_f" unicode="ff" horiz-adv-x="644" 
d="M298 712q11 0 14 -4t3 -16v-27q0 -12 -3 -16t-14 -4h-29q-45 0 -63.5 -18t-18.5 -62v-41h91q11 0 14 -4t3 -16v-26q0 -12 -3 -16t-14 -4h-91v-438q0 -12 -4.5 -16t-16.5 -4h-37q-12 0 -16.5 4t-4.5 16v438h-64q-11 0 -14 4t-3 16v26q0 12 3 16t14 4h64v45q0 69 40 106
t114 37h36zM620 712q11 0 14 -4t3 -16v-27q0 -12 -3 -16t-14 -4h-29q-45 0 -63.5 -18t-18.5 -62v-41h91q11 0 14 -4t3 -16v-26q0 -12 -3 -16t-14 -4h-91v-438q0 -12 -4.5 -16t-16.5 -4h-37q-12 0 -16.5 4t-4.5 16v438h-64q-11 0 -14 4t-3 16v26q0 12 3 16t14 4h64v45
q0 69 40 106t114 37h36z" />
    <glyph glyph-name="f_i" unicode="fi" horiz-adv-x="524" 
d="M298 712q11 0 14 -4t3 -16v-27q0 -12 -3 -16t-14 -4h-29q-45 0 -63.5 -18t-18.5 -62v-41h91q11 0 14 -4t3 -16v-26q0 -12 -3 -16t-14 -4h-91v-438q0 -12 -4.5 -16t-16.5 -4h-37q-12 0 -16.5 4t-4.5 16v438h-64q-11 0 -14 4t-3 16v26q0 12 3 16t14 4h64v45q0 69 40 106
t114 37h36zM455 20q0 -12 -4.5 -16t-16.5 -4h-37q-12 0 -16.5 4t-4.5 16v484q0 12 4.5 16t16.5 4h37q12 0 16.5 -4t4.5 -16v-484zM416 617q-23 0 -36.5 12t-13.5 33v16q0 20 13.5 32t36.5 12q24 0 38 -12t14 -32v-16q0 -21 -14 -33t-38 -12z" />
    <glyph glyph-name="f_l" unicode="fl" horiz-adv-x="524" 
d="M298 712q11 0 14 -4t3 -16v-27q0 -12 -3 -16t-14 -4h-29q-45 0 -63.5 -18t-18.5 -62v-41h91q11 0 14 -4t3 -16v-26q0 -12 -3 -16t-14 -4h-91v-438q0 -12 -4.5 -16t-16.5 -4h-37q-12 0 -16.5 4t-4.5 16v438h-64q-11 0 -14 4t-3 16v26q0 12 3 16t14 4h64v45q0 69 40 106
t114 37h36zM455 20q0 -12 -4.5 -16t-16.5 -4h-37q-12 0 -16.5 4t-4.5 16v672q0 12 4.5 16t16.5 4h37q12 0 16.5 -4t4.5 -16v-672z" />
    <glyph glyph-name="f_f_i" unicode="ffi" horiz-adv-x="846" 
d="M298 712q11 0 14 -4t3 -16v-27q0 -12 -3 -16t-14 -4h-29q-45 0 -63.5 -18t-18.5 -62v-41h91q11 0 14 -4t3 -16v-26q0 -12 -3 -16t-14 -4h-91v-438q0 -12 -4.5 -16t-16.5 -4h-37q-12 0 -16.5 4t-4.5 16v438h-64q-11 0 -14 4t-3 16v26q0 12 3 16t14 4h64v45q0 69 40 106
t114 37h36zM620 712q11 0 14 -4t3 -16v-27q0 -12 -3 -16t-14 -4h-29q-45 0 -63.5 -18t-18.5 -62v-41h91q11 0 14 -4t3 -16v-26q0 -12 -3 -16t-14 -4h-91v-438q0 -12 -4.5 -16t-16.5 -4h-37q-12 0 -16.5 4t-4.5 16v438h-64q-11 0 -14 4t-3 16v26q0 12 3 16t14 4h64v45
q0 69 40 106t114 37h36zM777 20q0 -12 -4.5 -16t-16.5 -4h-37q-12 0 -16.5 4t-4.5 16v484q0 12 4.5 16t16.5 4h37q12 0 16.5 -4t4.5 -16v-484zM738 617q-23 0 -36.5 12t-13.5 33v16q0 20 13.5 32t36.5 12q24 0 38 -12t14 -32v-16q0 -21 -14 -33t-38 -12z" />
    <glyph glyph-name="f_f_l" unicode="ffl" horiz-adv-x="846" 
d="M298 712q11 0 14 -4t3 -16v-27q0 -12 -3 -16t-14 -4h-29q-45 0 -63.5 -18t-18.5 -62v-41h91q11 0 14 -4t3 -16v-26q0 -12 -3 -16t-14 -4h-91v-438q0 -12 -4.5 -16t-16.5 -4h-37q-12 0 -16.5 4t-4.5 16v438h-64q-11 0 -14 4t-3 16v26q0 12 3 16t14 4h64v45q0 69 40 106
t114 37h36zM620 712q11 0 14 -4t3 -16v-27q0 -12 -3 -16t-14 -4h-29q-45 0 -63.5 -18t-18.5 -62v-41h91q11 0 14 -4t3 -16v-26q0 -12 -3 -16t-14 -4h-91v-438q0 -12 -4.5 -16t-16.5 -4h-37q-12 0 -16.5 4t-4.5 16v438h-64q-11 0 -14 4t-3 16v26q0 12 3 16t14 4h64v45
q0 69 40 106t114 37h36zM777 20q0 -12 -4.5 -16t-16.5 -4h-37q-12 0 -16.5 4t-4.5 16v672q0 12 4.5 16t16.5 4h37q12 0 16.5 -4t4.5 -16v-672z" />
    <glyph glyph-name=".notdef" horiz-adv-x="500" 
d="M50 0v750h400v-750h-400zM400 50v650h-300v-650h300z" />
    <glyph glyph-name=".null" 
 />
    <glyph glyph-name=".null" 
 />
    <glyph glyph-name="nonmarkingreturn" horiz-adv-x="208" 
 />
    <glyph glyph-name="space" unicode=" " horiz-adv-x="208" 
 />
    <glyph glyph-name="period" unicode="." horiz-adv-x="244" 
d="M122 120q29 0 45.5 -15.5t16.5 -41.5v-20q0 -26 -16.5 -41.5t-45.5 -15.5t-45.5 15.5t-16.5 41.5v20q0 26 16.5 41.5t45.5 15.5z" />
    <glyph glyph-name="colon" unicode=":" horiz-adv-x="244" 
d="M122 120q29 0 45.5 -15.5t16.5 -41.5v-20q0 -26 -16.5 -41.5t-45.5 -15.5t-45.5 15.5t-16.5 41.5v20q0 26 16.5 41.5t45.5 15.5zM122 533q29 0 45.5 -15.5t16.5 -41.5v-20q0 -26 -16.5 -41.5t-45.5 -15.5t-45.5 15.5t-16.5 41.5v20q0 26 16.5 41.5t45.5 15.5z" />
    <glyph glyph-name="comma" unicode="," horiz-adv-x="244" 
d="M42 -143q0 2 0.5 4t3.5 9l56 129q-19 3 -30 18t-11 38v8q0 26 16.5 41.5t45.5 15.5t45.5 -15.5t16.5 -42.5v-19q0 -20 -7.5 -40t-25.5 -54l-43 -80q-7 -13 -12.5 -16.5t-17.5 -3.5h-25q-12 0 -12 8z" />
    <glyph glyph-name="semicolon" unicode=";" horiz-adv-x="244" 
d="M42 -143q0 2 0.5 4t3.5 9l56 129q-19 3 -30 18t-11 38v8q0 26 16.5 41.5t45.5 15.5t45.5 -15.5t16.5 -42.5v-19q0 -20 -7.5 -40t-25.5 -54l-43 -80q-7 -13 -12.5 -16.5t-17.5 -3.5h-25q-12 0 -12 8zM123 533q29 0 45.5 -15.5t16.5 -41.5v-20q0 -26 -16.5 -41.5
t-45.5 -15.5t-45.5 15.5t-16.5 41.5v20q0 26 16.5 41.5t45.5 15.5z" />
    <glyph glyph-name="question" unicode="?" horiz-adv-x="514" 
d="M256 724q43 0 79 -11.5t61 -33t39 -51.5t14 -67v-16q0 -50 -22 -86.5t-72 -68.5l-28 -18q-14 -9 -23 -17.5t-14 -19.5t-7 -26t-2 -37v-41q0 -13 -4.5 -17t-18.5 -4h-32q-13 0 -17.5 4t-4.5 17v41q0 33 3.5 56.5t12.5 41.5t25 33t41 31l28 18q27 17 38.5 39t11.5 57v10
q0 47 -32 74t-87 27q-107 0 -129 -90q-4 -16 -21 -16h-36q-13 0 -17.5 4t-4.5 15q0 22 11.5 48.5t28.5 43.5q57 60 179 60zM240 -14q-26 0 -42 15t-16 39v19q0 25 16 39.5t42 14.5q29 0 45 -14.5t16 -39.5v-19q0 -25 -16.5 -39.5t-44.5 -14.5z" />
    <glyph glyph-name="exclam" unicode="!" horiz-adv-x="273" 
d="M158 712q14 0 18 -4t4 -16q0 -7 -0.5 -21t-0.5 -21l-10 -420q0 -12 -4.5 -16t-16.5 -4h-23q-12 0 -16.5 4t-4.5 16l-10 420q0 7 -0.5 21t-0.5 21q0 12 4 16t18 4h43zM135 -14q-26 0 -42 15t-16 39v19q0 25 16 39.5t42 14.5q29 0 45 -14.5t16 -39.5v-19q0 -25 -16.5 -39.5
t-44.5 -14.5z" />
    <glyph glyph-name="questiondown" unicode="&#xbf;" horiz-adv-x="514" 
d="M187 169q14 9 23 17.5t14 19.5t7 26t2 37v41q0 13 4.5 17t18.5 4h32q13 0 17.5 -4t4.5 -17v-41q0 -33 -3.5 -56.5t-12.5 -41.5t-25 -33t-41 -31l-28 -18q-27 -17 -38.5 -39t-11.5 -57v-10q0 -47 32 -74t87 -27q106 0 129 90q4 16 21 16h36q13 0 17.5 -4t4.5 -15
q0 -22 -11.5 -48.5t-28.5 -43.5q-57 -60 -179 -60q-44 0 -79.5 11.5t-60.5 33t-39 51.5t-14 67v16q0 50 22 86.5t72 68.5zM274 555q26 0 42 -15t16 -39v-19q0 -25 -16 -39.5t-42 -14.5q-29 0 -45 14.5t-16 39.5v19q0 25 16.5 39.5t44.5 14.5z" />
    <glyph glyph-name="exclamdown" unicode="&#xa1;" horiz-adv-x="273" 
d="M115 -171q-14 0 -18 4t-4 16q0 7 0.5 21t0.5 21l10 420q0 12 4.5 16t16.5 4h23q12 0 16.5 -4t4.5 -16l10 -420q0 -7 0.5 -21t0.5 -21q0 -12 -4 -16t-18 -4h-43zM138 555q26 0 42 -15t16 -39v-19q0 -25 -16 -39.5t-42 -14.5q-29 0 -45 14.5t-16 39.5v19q0 25 16.5 39.5
t44.5 14.5z" />
    <glyph glyph-name="questiondown.case" horiz-adv-x="514" 
d="M187 340q14 9 23 17.5t14 19.5t7 26t2 37v41q0 13 4.5 17t18.5 4h32q13 0 17.5 -4t4.5 -17v-41q0 -33 -3.5 -56.5t-12.5 -41.5t-25 -33t-41 -31l-28 -18q-27 -17 -38.5 -39t-11.5 -57v-10q0 -47 32 -74t87 -27q106 0 129 90q4 16 21 16h36q13 0 17.5 -4t4.5 -15
q0 -22 -11.5 -48.5t-28.5 -43.5q-57 -60 -179 -60q-44 0 -79.5 11.5t-60.5 33t-39 51.5t-14 67v16q0 50 22 86.5t72 68.5zM274 726q26 0 42 -15t16 -39v-19q0 -25 -16 -39.5t-42 -14.5q-29 0 -45 14.5t-16 39.5v19q0 25 16.5 39.5t44.5 14.5z" />
    <glyph glyph-name="exclamdown.case" horiz-adv-x="273" 
d="M115 0q-14 0 -18 4t-4 16q0 7 0.5 21t0.5 21l10 420q0 12 4.5 16t16.5 4h23q12 0 16.5 -4t4.5 -16l10 -420q0 -7 0.5 -21t0.5 -21q0 -12 -4 -16t-18 -4h-43zM138 726q26 0 42 -15t16 -39v-19q0 -25 -16 -39.5t-42 -14.5q-29 0 -45 14.5t-16 39.5v19q0 25 16.5 39.5
t44.5 14.5z" />
    <glyph glyph-name="quotesingle" unicode="'" horiz-adv-x="169" 
d="M108 712q13 0 17.5 -4t4.5 -16q0 -7 -0.5 -16t-0.5 -14l-7 -229q0 -12 -4.5 -16t-16.5 -4h-33q-12 0 -16.5 4t-4.5 16l-7 229q0 5 -0.5 14t-0.5 16q0 12 4.5 16t17.5 4h47z" />
    <glyph glyph-name="quotedbl" unicode="&#x22;" horiz-adv-x="332" 
d="M108 712q13 0 17.5 -4t4.5 -16q0 -7 -0.5 -16t-0.5 -14l-7 -229q0 -12 -4.5 -16t-16.5 -4h-33q-12 0 -16.5 4t-4.5 16l-7 229q0 5 -0.5 14t-0.5 16q0 12 4.5 16t17.5 4h47zM271 712q13 0 17.5 -4t4.5 -16q0 -7 -0.5 -16t-0.5 -14l-7 -229q0 -12 -4.5 -16t-16.5 -4h-33
q-12 0 -16.5 4t-4.5 16l-7 229q0 5 -0.5 14t-0.5 16q0 12 4.5 16t17.5 4h47z" />
    <glyph glyph-name="ellipsis" unicode="&#x2026;" horiz-adv-x="1000" 
d="M166 120q29 0 45.5 -15.5t16.5 -41.5v-20q0 -26 -16.5 -41.5t-45.5 -15.5t-45.5 15.5t-16.5 41.5v20q0 26 16.5 41.5t45.5 15.5zM500 120q29 0 45.5 -15.5t16.5 -41.5v-20q0 -26 -16.5 -41.5t-45.5 -15.5t-45.5 15.5t-16.5 41.5v20q0 26 16.5 41.5t45.5 15.5zM834 120
q29 0 45.5 -15.5t16.5 -41.5v-20q0 -26 -16.5 -41.5t-45.5 -15.5t-45.5 15.5t-16.5 41.5v20q0 26 16.5 41.5t45.5 15.5z" />
    <glyph glyph-name="uni00A0" unicode="&#xa0;" horiz-adv-x="208" 
 />
    <glyph glyph-name="uni2000" unicode="&#x2000;" horiz-adv-x="500" 
 />
    <glyph glyph-name="uni2001" unicode="&#x2001;" horiz-adv-x="1000" 
 />
    <glyph glyph-name="uni2002" unicode="&#x2002;" horiz-adv-x="500" 
 />
    <glyph glyph-name="uni2003" unicode="&#x2003;" horiz-adv-x="1000" 
 />
    <glyph glyph-name="uni2004" unicode="&#x2004;" horiz-adv-x="333" 
 />
    <glyph glyph-name="uni2005" unicode="&#x2005;" horiz-adv-x="250" 
 />
    <glyph glyph-name="uni2006" unicode="&#x2006;" horiz-adv-x="167" 
 />
    <glyph glyph-name="uni2007" unicode="&#x2007;" horiz-adv-x="570" 
 />
    <glyph glyph-name="uni2008" unicode="&#x2008;" horiz-adv-x="244" 
 />
    <glyph glyph-name="uni2009" unicode="&#x2009;" horiz-adv-x="200" 
 />
    <glyph glyph-name="uni200A" unicode="&#x200a;" horiz-adv-x="63" 
 />
    <glyph glyph-name="uni200B" unicode="&#x200b;" 
 />
    <glyph glyph-name="zero" unicode="0" horiz-adv-x="554" 
d="M277 617q-78 0 -112 -47t-34 -154v-160q0 -107 34 -154t112 -47t112 47t34 154v160q0 107 -34 154t-112 47zM277 -14q-156 0 -208 129q-11 26 -15 58t-4 84v148q0 53 4 86t15 61q53 134 208 134t208 -132q11 -27 15 -59t4 -85v-148q0 -53 -4 -85t-15 -59
q-53 -132 -208 -132z" />
    <glyph glyph-name="one" unicode="1" horiz-adv-x="330" 
d="M240 20q0 -12 -4.5 -16t-16.5 -4h-37q-12 0 -16.5 4t-4.5 16v581h-110q-12 0 -16.5 4t-4.5 16v31q0 12 4.5 16t16.5 4h168q12 0 16.5 -4t4.5 -16v-632z" />
    <glyph glyph-name="two" unicode="2" horiz-adv-x="510" 
d="M264 686q99 0 151.5 -44t52.5 -128v-24q0 -59 -35.5 -106.5t-117.5 -96.5l-84 -50q-58 -35 -84 -73.5t-26 -89.5h325q12 0 16.5 -4t4.5 -16v-34q0 -12 -4.5 -16t-16.5 -4h-386q-21 0 -21 20v28q0 42 8 77t26 65t46 55.5t67 49.5l84 50q61 36 87 71t26 80v12
q0 110 -124 110q-58 0 -88 -21.5t-43 -71.5q-2 -11 -6.5 -14t-16.5 -3h-33q-13 0 -17.5 4t-4.5 15q0 25 11.5 53t28.5 45q58 61 174 61z" />
    <glyph glyph-name="three" unicode="3" horiz-adv-x="532" 
d="M276 686q99 0 151 -42t52 -121v-19q0 -113 -117 -152q125 -23 125 -154v-26q0 -87 -57.5 -136.5t-159.5 -49.5q-127 0 -183 59q-17 17 -27.5 44.5t-10.5 51.5q0 11 4.5 15t17.5 4h34q12 0 16.5 -3t6.5 -14q11 -48 42.5 -68.5t94.5 -20.5q66 0 102 32t36 91v14
q0 57 -35 89t-98 32h-28q-12 0 -16.5 4t-4.5 16v40q0 12 4.5 16t16.5 4h16q138 0 138 113v8q0 52 -32 79.5t-94 27.5q-60 0 -92 -21.5t-43 -70.5q-2 -11 -6.5 -14t-16.5 -3h-33q-13 0 -17.5 4t-4.5 15q0 23 10.5 50t26.5 44q29 32 72.5 47t109.5 15z" />
    <glyph glyph-name="four" unicode="4" horiz-adv-x="540" 
d="M407 672q12 0 16.5 -4t4.5 -16v-433h48q12 0 16.5 -4t4.5 -16v-29q0 -12 -4.5 -16t-16.5 -4h-48v-130q0 -12 -4.5 -16t-16.5 -4h-36q-12 0 -16.5 4t-4.5 16v130h-278q-12 0 -16.5 4t-4.5 16v50q0 11 2 17.5t8 15.5l263 400q8 12 13.5 15.5t16.5 3.5h53zM350 219v356
l-234 -356h234z" />
    <glyph glyph-name="five" unicode="5" horiz-adv-x="515" 
d="M462 191q0 -96 -56 -150.5t-154 -54.5q-124 0 -173 55q-17 20 -26.5 44t-9.5 48q0 10 4.5 13.5t18.5 3.5h33q12 0 16 -3.5t6 -15.5q17 -77 127 -77q129 0 129 137v23q0 148 -112 148q-32 0 -57 -8.5t-55 -28.5q-12 -9 -33 -9h-37q-12 0 -16.5 4t-4.5 16v316q0 12 4.5 16
t16.5 4h340q12 0 16.5 -4t4.5 -16v-31q0 -12 -4.5 -16t-16.5 -4h-290v-216q64 41 144 41q185 0 185 -198v-37z" />
    <glyph glyph-name="six" unicode="6" horiz-adv-x="535" 
d="M274 686q124 0 172 -53q17 -19 26.5 -42.5t9.5 -46.5q0 -10 -4.5 -13.5t-18.5 -3.5h-33q-12 0 -16 3.5t-6 15.5q-17 76 -125 76q-73 0 -109 -37q-20 -22 -29 -54.5t-9 -80.5v-80q54 63 166 63q94 0 146 -50t52 -140v-48q0 -98 -59.5 -153.5t-163.5 -55.5
q-69 0 -119.5 24.5t-75.5 71.5q-16 30 -22 66t-6 98v119q0 36 0.5 62.5t2.5 47t5 37t8 34.5q19 68 72 104t136 36zM273 52q143 0 143 147v19q0 78 -33.5 113t-109.5 35q-69 0 -107 -39t-38 -111v-14q0 -73 37 -111.5t108 -38.5z" />
    <glyph glyph-name="seven" unicode="7" horiz-adv-x="475" 
d="M425 672q12 0 16.5 -4t4.5 -16v-40q0 -34 -4.5 -63t-15.5 -55.5t-28.5 -52.5t-42.5 -55l-38 -43q-45 -50 -64.5 -102.5t-19.5 -121.5v-99q0 -12 -4.5 -16t-16.5 -4h-36q-12 0 -16.5 4t-4.5 16v74q0 49 5.5 89t17 74.5t30.5 65.5t46 62l38 43q22 25 36.5 45t23 40t12.5 41
t4 47h-328q-12 0 -16.5 4t-4.5 16v31q0 12 4.5 16t16.5 4h385z" />
    <glyph glyph-name="eight" unicode="8" horiz-adv-x="556" 
d="M278 686q100 0 157.5 -45.5t57.5 -125.5v-21q0 -59 -23.5 -94.5t-74.5 -54.5q56 -13 86 -54t30 -105v-19q0 -41 -16.5 -74.5t-47 -57t-73.5 -36.5t-96 -13t-96 13t-73.5 36.5t-47 57t-16.5 74.5v19q0 64 30 105t86 54q-51 19 -74.5 54.5t-23.5 94.5v21q0 80 57.5 125.5
t157.5 45.5zM278 624q-63 0 -99 -31t-36 -85v-15q0 -54 36.5 -86t98.5 -32t98.5 32t36.5 86v15q0 54 -36 85t-99 31zM278 311q-68 0 -109.5 -33t-41.5 -87v-17q0 -59 39 -90.5t112 -31.5t112 31.5t39 90.5v17q0 54 -41.5 87t-109.5 33z" />
    <glyph glyph-name="nine" unicode="9" horiz-adv-x="535" 
d="M262 686q69 0 119.5 -24.5t75.5 -71.5q16 -30 22 -66t6 -98v-119q0 -36 -0.5 -62.5t-2.5 -47t-5 -37t-8 -34.5q-19 -68 -72 -104t-136 -36q-124 0 -172 53q-17 19 -26.5 42.5t-9.5 46.5q0 10 4.5 13.5t18.5 3.5h33q12 0 16 -3.5t6 -15.5q17 -76 125 -76q73 0 109 37
q20 22 29 54.5t9 80.5v80q-54 -63 -166 -63q-94 0 -146 50.5t-52 141.5v56q0 94 59.5 146.5t163.5 52.5zM262 620q-144 0 -144 -147v-17q0 -79 34.5 -114.5t109.5 -35.5q69 0 107 39t38 111v14q0 73 -37 111.5t-108 38.5z" />
    <glyph glyph-name="zero.tnum" horiz-adv-x="570" 
d="M285 617q-78 0 -112 -47t-34 -154v-160q0 -107 34 -154t112 -47t112 47t34 154v160q0 107 -34 154t-112 47zM285 -14q-156 0 -208 129q-11 26 -15 58t-4 84v148q0 53 4 86t15 61q53 134 208 134t208 -132q11 -27 15 -59t4 -85v-148q0 -53 -4 -85t-15 -59
q-53 -132 -208 -132z" />
    <glyph glyph-name="one.tnum" horiz-adv-x="570" 
d="M342 20q0 -12 -4.5 -16t-16.5 -4h-37q-12 0 -16.5 4t-4.5 16v581h-110q-12 0 -16.5 4t-4.5 16v31q0 12 4.5 16t16.5 4h168q12 0 16.5 -4t4.5 -16v-632z" />
    <glyph glyph-name="two.tnum" horiz-adv-x="570" 
d="M294 686q99 0 151.5 -44t52.5 -128v-24q0 -59 -35.5 -106.5t-117.5 -96.5l-84 -50q-58 -35 -84 -73.5t-26 -89.5h325q12 0 16.5 -4t4.5 -16v-34q0 -12 -4.5 -16t-16.5 -4h-386q-21 0 -21 20v28q0 42 8 77t26 65t46 55.5t67 49.5l84 50q61 36 87 71t26 80v12
q0 110 -124 110q-58 0 -88 -21.5t-43 -71.5q-2 -11 -6.5 -14t-16.5 -3h-33q-13 0 -17.5 4t-4.5 15q0 25 11.5 53t28.5 45q58 61 174 61z" />
    <glyph glyph-name="three.tnum" horiz-adv-x="570" 
d="M286 686q99 0 151 -42t52 -121v-19q0 -113 -117 -152q125 -23 125 -154v-26q0 -87 -57.5 -136.5t-159.5 -49.5q-127 0 -183 59q-17 17 -27.5 44.5t-10.5 51.5q0 11 4.5 15t17.5 4h34q12 0 16.5 -3t6.5 -14q11 -48 42.5 -68.5t94.5 -20.5q66 0 102 32t36 91v14
q0 57 -35 89t-98 32h-28q-12 0 -16.5 4t-4.5 16v40q0 12 4.5 16t16.5 4h16q138 0 138 113v8q0 52 -32 79.5t-94 27.5q-60 0 -92 -21.5t-43 -70.5q-2 -11 -6.5 -14t-16.5 -3h-33q-13 0 -17.5 4t-4.5 15q0 23 10.5 50t26.5 44q29 32 72.5 47t109.5 15z" />
    <glyph glyph-name="four.tnum" horiz-adv-x="570" 
d="M416 672q12 0 16.5 -4t4.5 -16v-433h48q12 0 16.5 -4t4.5 -16v-29q0 -12 -4.5 -16t-16.5 -4h-48v-130q0 -12 -4.5 -16t-16.5 -4h-36q-12 0 -16.5 4t-4.5 16v130h-278q-12 0 -16.5 4t-4.5 16v50q0 11 2 17.5t8 15.5l263 400q8 12 13.5 15.5t16.5 3.5h53zM359 219v356
l-234 -356h234z" />
    <glyph glyph-name="five.tnum" horiz-adv-x="570" 
d="M498 191q0 -96 -56 -150.5t-154 -54.5q-124 0 -173 55q-17 20 -26.5 44t-9.5 48q0 10 4.5 13.5t18.5 3.5h33q12 0 16 -3.5t6 -15.5q17 -77 127 -77q129 0 129 137v23q0 148 -112 148q-32 0 -57 -8.5t-55 -28.5q-12 -9 -33 -9h-37q-12 0 -16.5 4t-4.5 16v316q0 12 4.5 16
t16.5 4h340q12 0 16.5 -4t4.5 -16v-31q0 -12 -4.5 -16t-16.5 -4h-290v-216q64 41 144 41q185 0 185 -198v-37z" />
    <glyph glyph-name="six.tnum" horiz-adv-x="570" 
d="M290 686q124 0 172 -53q17 -19 26.5 -42.5t9.5 -46.5q0 -10 -4.5 -13.5t-18.5 -3.5h-33q-12 0 -16 3.5t-6 15.5q-17 76 -125 76q-73 0 -109 -37q-20 -22 -29 -54.5t-9 -80.5v-80q54 63 166 63q94 0 146 -50t52 -140v-48q0 -98 -59.5 -153.5t-163.5 -55.5
q-69 0 -119.5 24.5t-75.5 71.5q-16 30 -22 66t-6 98v119q0 36 0.5 62.5t2.5 47t5 37t8 34.5q19 68 72 104t136 36zM289 52q143 0 143 147v19q0 78 -33.5 113t-109.5 35q-69 0 -107 -39t-38 -111v-14q0 -73 37 -111.5t108 -38.5z" />
    <glyph glyph-name="seven.tnum" horiz-adv-x="570" 
d="M472 672q12 0 16.5 -4t4.5 -16v-40q0 -34 -4.5 -63t-15.5 -55.5t-28.5 -52.5t-42.5 -55l-38 -43q-45 -50 -64.5 -102.5t-19.5 -121.5v-99q0 -12 -4.5 -16t-16.5 -4h-36q-12 0 -16.5 4t-4.5 16v74q0 49 5.5 89t17 74.5t30.5 65.5t46 62l38 43q22 25 36.5 45t23 40t12.5 41
t4 47h-328q-12 0 -16.5 4t-4.5 16v31q0 12 4.5 16t16.5 4h385z" />
    <glyph glyph-name="eight.tnum" horiz-adv-x="570" 
d="M286 686q100 0 157.5 -45.5t57.5 -125.5v-21q0 -59 -23.5 -94.5t-74.5 -54.5q56 -13 86 -54t30 -105v-19q0 -41 -16.5 -74.5t-47 -57t-73.5 -36.5t-96 -13t-96 13t-73.5 36.5t-47 57t-16.5 74.5v19q0 64 30 105t86 54q-51 19 -74.5 54.5t-23.5 94.5v21q0 80 57.5 125.5
t157.5 45.5zM286 624q-63 0 -99 -31t-36 -85v-15q0 -54 36.5 -86t98.5 -32t98.5 32t36.5 86v15q0 54 -36 85t-99 31zM286 311q-68 0 -109.5 -33t-41.5 -87v-17q0 -59 39 -90.5t112 -31.5t112 31.5t39 90.5v17q0 54 -41.5 87t-109.5 33z" />
    <glyph glyph-name="nine.tnum" horiz-adv-x="570" 
d="M288 686q69 0 119.5 -24.5t75.5 -71.5q16 -30 22 -66t6 -98v-119q0 -36 -0.5 -62.5t-2.5 -47t-5 -37t-8 -34.5q-19 -68 -72 -104t-136 -36q-124 0 -172 53q-17 19 -26.5 42.5t-9.5 46.5q0 10 4.5 13.5t18.5 3.5h33q12 0 16 -3.5t6 -15.5q17 -76 125 -76q73 0 109 37
q20 22 29 54.5t9 80.5v80q-54 -63 -166 -63q-94 0 -146 50.5t-52 141.5v56q0 94 59.5 146.5t163.5 52.5zM288 620q-144 0 -144 -147v-17q0 -79 34.5 -114.5t109.5 -35.5q69 0 107 39t38 111v14q0 73 -37 111.5t-108 38.5z" />
    <glyph glyph-name="uni2080" unicode="&#x2080;" horiz-adv-x="367" 
d="M339 38q0 -29 -3 -49t-12 -38q-36 -75 -139 -75q-109 0 -142 73q-8 17 -11 36t-3 48v87q0 30 3 50.5t11 37.5q36 78 142 78q51 0 84 -17.5t55 -55.5q8 -16 11.5 -35.5t3.5 -47.5v-92zM271 124q0 56 -20.5 80.5t-65.5 24.5q-48 0 -67.5 -24t-19.5 -81v-86q0 -57 19.5 -81
t67.5 -24q46 0 66 24.5t20 80.5v86z" />
    <glyph glyph-name="uni2081" unicode="&#x2081;" horiz-adv-x="367" 
d="M224 -102q0 -8 -3 -11t-13 -3h-36q-18 0 -18 14v319h-65q-16 0 -16 13v34q0 14 16 14h119q10 0 13 -3t3 -11v-366z" />
    <glyph glyph-name="uni2082" unicode="&#x2082;" horiz-adv-x="367" 
d="M187 24q-37 -20 -53.5 -37.5t-19.5 -39.5h195q16 0 16 -14v-35q0 -8 -3 -11t-13 -3h-254q-16 0 -16 14v25q0 48 26 83.5t83 67.5l39 22q19 11 32 20t20 18t10 19t3 22v4q0 54 -69 54q-32 0 -49 -11.5t-25 -39.5q-2 -8 -5 -10t-12 -2h-40q-13 0 -13 10q0 48 40 77t107 29
t104 -26.5t37 -74.5v-14q0 -37 -23.5 -66t-77.5 -59z" />
    <glyph glyph-name="uni2083" unicode="&#x2083;" horiz-adv-x="367" 
d="M327 180q0 -65 -63 -90q68 -17 68 -91v-15q0 -51 -39 -79.5t-108 -28.5q-88 0 -125 34q-13 11 -20.5 29.5t-7.5 36.5q0 13 12 13h42q13 0 16 -10q8 -27 26.5 -38.5t52.5 -11.5q81 0 81 60v8q0 30 -20 46.5t-58 16.5h-17q-16 0 -16 14v33q0 13 16 13h14q77 0 77 57v4
q0 55 -76 55q-23 0 -37 -4.5t-25 -15.5q-12 -12 -16 -28q-4 -13 -16 -13h-35q-15 0 -15 13q0 37 28 63q38 35 123 35q68 0 103 -24.5t35 -72.5v-9z" />
    <glyph glyph-name="uni2084" unicode="&#x2084;" horiz-adv-x="367" 
d="M333 -33q0 -12 -14 -12h-27v-58q0 -8 -2.5 -10.5t-11.5 -2.5h-34q-10 0 -12.5 2.5t-2.5 10.5v58h-180q-15 0 -15 12v42q0 11 8 22l173 241q4 6 14 6h49q14 0 14 -13v-256h27q14 0 14 -12v-30zM229 9v192l-135 -192h135z" />
    <glyph glyph-name="uni2085" unicode="&#x2085;" horiz-adv-x="367" 
d="M199 141q68 0 99 -30t31 -94v-21q0 -56 -38.5 -88t-105.5 -32q-72 0 -109 24.5t-37 71.5q0 14 11 14h39q13 0 16 -10q11 -27 27.5 -37t50.5 -10q35 0 55.5 18.5t20.5 48.5v13q0 77 -67 77q-8 0 -15 -1t-14.5 -3.5t-17 -7.5l-23.5 -12q-5 -3 -15 -3h-39q-15 0 -15 15v190
q0 14 15 14h229q10 0 13 -3t3 -11v-33q0 -14 -16 -14h-185v-104q43 28 87 28z" />
    <glyph glyph-name="uni2086" unicode="&#x2086;" horiz-adv-x="367" 
d="M189 -71q85 0 85 70v14q0 71 -85 71q-42 0 -63.5 -18.5t-21.5 -53.5v-11q0 -33 23 -52.5t62 -19.5zM38 102q0 98 35 141t117 43q69 0 105 -22.5t36 -65.5q0 -13 -12 -13h-39q-12 0 -16 10q-12 37 -71 37q-48 0 -66 -18q-21 -22 -21 -71v-40q31 34 98 34q48 0 80 -17
q55 -28 55 -92v-30q0 -57 -40.5 -89.5t-109.5 -32.5q-105 0 -137 71q-8 17 -11 38.5t-3 54.5v62z" />
    <glyph glyph-name="uni2087" unicode="&#x2087;" horiz-adv-x="367" 
d="M55 217q-16 0 -16 14v33q0 8 3 11t13 3h258q16 0 16 -14v-26q0 -20 -3 -36.5t-10.5 -32.5t-20.5 -32.5t-32 -37.5q-38 -41 -54.5 -75t-16.5 -72v-55q0 -8 -2.5 -10.5t-12.5 -2.5h-40q-10 0 -12.5 2.5t-2.5 10.5v41q0 29 3.5 52.5t12.5 44.5t23.5 41t36.5 43
q33 34 46 55.5t14 42.5h-203z" />
    <glyph glyph-name="uni2088" unicode="&#x2088;" horiz-adv-x="367" 
d="M183 286q68 0 106 -28t38 -78v-6q0 -66 -56 -87q32 -8 49 -31.5t17 -60.5v-11q0 -48 -42.5 -78t-111.5 -30q-34 0 -62 8t-48.5 22t-31.5 34t-11 44v11q0 36 17 60t49 32q-55 19 -55 87v6q0 50 38 78t104 28zM183 -71q42 0 64.5 16t22.5 45v9q0 26 -25.5 43.5t-61.5 17.5
q-38 0 -62 -17t-24 -44v-9q0 -61 86 -61zM183 111q33 0 55 17t22 43v7q0 26 -21.5 42t-55.5 16q-36 0 -56.5 -15.5t-20.5 -42.5v-7q0 -27 21 -43.5t56 -16.5z" />
    <glyph glyph-name="uni2089" unicode="&#x2089;" horiz-adv-x="367" 
d="M178 233q-85 0 -85 -70v-14q0 -71 85 -71q42 0 63.5 18.5t21.5 53.5v11q0 33 -23 52.5t-62 19.5zM329 60q0 -98 -35 -141t-117 -43q-69 0 -105 22.5t-36 65.5q0 13 12 13h39q12 0 16 -10q12 -37 71 -37q48 0 66 18q21 22 21 71v40q-31 -34 -98 -34q-48 0 -80 17
q-55 28 -55 92v30q0 57 40.5 89.5t109.5 32.5q105 0 137 -71q8 -17 11 -38.5t3 -54.5v-62z" />
    <glyph glyph-name="uni2070" unicode="&#x2070;" horiz-adv-x="367" 
d="M339 565q0 -29 -3 -49t-12 -38q-36 -75 -139 -75q-109 0 -142 73q-8 17 -11 36t-3 48v87q0 30 3 50.5t11 37.5q36 78 142 78q51 0 84 -17.5t55 -55.5q8 -16 11.5 -35.5t3.5 -47.5v-92zM271 651q0 56 -20.5 80.5t-65.5 24.5q-48 0 -67.5 -24t-19.5 -81v-86q0 -57 19.5 -81
t67.5 -24q46 0 66 24.5t20 80.5v86z" />
    <glyph glyph-name="uni00B9" unicode="&#xb9;" horiz-adv-x="367" 
d="M224 425q0 -8 -3 -11t-13 -3h-36q-18 0 -18 14v319h-65q-16 0 -16 13v34q0 14 16 14h119q10 0 13 -3t3 -11v-366z" />
    <glyph glyph-name="uni00B2" unicode="&#xb2;" horiz-adv-x="367" 
d="M187 551q-37 -20 -53.5 -37.5t-19.5 -39.5h195q16 0 16 -14v-35q0 -8 -3 -11t-13 -3h-254q-16 0 -16 14v25q0 48 26 83.5t83 67.5l39 22q19 11 32 20t20 18t10 19t3 22v4q0 54 -69 54q-32 0 -49 -11.5t-25 -39.5q-2 -8 -5 -10t-12 -2h-40q-13 0 -13 10q0 48 40 77t107 29
t104 -26.5t37 -74.5v-14q0 -37 -23.5 -66t-77.5 -59z" />
    <glyph glyph-name="uni00B3" unicode="&#xb3;" horiz-adv-x="367" 
d="M327 707q0 -65 -63 -90q68 -17 68 -91v-15q0 -51 -39 -79.5t-108 -28.5q-88 0 -125 34q-13 11 -20.5 29.5t-7.5 36.5q0 13 12 13h42q13 0 16 -10q8 -27 26.5 -38.5t52.5 -11.5q81 0 81 60v8q0 30 -20 46.5t-58 16.5h-17q-16 0 -16 14v33q0 13 16 13h14q77 0 77 57v4
q0 55 -76 55q-23 0 -37 -4.5t-25 -15.5q-12 -12 -16 -28q-4 -13 -16 -13h-35q-15 0 -15 13q0 37 28 63q38 35 123 35q68 0 103 -24.5t35 -72.5v-9z" />
    <glyph glyph-name="uni2074" unicode="&#x2074;" horiz-adv-x="367" 
d="M333 494q0 -12 -14 -12h-27v-58q0 -8 -2.5 -10.5t-11.5 -2.5h-34q-10 0 -12.5 2.5t-2.5 10.5v58h-180q-15 0 -15 12v42q0 11 8 22l173 241q4 6 14 6h49q14 0 14 -13v-256h27q14 0 14 -12v-30zM229 536v192l-135 -192h135z" />
    <glyph glyph-name="uni2075" unicode="&#x2075;" horiz-adv-x="367" 
d="M199 668q68 0 99 -30t31 -94v-21q0 -56 -38.5 -88t-105.5 -32q-72 0 -109 24.5t-37 71.5q0 14 11 14h39q13 0 16 -10q11 -27 27.5 -37t50.5 -10q35 0 55.5 18.5t20.5 48.5v13q0 77 -67 77q-8 0 -15 -1t-14.5 -3.5t-17 -7.5l-23.5 -12q-5 -3 -15 -3h-39q-15 0 -15 15v190
q0 14 15 14h229q10 0 13 -3t3 -11v-33q0 -14 -16 -14h-185v-104q43 28 87 28z" />
    <glyph glyph-name="uni2076" unicode="&#x2076;" horiz-adv-x="367" 
d="M189 456q85 0 85 70v14q0 71 -85 71q-42 0 -63.5 -18.5t-21.5 -53.5v-11q0 -33 23 -52.5t62 -19.5zM38 629q0 98 35 141t117 43q69 0 105 -22.5t36 -65.5q0 -13 -12 -13h-39q-12 0 -16 10q-12 37 -71 37q-48 0 -66 -18q-21 -22 -21 -71v-40q31 34 98 34q48 0 80 -17
q55 -28 55 -92v-30q0 -57 -40.5 -89.5t-109.5 -32.5q-105 0 -137 71q-8 17 -11 38.5t-3 54.5v62z" />
    <glyph glyph-name="uni2077" unicode="&#x2077;" horiz-adv-x="367" 
d="M55 744q-16 0 -16 14v33q0 8 3 11t13 3h258q16 0 16 -14v-26q0 -20 -3 -36.5t-10.5 -32.5t-20.5 -32.5t-32 -37.5q-38 -41 -54.5 -75t-16.5 -72v-55q0 -8 -2.5 -10.5t-12.5 -2.5h-40q-10 0 -12.5 2.5t-2.5 10.5v41q0 29 3.5 52.5t12.5 44.5t23.5 41t36.5 43
q33 34 46 55.5t14 42.5h-203z" />
    <glyph glyph-name="uni2078" unicode="&#x2078;" horiz-adv-x="367" 
d="M183 813q68 0 106 -28t38 -78v-6q0 -66 -56 -87q32 -8 49 -31.5t17 -60.5v-11q0 -48 -42.5 -78t-111.5 -30q-34 0 -62 8t-48.5 22t-31.5 34t-11 44v11q0 36 17 60t49 32q-55 19 -55 87v6q0 50 38 78t104 28zM183 456q42 0 64.5 16t22.5 45v9q0 26 -25.5 43.5t-61.5 17.5
q-38 0 -62 -17t-24 -44v-9q0 -61 86 -61zM183 638q33 0 55 17t22 43v7q0 26 -21.5 42t-55.5 16q-36 0 -56.5 -15.5t-20.5 -42.5v-7q0 -27 21 -43.5t56 -16.5z" />
    <glyph glyph-name="uni2079" unicode="&#x2079;" horiz-adv-x="367" 
d="M178 760q-85 0 -85 -70v-14q0 -71 85 -71q42 0 63.5 18.5t21.5 53.5v11q0 33 -23 52.5t-62 19.5zM329 587q0 -98 -35 -141t-117 -43q-69 0 -105 22.5t-36 65.5q0 13 12 13h39q12 0 16 -10q12 -37 71 -37q48 0 66 18q21 22 21 71v40q-31 -34 -98 -34q-48 0 -80 17
q-55 28 -55 92v30q0 57 40.5 89.5t109.5 32.5q105 0 137 -71q8 -17 11 -38.5t3 -54.5v-62z" />
    <glyph glyph-name="zero.dnom" horiz-adv-x="367" 
d="M339 154q0 -29 -3 -49t-12 -38q-36 -75 -139 -75q-109 0 -142 73q-8 17 -11 36t-3 48v87q0 30 3 50.5t11 37.5q36 78 142 78q51 0 84 -17.5t55 -55.5q8 -16 11.5 -35.5t3.5 -47.5v-92zM271 240q0 56 -20.5 80.5t-65.5 24.5q-48 0 -67.5 -24t-19.5 -81v-86q0 -57 19.5 -81
t67.5 -24q46 0 66 24.5t20 80.5v86z" />
    <glyph glyph-name="one.dnom" horiz-adv-x="367" 
d="M224 14q0 -8 -3 -11t-13 -3h-36q-18 0 -18 14v319h-65q-16 0 -16 13v34q0 14 16 14h119q10 0 13 -3t3 -11v-366z" />
    <glyph glyph-name="two.dnom" horiz-adv-x="367" 
d="M187 140q-37 -20 -53.5 -37.5t-19.5 -39.5h195q16 0 16 -14v-35q0 -8 -3 -11t-13 -3h-254q-16 0 -16 14v25q0 48 26 83.5t83 67.5l39 22q19 11 32 20t20 18t10 19t3 22v4q0 54 -69 54q-32 0 -49 -11.5t-25 -39.5q-2 -8 -5 -10t-12 -2h-40q-13 0 -13 10q0 48 40 77t107 29
t104 -26.5t37 -74.5v-14q0 -37 -23.5 -66t-77.5 -59z" />
    <glyph glyph-name="three.dnom" horiz-adv-x="367" 
d="M327 296q0 -65 -63 -90q68 -17 68 -91v-15q0 -51 -39 -79.5t-108 -28.5q-88 0 -125 34q-13 11 -20.5 29.5t-7.5 36.5q0 13 12 13h42q13 0 16 -10q8 -27 26.5 -38.5t52.5 -11.5q81 0 81 60v8q0 30 -20 46.5t-58 16.5h-17q-16 0 -16 14v33q0 13 16 13h14q77 0 77 57v4
q0 55 -76 55q-23 0 -37 -4.5t-25 -15.5q-12 -12 -16 -28q-4 -13 -16 -13h-35q-15 0 -15 13q0 37 28 63q38 35 123 35q68 0 103 -24.5t35 -72.5v-9z" />
    <glyph glyph-name="four.dnom" horiz-adv-x="367" 
d="M333 83q0 -12 -14 -12h-27v-58q0 -8 -2.5 -10.5t-11.5 -2.5h-34q-10 0 -12.5 2.5t-2.5 10.5v58h-180q-15 0 -15 12v42q0 11 8 22l173 241q4 6 14 6h49q14 0 14 -13v-256h27q14 0 14 -12v-30zM229 125v192l-135 -192h135z" />
    <glyph glyph-name="five.dnom" horiz-adv-x="367" 
d="M199 257q68 0 99 -30t31 -94v-21q0 -56 -38.5 -88t-105.5 -32q-72 0 -109 24.5t-37 71.5q0 14 11 14h39q13 0 16 -10q11 -27 27.5 -37t50.5 -10q35 0 55.5 18.5t20.5 48.5v13q0 77 -67 77q-8 0 -15 -1t-14.5 -3.5t-17 -7.5l-23.5 -12q-5 -3 -15 -3h-39q-15 0 -15 15v190
q0 14 15 14h229q10 0 13 -3t3 -11v-33q0 -14 -16 -14h-185v-104q43 28 87 28z" />
    <glyph glyph-name="six.dnom" horiz-adv-x="367" 
d="M189 45q85 0 85 70v14q0 71 -85 71q-42 0 -63.5 -18.5t-21.5 -53.5v-11q0 -33 23 -52.5t62 -19.5zM38 218q0 98 35 141t117 43q69 0 105 -22.5t36 -65.5q0 -13 -12 -13h-39q-12 0 -16 10q-12 37 -71 37q-48 0 -66 -18q-21 -22 -21 -71v-40q31 34 98 34q48 0 80 -17
q55 -28 55 -92v-30q0 -57 -40.5 -89.5t-109.5 -32.5q-105 0 -137 71q-8 17 -11 38.5t-3 54.5v62z" />
    <glyph glyph-name="seven.dnom" horiz-adv-x="367" 
d="M55 333q-16 0 -16 14v33q0 8 3 11t13 3h258q16 0 16 -14v-26q0 -20 -3 -36.5t-10.5 -32.5t-20.5 -32.5t-32 -37.5q-38 -41 -54.5 -75t-16.5 -72v-55q0 -8 -2.5 -10.5t-12.5 -2.5h-40q-10 0 -12.5 2.5t-2.5 10.5v41q0 29 3.5 52.5t12.5 44.5t23.5 41t36.5 43
q33 34 46 55.5t14 42.5h-203z" />
    <glyph glyph-name="eight.dnom" horiz-adv-x="367" 
d="M183 402q68 0 106 -28t38 -78v-6q0 -66 -56 -87q32 -8 49 -31.5t17 -60.5v-11q0 -48 -42.5 -78t-111.5 -30q-34 0 -62 8t-48.5 22t-31.5 34t-11 44v11q0 36 17 60t49 32q-55 19 -55 87v6q0 50 38 78t104 28zM183 45q42 0 64.5 16t22.5 45v9q0 26 -25.5 43.5t-61.5 17.5
q-38 0 -62 -17t-24 -44v-9q0 -61 86 -61zM183 227q33 0 55 17t22 43v7q0 26 -21.5 42t-55.5 16q-36 0 -56.5 -15.5t-20.5 -42.5v-7q0 -27 21 -43.5t56 -16.5z" />
    <glyph glyph-name="nine.dnom" horiz-adv-x="367" 
d="M178 349q-85 0 -85 -70v-14q0 -71 85 -71q42 0 63.5 18.5t21.5 53.5v11q0 33 -23 52.5t-62 19.5zM329 176q0 -98 -35 -141t-117 -43q-69 0 -105 22.5t-36 65.5q0 13 12 13h39q12 0 16 -10q12 -37 71 -37q48 0 66 18q21 22 21 71v40q-31 -34 -98 -34q-48 0 -80 17
q-55 28 -55 92v30q0 57 40.5 89.5t109.5 32.5q105 0 137 -71q8 -17 11 -38.5t3 -54.5v-62z" />
    <glyph glyph-name="zero.numr" horiz-adv-x="367" 
d="M339 432q0 -29 -3 -49t-12 -38q-36 -75 -139 -75q-109 0 -142 73q-8 17 -11 36t-3 48v87q0 30 3 50.5t11 37.5q36 78 142 78q51 0 84 -17.5t55 -55.5q8 -16 11.5 -35.5t3.5 -47.5v-92zM271 518q0 56 -20.5 80.5t-65.5 24.5q-48 0 -67.5 -24t-19.5 -81v-86q0 -57 19.5 -81
t67.5 -24q46 0 66 24.5t20 80.5v86z" />
    <glyph glyph-name="one.numr" horiz-adv-x="367" 
d="M224 292q0 -8 -3 -11t-13 -3h-36q-18 0 -18 14v319h-65q-16 0 -16 13v34q0 14 16 14h119q10 0 13 -3t3 -11v-366z" />
    <glyph glyph-name="two.numr" horiz-adv-x="367" 
d="M187 418q-37 -20 -53.5 -37.5t-19.5 -39.5h195q16 0 16 -14v-35q0 -8 -3 -11t-13 -3h-254q-16 0 -16 14v25q0 48 26 83.5t83 67.5l39 22q19 11 32 20t20 18t10 19t3 22v4q0 54 -69 54q-32 0 -49 -11.5t-25 -39.5q-2 -8 -5 -10t-12 -2h-40q-13 0 -13 10q0 48 40 77t107 29
t104 -26.5t37 -74.5v-14q0 -37 -23.5 -66t-77.5 -59z" />
    <glyph glyph-name="three.numr" horiz-adv-x="367" 
d="M327 574q0 -65 -63 -90q68 -17 68 -91v-15q0 -51 -39 -79.5t-108 -28.5q-88 0 -125 34q-13 11 -20.5 29.5t-7.5 36.5q0 13 12 13h42q13 0 16 -10q8 -27 26.5 -38.5t52.5 -11.5q81 0 81 60v8q0 30 -20 46.5t-58 16.5h-17q-16 0 -16 14v33q0 13 16 13h14q77 0 77 57v4
q0 55 -76 55q-23 0 -37 -4.5t-25 -15.5q-12 -12 -16 -28q-4 -13 -16 -13h-35q-15 0 -15 13q0 37 28 63q38 35 123 35q68 0 103 -24.5t35 -72.5v-9z" />
    <glyph glyph-name="four.numr" horiz-adv-x="367" 
d="M333 361q0 -12 -14 -12h-27v-58q0 -8 -2.5 -10.5t-11.5 -2.5h-34q-10 0 -12.5 2.5t-2.5 10.5v58h-180q-15 0 -15 12v42q0 11 8 22l173 241q4 6 14 6h49q14 0 14 -13v-256h27q14 0 14 -12v-30zM229 403v192l-135 -192h135z" />
    <glyph glyph-name="five.numr" horiz-adv-x="367" 
d="M199 535q68 0 99 -30t31 -94v-21q0 -56 -38.5 -88t-105.5 -32q-72 0 -109 24.5t-37 71.5q0 14 11 14h39q13 0 16 -10q11 -27 27.5 -37t50.5 -10q35 0 55.5 18.5t20.5 48.5v13q0 77 -67 77q-8 0 -15 -1t-14.5 -3.5t-17 -7.5l-23.5 -12q-5 -3 -15 -3h-39q-15 0 -15 15v190
q0 14 15 14h229q10 0 13 -3t3 -11v-33q0 -14 -16 -14h-185v-104q43 28 87 28z" />
    <glyph glyph-name="six.numr" horiz-adv-x="367" 
d="M189 323q85 0 85 70v14q0 71 -85 71q-42 0 -63.5 -18.5t-21.5 -53.5v-11q0 -33 23 -52.5t62 -19.5zM38 496q0 98 35 141t117 43q69 0 105 -22.5t36 -65.5q0 -13 -12 -13h-39q-12 0 -16 10q-12 37 -71 37q-48 0 -66 -18q-21 -22 -21 -71v-40q31 34 98 34q48 0 80 -17
q55 -28 55 -92v-30q0 -57 -40.5 -89.5t-109.5 -32.5q-105 0 -137 71q-8 17 -11 38.5t-3 54.5v62z" />
    <glyph glyph-name="seven.numr" horiz-adv-x="367" 
d="M55 611q-16 0 -16 14v33q0 8 3 11t13 3h258q16 0 16 -14v-26q0 -20 -3 -36.5t-10.5 -32.5t-20.5 -32.5t-32 -37.5q-38 -41 -54.5 -75t-16.5 -72v-55q0 -8 -2.5 -10.5t-12.5 -2.5h-40q-10 0 -12.5 2.5t-2.5 10.5v41q0 29 3.5 52.5t12.5 44.5t23.5 41t36.5 43
q33 34 46 55.5t14 42.5h-203z" />
    <glyph glyph-name="eight.numr" horiz-adv-x="367" 
d="M183 680q68 0 106 -28t38 -78v-6q0 -66 -56 -87q32 -8 49 -31.5t17 -60.5v-11q0 -48 -42.5 -78t-111.5 -30q-34 0 -62 8t-48.5 22t-31.5 34t-11 44v11q0 36 17 60t49 32q-55 19 -55 87v6q0 50 38 78t104 28zM183 323q42 0 64.5 16t22.5 45v9q0 26 -25.5 43.5t-61.5 17.5
q-38 0 -62 -17t-24 -44v-9q0 -61 86 -61zM183 505q33 0 55 17t22 43v7q0 26 -21.5 42t-55.5 16q-36 0 -56.5 -15.5t-20.5 -42.5v-7q0 -27 21 -43.5t56 -16.5z" />
    <glyph glyph-name="nine.numr" horiz-adv-x="367" 
d="M178 627q-85 0 -85 -70v-14q0 -71 85 -71q42 0 63.5 18.5t21.5 53.5v11q0 33 -23 52.5t-62 19.5zM329 454q0 -98 -35 -141t-117 -43q-69 0 -105 22.5t-36 65.5q0 13 12 13h39q12 0 16 -10q12 -37 71 -37q48 0 66 18q21 22 21 71v40q-31 -34 -98 -34q-48 0 -80 17
q-55 28 -55 92v30q0 57 40.5 89.5t109.5 32.5q105 0 137 -71q8 -17 11 -38.5t3 -54.5v-62z" />
    <glyph glyph-name="fraction" unicode="&#x2044;" horiz-adv-x="176" 
d="M-32 17q-5 -10 -9.5 -13.5t-12.5 -3.5h-50q-10 0 -10 7q0 2 4 10l317 638q5 10 9.5 13.5t12.5 3.5h50q10 0 10 -7q0 -2 -4 -10z" />
    <glyph glyph-name="percent" unicode="%" horiz-adv-x="817" 
d="M286 17q-5 -10 -9.5 -13.5t-12.5 -3.5h-50q-10 0 -10 7q0 2 4 10l317 638q5 10 9.5 13.5t12.5 3.5h50q10 0 10 -7q0 -2 -4 -10zM789 154q0 -29 -3 -49t-12 -38q-36 -75 -139 -75q-109 0 -142 73q-8 17 -11 36t-3 48v87q0 30 3 50.5t11 37.5q36 78 142 78q51 0 84 -17.5
t55 -55.5q8 -16 11.5 -35.5t3.5 -47.5v-92zM721 240q0 56 -20.5 80.5t-65.5 24.5q-48 0 -67.5 -24t-19.5 -81v-86q0 -57 19.5 -81t67.5 -24q46 0 66 24.5t20 80.5v86zM339 432q0 -29 -3 -49t-12 -38q-36 -75 -139 -75q-109 0 -142 73q-8 17 -11 36t-3 48v87q0 30 3 50.5
t11 37.5q36 78 142 78q51 0 84 -17.5t55 -55.5q8 -16 11.5 -35.5t3.5 -47.5v-92zM271 518q0 56 -20.5 80.5t-65.5 24.5q-48 0 -67.5 -24t-19.5 -81v-86q0 -57 19.5 -81t67.5 -24q46 0 66 24.5t20 80.5v86z" />
    <glyph glyph-name="perthousand" unicode="&#x2030;" horiz-adv-x="1184" 
d="M286 17q-5 -10 -9.5 -13.5t-12.5 -3.5h-50q-10 0 -10 7q0 2 4 10l317 638q5 10 9.5 13.5t12.5 3.5h50q10 0 10 -7q0 -2 -4 -10zM789 154q0 -29 -3 -49t-12 -38q-36 -75 -139 -75q-109 0 -142 73q-8 17 -11 36t-3 48v87q0 30 3 50.5t11 37.5q36 78 142 78q51 0 84 -17.5
t55 -55.5q8 -16 11.5 -35.5t3.5 -47.5v-92zM721 240q0 56 -20.5 80.5t-65.5 24.5q-48 0 -67.5 -24t-19.5 -81v-86q0 -57 19.5 -81t67.5 -24q46 0 66 24.5t20 80.5v86zM1156 154q0 -29 -3 -49t-12 -38q-36 -75 -139 -75q-109 0 -142 73q-8 17 -11 36t-3 48v87q0 30 3 50.5
t11 37.5q36 78 142 78q51 0 84 -17.5t55 -55.5q8 -16 11.5 -35.5t3.5 -47.5v-92zM1088 240q0 56 -20.5 80.5t-65.5 24.5q-48 0 -67.5 -24t-19.5 -81v-86q0 -57 19.5 -81t67.5 -24q46 0 66 24.5t20 80.5v86zM339 432q0 -29 -3 -49t-12 -38q-36 -75 -139 -75q-109 0 -142 73
q-8 17 -11 36t-3 48v87q0 30 3 50.5t11 37.5q36 78 142 78q51 0 84 -17.5t55 -55.5q8 -16 11.5 -35.5t3.5 -47.5v-92zM271 518q0 56 -20.5 80.5t-65.5 24.5q-48 0 -67.5 -24t-19.5 -81v-86q0 -57 19.5 -81t67.5 -24q46 0 66 24.5t20 80.5v86z" />
    <glyph glyph-name="onehalf" unicode="&#xbd;" horiz-adv-x="845" 
d="M268 17q-5 -10 -9.5 -13.5t-12.5 -3.5h-50q-10 0 -10 7q0 2 4 10l317 638q5 10 9.5 13.5t12.5 3.5h50q10 0 10 -7q0 -2 -4 -10zM665 140q-37 -20 -53.5 -37.5t-19.5 -39.5h195q16 0 16 -14v-35q0 -8 -3 -11t-13 -3h-254q-16 0 -16 14v25q0 48 26 83.5t83 67.5l39 22
q19 11 32 20t20 18t10 19t3 22v4q0 54 -69 54q-32 0 -49 -11.5t-25 -39.5q-2 -8 -5 -10t-12 -2h-40q-13 0 -13 10q0 48 40 77t107 29t104 -26.5t37 -74.5v-14q0 -37 -23.5 -66t-77.5 -59zM224 292q0 -8 -3 -11t-13 -3h-36q-18 0 -18 14v319h-65q-16 0 -16 13v34q0 14 16 14
h119q10 0 13 -3t3 -11v-366z" />
    <glyph glyph-name="onethird" unicode="&#x2153;" horiz-adv-x="845" 
d="M278 17q-5 -10 -9.5 -13.5t-12.5 -3.5h-50q-10 0 -10 7q0 2 4 10l317 638q5 10 9.5 13.5t12.5 3.5h50q10 0 10 -7q0 -2 -4 -10zM805 296q0 -65 -63 -90q68 -17 68 -91v-15q0 -51 -39 -79.5t-108 -28.5q-88 0 -125 34q-13 11 -20.5 29.5t-7.5 36.5q0 13 12 13h42
q13 0 16 -10q8 -27 26.5 -38.5t52.5 -11.5q81 0 81 60v8q0 30 -20 46.5t-58 16.5h-17q-16 0 -16 14v33q0 13 16 13h14q77 0 77 57v4q0 55 -76 55q-23 0 -37 -4.5t-25 -15.5q-12 -12 -16 -28q-4 -13 -16 -13h-35q-15 0 -15 13q0 37 28 63q38 35 123 35q68 0 103 -24.5
t35 -72.5v-9zM224 292q0 -8 -3 -11t-13 -3h-36q-18 0 -18 14v319h-65q-16 0 -16 13v34q0 14 16 14h119q10 0 13 -3t3 -11v-366z" />
    <glyph glyph-name="twothirds" unicode="&#x2154;" horiz-adv-x="845" 
d="M313 17q-5 -10 -9.5 -13.5t-12.5 -3.5h-50q-10 0 -10 7q0 2 4 10l317 638q5 10 9.5 13.5t12.5 3.5h50q10 0 10 -7q0 -2 -4 -10zM805 296q0 -65 -63 -90q68 -17 68 -91v-15q0 -51 -39 -79.5t-108 -28.5q-88 0 -125 34q-13 11 -20.5 29.5t-7.5 36.5q0 13 12 13h42
q13 0 16 -10q8 -27 26.5 -38.5t52.5 -11.5q81 0 81 60v8q0 30 -20 46.5t-58 16.5h-17q-16 0 -16 14v33q0 13 16 13h14q77 0 77 57v4q0 55 -76 55q-23 0 -37 -4.5t-25 -15.5q-12 -12 -16 -28q-4 -13 -16 -13h-35q-15 0 -15 13q0 37 28 63q38 35 123 35q68 0 103 -24.5
t35 -72.5v-9zM187 418q-37 -20 -53.5 -37.5t-19.5 -39.5h195q16 0 16 -14v-35q0 -8 -3 -11t-13 -3h-254q-16 0 -16 14v25q0 48 26 83.5t83 67.5l39 22q19 11 32 20t20 18t10 19t3 22v4q0 54 -69 54q-32 0 -49 -11.5t-25 -39.5q-2 -8 -5 -10t-12 -2h-40q-13 0 -13 10
q0 48 40 77t107 29t104 -26.5t37 -74.5v-14q0 -37 -23.5 -66t-77.5 -59z" />
    <glyph glyph-name="onequarter" unicode="&#xbc;" horiz-adv-x="845" 
d="M298 17q-5 -10 -9.5 -13.5t-12.5 -3.5h-50q-10 0 -10 7q0 2 4 10l317 638q5 10 9.5 13.5t12.5 3.5h50q10 0 10 -7q0 -2 -4 -10zM811 83q0 -12 -14 -12h-27v-58q0 -8 -2.5 -10.5t-11.5 -2.5h-34q-10 0 -12.5 2.5t-2.5 10.5v58h-180q-15 0 -15 12v42q0 11 8 22l173 241
q4 6 14 6h49q14 0 14 -13v-256h27q14 0 14 -12v-30zM707 125v192l-135 -192h135zM224 292q0 -8 -3 -11t-13 -3h-36q-18 0 -18 14v319h-65q-16 0 -16 13v34q0 14 16 14h119q10 0 13 -3t3 -11v-366z" />
    <glyph glyph-name="threequarters" unicode="&#xbe;" horiz-adv-x="845" 
d="M328 17q-5 -10 -9.5 -13.5t-12.5 -3.5h-50q-10 0 -10 7q0 2 4 10l317 638q5 10 9.5 13.5t12.5 3.5h50q10 0 10 -7q0 -2 -4 -10zM811 83q0 -12 -14 -12h-27v-58q0 -8 -2.5 -10.5t-11.5 -2.5h-34q-10 0 -12.5 2.5t-2.5 10.5v58h-180q-15 0 -15 12v42q0 11 8 22l173 241
q4 6 14 6h49q14 0 14 -13v-256h27q14 0 14 -12v-30zM707 125v192l-135 -192h135zM327 574q0 -65 -63 -90q68 -17 68 -91v-15q0 -51 -39 -79.5t-108 -28.5q-88 0 -125 34q-13 11 -20.5 29.5t-7.5 36.5q0 13 12 13h42q13 0 16 -10q8 -27 26.5 -38.5t52.5 -11.5q81 0 81 60v8
q0 30 -20 46.5t-58 16.5h-17q-16 0 -16 14v33q0 13 16 13h14q77 0 77 57v4q0 55 -76 55q-23 0 -37 -4.5t-25 -15.5q-12 -12 -16 -28q-4 -13 -16 -13h-35q-15 0 -15 13q0 37 28 63q38 35 123 35q68 0 103 -24.5t35 -72.5v-9z" />
    <glyph glyph-name="uni2155" unicode="&#x2155;" horiz-adv-x="845" 
d="M268 17q-5 -10 -9.5 -13.5t-12.5 -3.5h-50q-10 0 -10 7q0 2 4 10l317 638q5 10 9.5 13.5t12.5 3.5h50q10 0 10 -7q0 -2 -4 -10zM677 257q68 0 99 -30t31 -94v-21q0 -56 -38.5 -88t-105.5 -32q-72 0 -109 24.5t-37 71.5q0 14 11 14h39q13 0 16 -10q11 -27 27.5 -37
t50.5 -10q35 0 55.5 18.5t20.5 48.5v13q0 77 -67 77q-8 0 -15 -1t-14.5 -3.5t-17 -7.5l-23.5 -12q-5 -3 -15 -3h-39q-15 0 -15 15v190q0 14 15 14h229q10 0 13 -3t3 -11v-33q0 -14 -16 -14h-185v-104q43 28 87 28zM224 292q0 -8 -3 -11t-13 -3h-36q-18 0 -18 14v319h-65
q-16 0 -16 13v34q0 14 16 14h119q10 0 13 -3t3 -11v-366z" />
    <glyph glyph-name="uni2156" unicode="&#x2156;" horiz-adv-x="845" 
d="M308 17q-5 -10 -9.5 -13.5t-12.5 -3.5h-50q-10 0 -10 7q0 2 4 10l317 638q5 10 9.5 13.5t12.5 3.5h50q10 0 10 -7q0 -2 -4 -10zM677 257q68 0 99 -30t31 -94v-21q0 -56 -38.5 -88t-105.5 -32q-72 0 -109 24.5t-37 71.5q0 14 11 14h39q13 0 16 -10q11 -27 27.5 -37
t50.5 -10q35 0 55.5 18.5t20.5 48.5v13q0 77 -67 77q-8 0 -15 -1t-14.5 -3.5t-17 -7.5l-23.5 -12q-5 -3 -15 -3h-39q-15 0 -15 15v190q0 14 15 14h229q10 0 13 -3t3 -11v-33q0 -14 -16 -14h-185v-104q43 28 87 28zM187 418q-37 -20 -53.5 -37.5t-19.5 -39.5h195q16 0 16 -14
v-35q0 -8 -3 -11t-13 -3h-254q-16 0 -16 14v25q0 48 26 83.5t83 67.5l39 22q19 11 32 20t20 18t10 19t3 22v4q0 54 -69 54q-32 0 -49 -11.5t-25 -39.5q-2 -8 -5 -10t-12 -2h-40q-13 0 -13 10q0 48 40 77t107 29t104 -26.5t37 -74.5v-14q0 -37 -23.5 -66t-77.5 -59z" />
    <glyph glyph-name="uni2157" unicode="&#x2157;" horiz-adv-x="845" 
d="M298 17q-5 -10 -9.5 -13.5t-12.5 -3.5h-50q-10 0 -10 7q0 2 4 10l317 638q5 10 9.5 13.5t12.5 3.5h50q10 0 10 -7q0 -2 -4 -10zM677 257q68 0 99 -30t31 -94v-21q0 -56 -38.5 -88t-105.5 -32q-72 0 -109 24.5t-37 71.5q0 14 11 14h39q13 0 16 -10q11 -27 27.5 -37
t50.5 -10q35 0 55.5 18.5t20.5 48.5v13q0 77 -67 77q-8 0 -15 -1t-14.5 -3.5t-17 -7.5l-23.5 -12q-5 -3 -15 -3h-39q-15 0 -15 15v190q0 14 15 14h229q10 0 13 -3t3 -11v-33q0 -14 -16 -14h-185v-104q43 28 87 28zM327 574q0 -65 -63 -90q68 -17 68 -91v-15q0 -51 -39 -79.5
t-108 -28.5q-88 0 -125 34q-13 11 -20.5 29.5t-7.5 36.5q0 13 12 13h42q13 0 16 -10q8 -27 26.5 -38.5t52.5 -11.5q81 0 81 60v8q0 30 -20 46.5t-58 16.5h-17q-16 0 -16 14v33q0 13 16 13h14q77 0 77 57v4q0 55 -76 55q-23 0 -37 -4.5t-25 -15.5q-12 -12 -16 -28
q-4 -13 -16 -13h-35q-15 0 -15 13q0 37 28 63q38 35 123 35q68 0 103 -24.5t35 -72.5v-9z" />
    <glyph glyph-name="uni2158" unicode="&#x2158;" horiz-adv-x="845" 
d="M298 17q-5 -10 -9.5 -13.5t-12.5 -3.5h-50q-10 0 -10 7q0 2 4 10l317 638q5 10 9.5 13.5t12.5 3.5h50q10 0 10 -7q0 -2 -4 -10zM677 257q68 0 99 -30t31 -94v-21q0 -56 -38.5 -88t-105.5 -32q-72 0 -109 24.5t-37 71.5q0 14 11 14h39q13 0 16 -10q11 -27 27.5 -37
t50.5 -10q35 0 55.5 18.5t20.5 48.5v13q0 77 -67 77q-8 0 -15 -1t-14.5 -3.5t-17 -7.5l-23.5 -12q-5 -3 -15 -3h-39q-15 0 -15 15v190q0 14 15 14h229q10 0 13 -3t3 -11v-33q0 -14 -16 -14h-185v-104q43 28 87 28zM333 361q0 -12 -14 -12h-27v-58q0 -8 -2.5 -10.5
t-11.5 -2.5h-34q-10 0 -12.5 2.5t-2.5 10.5v58h-180q-15 0 -15 12v42q0 11 8 22l173 241q4 6 14 6h49q14 0 14 -13v-256h27q14 0 14 -12v-30zM229 403v192l-135 -192h135z" />
    <glyph glyph-name="uni2159" unicode="&#x2159;" horiz-adv-x="845" 
d="M278 17q-5 -10 -9.5 -13.5t-12.5 -3.5h-50q-10 0 -10 7q0 2 4 10l317 638q5 10 9.5 13.5t12.5 3.5h50q10 0 10 -7q0 -2 -4 -10zM667 45q85 0 85 70v14q0 71 -85 71q-42 0 -63.5 -18.5t-21.5 -53.5v-11q0 -33 23 -52.5t62 -19.5zM516 218q0 98 35 141t117 43
q69 0 105 -22.5t36 -65.5q0 -13 -12 -13h-39q-12 0 -16 10q-12 37 -71 37q-48 0 -66 -18q-21 -22 -21 -71v-40q31 34 98 34q48 0 80 -17q55 -28 55 -92v-30q0 -57 -40.5 -89.5t-109.5 -32.5q-105 0 -137 71q-8 17 -11 38.5t-3 54.5v62zM224 292q0 -8 -3 -11t-13 -3h-36
q-18 0 -18 14v319h-65q-16 0 -16 13v34q0 14 16 14h119q10 0 13 -3t3 -11v-366z" />
    <glyph glyph-name="uni215A" unicode="&#x215a;" horiz-adv-x="845" 
d="M308 17q-5 -10 -9.5 -13.5t-12.5 -3.5h-50q-10 0 -10 7q0 2 4 10l317 638q5 10 9.5 13.5t12.5 3.5h50q10 0 10 -7q0 -2 -4 -10zM667 45q85 0 85 70v14q0 71 -85 71q-42 0 -63.5 -18.5t-21.5 -53.5v-11q0 -33 23 -52.5t62 -19.5zM516 218q0 98 35 141t117 43
q69 0 105 -22.5t36 -65.5q0 -13 -12 -13h-39q-12 0 -16 10q-12 37 -71 37q-48 0 -66 -18q-21 -22 -21 -71v-40q31 34 98 34q48 0 80 -17q55 -28 55 -92v-30q0 -57 -40.5 -89.5t-109.5 -32.5q-105 0 -137 71q-8 17 -11 38.5t-3 54.5v62zM199 535q68 0 99 -30t31 -94v-21
q0 -56 -38.5 -88t-105.5 -32q-72 0 -109 24.5t-37 71.5q0 14 11 14h39q13 0 16 -10q11 -27 27.5 -37t50.5 -10q35 0 55.5 18.5t20.5 48.5v13q0 77 -67 77q-8 0 -15 -1t-14.5 -3.5t-17 -7.5l-23.5 -12q-5 -3 -15 -3h-39q-15 0 -15 15v190q0 14 15 14h229q10 0 13 -3t3 -11
v-33q0 -14 -16 -14h-185v-104q43 28 87 28z" />
    <glyph glyph-name="uni2150" unicode="&#x2150;" horiz-adv-x="845" 
d="M258 17q-5 -10 -9.5 -13.5t-12.5 -3.5h-50q-10 0 -10 7q0 2 4 10l317 638q5 10 9.5 13.5t12.5 3.5h50q10 0 10 -7q0 -2 -4 -10zM533 333q-16 0 -16 14v33q0 8 3 11t13 3h258q16 0 16 -14v-26q0 -20 -3 -36.5t-10.5 -32.5t-20.5 -32.5t-32 -37.5q-38 -41 -54.5 -75
t-16.5 -72v-55q0 -8 -2.5 -10.5t-12.5 -2.5h-40q-10 0 -12.5 2.5t-2.5 10.5v41q0 29 3.5 52.5t12.5 44.5t23.5 41t36.5 43q33 34 46 55.5t14 42.5h-203zM224 292q0 -8 -3 -11t-13 -3h-36q-18 0 -18 14v319h-65q-16 0 -16 13v34q0 14 16 14h119q10 0 13 -3t3 -11v-366z" />
    <glyph glyph-name="twosevenths" unicode="&#xf507;" horiz-adv-x="845" 
d="M303 17q-5 -10 -9.5 -13.5t-12.5 -3.5h-50q-10 0 -10 7q0 2 4 10l317 638q5 10 9.5 13.5t12.5 3.5h50q10 0 10 -7q0 -2 -4 -10zM533 333q-16 0 -16 14v33q0 8 3 11t13 3h258q16 0 16 -14v-26q0 -20 -3 -36.5t-10.5 -32.5t-20.5 -32.5t-32 -37.5q-38 -41 -54.5 -75
t-16.5 -72v-55q0 -8 -2.5 -10.5t-12.5 -2.5h-40q-10 0 -12.5 2.5t-2.5 10.5v41q0 29 3.5 52.5t12.5 44.5t23.5 41t36.5 43q33 34 46 55.5t14 42.5h-203zM187 418q-37 -20 -53.5 -37.5t-19.5 -39.5h195q16 0 16 -14v-35q0 -8 -3 -11t-13 -3h-254q-16 0 -16 14v25
q0 48 26 83.5t83 67.5l39 22q19 11 32 20t20 18t10 19t3 22v4q0 54 -69 54q-32 0 -49 -11.5t-25 -39.5q-2 -8 -5 -10t-12 -2h-40q-13 0 -13 10q0 48 40 77t107 29t104 -26.5t37 -74.5v-14q0 -37 -23.5 -66t-77.5 -59z" />
    <glyph glyph-name="threesevenths" unicode="&#xf508;" horiz-adv-x="845" 
d="M293 17q-5 -10 -9.5 -13.5t-12.5 -3.5h-50q-10 0 -10 7q0 2 4 10l317 638q5 10 9.5 13.5t12.5 3.5h50q10 0 10 -7q0 -2 -4 -10zM533 333q-16 0 -16 14v33q0 8 3 11t13 3h258q16 0 16 -14v-26q0 -20 -3 -36.5t-10.5 -32.5t-20.5 -32.5t-32 -37.5q-38 -41 -54.5 -75
t-16.5 -72v-55q0 -8 -2.5 -10.5t-12.5 -2.5h-40q-10 0 -12.5 2.5t-2.5 10.5v41q0 29 3.5 52.5t12.5 44.5t23.5 41t36.5 43q33 34 46 55.5t14 42.5h-203zM327 574q0 -65 -63 -90q68 -17 68 -91v-15q0 -51 -39 -79.5t-108 -28.5q-88 0 -125 34q-13 11 -20.5 29.5t-7.5 36.5
q0 13 12 13h42q13 0 16 -10q8 -27 26.5 -38.5t52.5 -11.5q81 0 81 60v8q0 30 -20 46.5t-58 16.5h-17q-16 0 -16 14v33q0 13 16 13h14q77 0 77 57v4q0 55 -76 55q-23 0 -37 -4.5t-25 -15.5q-12 -12 -16 -28q-4 -13 -16 -13h-35q-15 0 -15 13q0 37 28 63q38 35 123 35
q68 0 103 -24.5t35 -72.5v-9z" />
    <glyph glyph-name="foursevenths" unicode="&#xf509;" horiz-adv-x="845" 
d="M293 17q-5 -10 -9.5 -13.5t-12.5 -3.5h-50q-10 0 -10 7q0 2 4 10l317 638q5 10 9.5 13.5t12.5 3.5h50q10 0 10 -7q0 -2 -4 -10zM533 333q-16 0 -16 14v33q0 8 3 11t13 3h258q16 0 16 -14v-26q0 -20 -3 -36.5t-10.5 -32.5t-20.5 -32.5t-32 -37.5q-38 -41 -54.5 -75
t-16.5 -72v-55q0 -8 -2.5 -10.5t-12.5 -2.5h-40q-10 0 -12.5 2.5t-2.5 10.5v41q0 29 3.5 52.5t12.5 44.5t23.5 41t36.5 43q33 34 46 55.5t14 42.5h-203zM333 361q0 -12 -14 -12h-27v-58q0 -8 -2.5 -10.5t-11.5 -2.5h-34q-10 0 -12.5 2.5t-2.5 10.5v58h-180q-15 0 -15 12v42
q0 11 8 22l173 241q4 6 14 6h49q14 0 14 -13v-256h27q14 0 14 -12v-30zM229 403v192l-135 -192h135z" />
    <glyph glyph-name="fivesevenths" unicode="&#xf50a;" horiz-adv-x="845" 
d="M288 17q-5 -10 -9.5 -13.5t-12.5 -3.5h-50q-10 0 -10 7q0 2 4 10l317 638q5 10 9.5 13.5t12.5 3.5h50q10 0 10 -7q0 -2 -4 -10zM533 333q-16 0 -16 14v33q0 8 3 11t13 3h258q16 0 16 -14v-26q0 -20 -3 -36.5t-10.5 -32.5t-20.5 -32.5t-32 -37.5q-38 -41 -54.5 -75
t-16.5 -72v-55q0 -8 -2.5 -10.5t-12.5 -2.5h-40q-10 0 -12.5 2.5t-2.5 10.5v41q0 29 3.5 52.5t12.5 44.5t23.5 41t36.5 43q33 34 46 55.5t14 42.5h-203zM199 535q68 0 99 -30t31 -94v-21q0 -56 -38.5 -88t-105.5 -32q-72 0 -109 24.5t-37 71.5q0 14 11 14h39q13 0 16 -10
q11 -27 27.5 -37t50.5 -10q35 0 55.5 18.5t20.5 48.5v13q0 77 -67 77q-8 0 -15 -1t-14.5 -3.5t-17 -7.5l-23.5 -12q-5 -3 -15 -3h-39q-15 0 -15 15v190q0 14 15 14h229q10 0 13 -3t3 -11v-33q0 -14 -16 -14h-185v-104q43 28 87 28z" />
    <glyph glyph-name="sixsevenths" unicode="&#xf50b;" horiz-adv-x="845" 
d="M288 17q-5 -10 -9.5 -13.5t-12.5 -3.5h-50q-10 0 -10 7q0 2 4 10l317 638q5 10 9.5 13.5t12.5 3.5h50q10 0 10 -7q0 -2 -4 -10zM533 333q-16 0 -16 14v33q0 8 3 11t13 3h258q16 0 16 -14v-26q0 -20 -3 -36.5t-10.5 -32.5t-20.5 -32.5t-32 -37.5q-38 -41 -54.5 -75
t-16.5 -72v-55q0 -8 -2.5 -10.5t-12.5 -2.5h-40q-10 0 -12.5 2.5t-2.5 10.5v41q0 29 3.5 52.5t12.5 44.5t23.5 41t36.5 43q33 34 46 55.5t14 42.5h-203zM189 323q85 0 85 70v14q0 71 -85 71q-42 0 -63.5 -18.5t-21.5 -53.5v-11q0 -33 23 -52.5t62 -19.5zM38 496q0 98 35 141
t117 43q69 0 105 -22.5t36 -65.5q0 -13 -12 -13h-39q-12 0 -16 10q-12 37 -71 37q-48 0 -66 -18q-21 -22 -21 -71v-40q31 34 98 34q48 0 80 -17q55 -28 55 -92v-30q0 -57 -40.5 -89.5t-109.5 -32.5q-105 0 -137 71q-8 17 -11 38.5t-3 54.5v62z" />
    <glyph glyph-name="oneeighth" unicode="&#x215b;" horiz-adv-x="845" 
d="M278 17q-5 -10 -9.5 -13.5t-12.5 -3.5h-50q-10 0 -10 7q0 2 4 10l317 638q5 10 9.5 13.5t12.5 3.5h50q10 0 10 -7q0 -2 -4 -10zM661 402q68 0 106 -28t38 -78v-6q0 -66 -56 -87q32 -8 49 -31.5t17 -60.5v-11q0 -48 -42.5 -78t-111.5 -30q-34 0 -62 8t-48.5 22t-31.5 34
t-11 44v11q0 36 17 60t49 32q-55 19 -55 87v6q0 50 38 78t104 28zM661 45q42 0 64.5 16t22.5 45v9q0 26 -25.5 43.5t-61.5 17.5q-38 0 -62 -17t-24 -44v-9q0 -61 86 -61zM661 227q33 0 55 17t22 43v7q0 26 -21.5 42t-55.5 16q-36 0 -56.5 -15.5t-20.5 -42.5v-7
q0 -27 21 -43.5t56 -16.5zM224 292q0 -8 -3 -11t-13 -3h-36q-18 0 -18 14v319h-65q-16 0 -16 13v34q0 14 16 14h119q10 0 13 -3t3 -11v-366z" />
    <glyph glyph-name="threeeighths" unicode="&#x215c;" horiz-adv-x="845" 
d="M308 17q-5 -10 -9.5 -13.5t-12.5 -3.5h-50q-10 0 -10 7q0 2 4 10l317 638q5 10 9.5 13.5t12.5 3.5h50q10 0 10 -7q0 -2 -4 -10zM661 402q68 0 106 -28t38 -78v-6q0 -66 -56 -87q32 -8 49 -31.5t17 -60.5v-11q0 -48 -42.5 -78t-111.5 -30q-34 0 -62 8t-48.5 22t-31.5 34
t-11 44v11q0 36 17 60t49 32q-55 19 -55 87v6q0 50 38 78t104 28zM661 45q42 0 64.5 16t22.5 45v9q0 26 -25.5 43.5t-61.5 17.5q-38 0 -62 -17t-24 -44v-9q0 -61 86 -61zM661 227q33 0 55 17t22 43v7q0 26 -21.5 42t-55.5 16q-36 0 -56.5 -15.5t-20.5 -42.5v-7
q0 -27 21 -43.5t56 -16.5zM327 574q0 -65 -63 -90q68 -17 68 -91v-15q0 -51 -39 -79.5t-108 -28.5q-88 0 -125 34q-13 11 -20.5 29.5t-7.5 36.5q0 13 12 13h42q13 0 16 -10q8 -27 26.5 -38.5t52.5 -11.5q81 0 81 60v8q0 30 -20 46.5t-58 16.5h-17q-16 0 -16 14v33
q0 13 16 13h14q77 0 77 57v4q0 55 -76 55q-23 0 -37 -4.5t-25 -15.5q-12 -12 -16 -28q-4 -13 -16 -13h-35q-15 0 -15 13q0 37 28 63q38 35 123 35q68 0 103 -24.5t35 -72.5v-9z" />
    <glyph glyph-name="fiveeighths" unicode="&#x215d;" horiz-adv-x="845" 
d="M308 17q-5 -10 -9.5 -13.5t-12.5 -3.5h-50q-10 0 -10 7q0 2 4 10l317 638q5 10 9.5 13.5t12.5 3.5h50q10 0 10 -7q0 -2 -4 -10zM661 402q68 0 106 -28t38 -78v-6q0 -66 -56 -87q32 -8 49 -31.5t17 -60.5v-11q0 -48 -42.5 -78t-111.5 -30q-34 0 -62 8t-48.5 22t-31.5 34
t-11 44v11q0 36 17 60t49 32q-55 19 -55 87v6q0 50 38 78t104 28zM661 45q42 0 64.5 16t22.5 45v9q0 26 -25.5 43.5t-61.5 17.5q-38 0 -62 -17t-24 -44v-9q0 -61 86 -61zM661 227q33 0 55 17t22 43v7q0 26 -21.5 42t-55.5 16q-36 0 -56.5 -15.5t-20.5 -42.5v-7
q0 -27 21 -43.5t56 -16.5zM199 535q68 0 99 -30t31 -94v-21q0 -56 -38.5 -88t-105.5 -32q-72 0 -109 24.5t-37 71.5q0 14 11 14h39q13 0 16 -10q11 -27 27.5 -37t50.5 -10q35 0 55.5 18.5t20.5 48.5v13q0 77 -67 77q-8 0 -15 -1t-14.5 -3.5t-17 -7.5l-23.5 -12q-5 -3 -15 -3
h-39q-15 0 -15 15v190q0 14 15 14h229q10 0 13 -3t3 -11v-33q0 -14 -16 -14h-185v-104q43 28 87 28z" />
    <glyph glyph-name="seveneighths" unicode="&#x215e;" horiz-adv-x="845" 
d="M273 17q-5 -10 -9.5 -13.5t-12.5 -3.5h-50q-10 0 -10 7q0 2 4 10l317 638q5 10 9.5 13.5t12.5 3.5h50q10 0 10 -7q0 -2 -4 -10zM661 402q68 0 106 -28t38 -78v-6q0 -66 -56 -87q32 -8 49 -31.5t17 -60.5v-11q0 -48 -42.5 -78t-111.5 -30q-34 0 -62 8t-48.5 22t-31.5 34
t-11 44v11q0 36 17 60t49 32q-55 19 -55 87v6q0 50 38 78t104 28zM661 45q42 0 64.5 16t22.5 45v9q0 26 -25.5 43.5t-61.5 17.5q-38 0 -62 -17t-24 -44v-9q0 -61 86 -61zM661 227q33 0 55 17t22 43v7q0 26 -21.5 42t-55.5 16q-36 0 -56.5 -15.5t-20.5 -42.5v-7
q0 -27 21 -43.5t56 -16.5zM55 611q-16 0 -16 14v33q0 8 3 11t13 3h258q16 0 16 -14v-26q0 -20 -3 -36.5t-10.5 -32.5t-20.5 -32.5t-32 -37.5q-38 -41 -54.5 -75t-16.5 -72v-55q0 -8 -2.5 -10.5t-12.5 -2.5h-40q-10 0 -12.5 2.5t-2.5 10.5v41q0 29 3.5 52.5t12.5 44.5
t23.5 41t36.5 43q33 34 46 55.5t14 42.5h-203z" />
    <glyph glyph-name="uni2151" unicode="&#x2151;" horiz-adv-x="845" 
d="M278 17q-5 -10 -9.5 -13.5t-12.5 -3.5h-50q-10 0 -10 7q0 2 4 10l317 638q5 10 9.5 13.5t12.5 3.5h50q10 0 10 -7q0 -2 -4 -10zM656 349q-85 0 -85 -70v-14q0 -71 85 -71q42 0 63.5 18.5t21.5 53.5v11q0 33 -23 52.5t-62 19.5zM807 176q0 -98 -35 -141t-117 -43
q-69 0 -105 22.5t-36 65.5q0 13 12 13h39q12 0 16 -10q12 -37 71 -37q48 0 66 18q21 22 21 71v40q-31 -34 -98 -34q-48 0 -80 17q-55 28 -55 92v30q0 57 40.5 89.5t109.5 32.5q105 0 137 -71q8 -17 11 -38.5t3 -54.5v-62zM224 292q0 -8 -3 -11t-13 -3h-36q-18 0 -18 14v319
h-65q-16 0 -16 13v34q0 14 16 14h119q10 0 13 -3t3 -11v-366z" />
    <glyph glyph-name="twoninths" unicode="&#xf50d;" horiz-adv-x="845" 
d="M313 17q-5 -10 -9.5 -13.5t-12.5 -3.5h-50q-10 0 -10 7q0 2 4 10l317 638q5 10 9.5 13.5t12.5 3.5h50q10 0 10 -7q0 -2 -4 -10zM656 349q-85 0 -85 -70v-14q0 -71 85 -71q42 0 63.5 18.5t21.5 53.5v11q0 33 -23 52.5t-62 19.5zM807 176q0 -98 -35 -141t-117 -43
q-69 0 -105 22.5t-36 65.5q0 13 12 13h39q12 0 16 -10q12 -37 71 -37q48 0 66 18q21 22 21 71v40q-31 -34 -98 -34q-48 0 -80 17q-55 28 -55 92v30q0 57 40.5 89.5t109.5 32.5q105 0 137 -71q8 -17 11 -38.5t3 -54.5v-62zM187 418q-37 -20 -53.5 -37.5t-19.5 -39.5h195
q16 0 16 -14v-35q0 -8 -3 -11t-13 -3h-254q-16 0 -16 14v25q0 48 26 83.5t83 67.5l39 22q19 11 32 20t20 18t10 19t3 22v4q0 54 -69 54q-32 0 -49 -11.5t-25 -39.5q-2 -8 -5 -10t-12 -2h-40q-13 0 -13 10q0 48 40 77t107 29t104 -26.5t37 -74.5v-14q0 -37 -23.5 -66
t-77.5 -59z" />
    <glyph glyph-name="fourninths" unicode="&#xf50e;" horiz-adv-x="845" 
d="M308 17q-5 -10 -9.5 -13.5t-12.5 -3.5h-50q-10 0 -10 7q0 2 4 10l317 638q5 10 9.5 13.5t12.5 3.5h50q10 0 10 -7q0 -2 -4 -10zM656 349q-85 0 -85 -70v-14q0 -71 85 -71q42 0 63.5 18.5t21.5 53.5v11q0 33 -23 52.5t-62 19.5zM807 176q0 -98 -35 -141t-117 -43
q-69 0 -105 22.5t-36 65.5q0 13 12 13h39q12 0 16 -10q12 -37 71 -37q48 0 66 18q21 22 21 71v40q-31 -34 -98 -34q-48 0 -80 17q-55 28 -55 92v30q0 57 40.5 89.5t109.5 32.5q105 0 137 -71q8 -17 11 -38.5t3 -54.5v-62zM333 361q0 -12 -14 -12h-27v-58q0 -8 -2.5 -10.5
t-11.5 -2.5h-34q-10 0 -12.5 2.5t-2.5 10.5v58h-180q-15 0 -15 12v42q0 11 8 22l173 241q4 6 14 6h49q14 0 14 -13v-256h27q14 0 14 -12v-30zM229 403v192l-135 -192h135z" />
    <glyph glyph-name="fiveninths" unicode="&#xf50f;" horiz-adv-x="845" 
d="M298 17q-5 -10 -9.5 -13.5t-12.5 -3.5h-50q-10 0 -10 7q0 2 4 10l317 638q5 10 9.5 13.5t12.5 3.5h50q10 0 10 -7q0 -2 -4 -10zM656 349q-85 0 -85 -70v-14q0 -71 85 -71q42 0 63.5 18.5t21.5 53.5v11q0 33 -23 52.5t-62 19.5zM807 176q0 -98 -35 -141t-117 -43
q-69 0 -105 22.5t-36 65.5q0 13 12 13h39q12 0 16 -10q12 -37 71 -37q48 0 66 18q21 22 21 71v40q-31 -34 -98 -34q-48 0 -80 17q-55 28 -55 92v30q0 57 40.5 89.5t109.5 32.5q105 0 137 -71q8 -17 11 -38.5t3 -54.5v-62zM199 535q68 0 99 -30t31 -94v-21q0 -56 -38.5 -88
t-105.5 -32q-72 0 -109 24.5t-37 71.5q0 14 11 14h39q13 0 16 -10q11 -27 27.5 -37t50.5 -10q35 0 55.5 18.5t20.5 48.5v13q0 77 -67 77q-8 0 -15 -1t-14.5 -3.5t-17 -7.5l-23.5 -12q-5 -3 -15 -3h-39q-15 0 -15 15v190q0 14 15 14h229q10 0 13 -3t3 -11v-33q0 -14 -16 -14
h-185v-104q43 28 87 28z" />
    <glyph glyph-name="sevenninths" unicode="&#xf510;" horiz-adv-x="845" 
d="M268 17q-5 -10 -9.5 -13.5t-12.5 -3.5h-50q-10 0 -10 7q0 2 4 10l317 638q5 10 9.5 13.5t12.5 3.5h50q10 0 10 -7q0 -2 -4 -10zM656 349q-85 0 -85 -70v-14q0 -71 85 -71q42 0 63.5 18.5t21.5 53.5v11q0 33 -23 52.5t-62 19.5zM807 176q0 -98 -35 -141t-117 -43
q-69 0 -105 22.5t-36 65.5q0 13 12 13h39q12 0 16 -10q12 -37 71 -37q48 0 66 18q21 22 21 71v40q-31 -34 -98 -34q-48 0 -80 17q-55 28 -55 92v30q0 57 40.5 89.5t109.5 32.5q105 0 137 -71q8 -17 11 -38.5t3 -54.5v-62zM55 611q-16 0 -16 14v33q0 8 3 11t13 3h258
q16 0 16 -14v-26q0 -20 -3 -36.5t-10.5 -32.5t-20.5 -32.5t-32 -37.5q-38 -41 -54.5 -75t-16.5 -72v-55q0 -8 -2.5 -10.5t-12.5 -2.5h-40q-10 0 -12.5 2.5t-2.5 10.5v41q0 29 3.5 52.5t12.5 44.5t23.5 41t36.5 43q33 34 46 55.5t14 42.5h-203z" />
    <glyph glyph-name="eightninths" unicode="&#xf511;" horiz-adv-x="845" 
d="M303 17q-5 -10 -9.5 -13.5t-12.5 -3.5h-50q-10 0 -10 7q0 2 4 10l317 638q5 10 9.5 13.5t12.5 3.5h50q10 0 10 -7q0 -2 -4 -10zM656 349q-85 0 -85 -70v-14q0 -71 85 -71q42 0 63.5 18.5t21.5 53.5v11q0 33 -23 52.5t-62 19.5zM807 176q0 -98 -35 -141t-117 -43
q-69 0 -105 22.5t-36 65.5q0 13 12 13h39q12 0 16 -10q12 -37 71 -37q48 0 66 18q21 22 21 71v40q-31 -34 -98 -34q-48 0 -80 17q-55 28 -55 92v30q0 57 40.5 89.5t109.5 32.5q105 0 137 -71q8 -17 11 -38.5t3 -54.5v-62zM183 680q68 0 106 -28t38 -78v-6q0 -66 -56 -87
q32 -8 49 -31.5t17 -60.5v-11q0 -48 -42.5 -78t-111.5 -30q-34 0 -62 8t-48.5 22t-31.5 34t-11 44v11q0 36 17 60t49 32q-55 19 -55 87v6q0 50 38 78t104 28zM183 323q42 0 64.5 16t22.5 45v9q0 26 -25.5 43.5t-61.5 17.5q-38 0 -62 -17t-24 -44v-9q0 -61 86 -61zM183 505
q33 0 55 17t22 43v7q0 26 -21.5 42t-55.5 16q-36 0 -56.5 -15.5t-20.5 -42.5v-7q0 -27 21 -43.5t56 -16.5z" />
    <glyph glyph-name="dollar" unicode="$" horiz-adv-x="570" 
d="M62 138q0 11 4.5 15t17.5 4h31q13 0 17 -3t6 -14q10 -41 38 -62t76 -26v262l-32 9q-157 41 -157 174v5q0 82 49.5 128.5t139.5 54.5v66q0 11 4 14t16 3h23q12 0 16 -3t4 -14v-66q56 -4 89.5 -20t56.5 -40q17 -17 26.5 -40t9.5 -46q0 -11 -4.5 -15t-17.5 -4h-32
q-13 0 -17 3t-6 14q-5 33 -32.5 55t-72.5 28v-250l23 -6q82 -22 126 -66.5t44 -127.5v-5q0 -80 -49.5 -126t-143.5 -52v-77q0 -11 -4 -14t-16 -3h-23q-12 0 -16 3t-4 14v77q-48 3 -83 15.5t-59 34.5q-20 18 -34 47.5t-14 53.5zM430 160q0 57 -26 88.5t-89 49.5v-247
q56 6 85.5 34t29.5 75zM137 507q0 -48 25.5 -75.5t84.5 -43.5l5 -2v234q-115 -12 -115 -113z" />
    <glyph glyph-name="cent" unicode="&#xa2;" horiz-adv-x="570" 
d="M318 537q85 -6 129 -54q38 -43 38 -97q0 -11 -4.5 -15t-17.5 -4h-32q-13 0 -17 3t-6 14q-5 36 -28 58t-62 27v-413q76 9 90 84q2 11 6 14t17 3h33q13 0 17.5 -4t4.5 -15q0 -18 -7.5 -40.5t-21.5 -42.5q-40 -61 -139 -68v-86q0 -11 -4 -14t-16 -3h-14q-12 0 -16 3t-4 14
v86q-89 7 -134.5 61.5t-45.5 155.5v106q0 106 45.5 163t134.5 64v84q0 11 4 14t16 3h14q12 0 16 -3t4 -14v-84zM163 220q0 -78 24.5 -117t76.5 -47v413q-53 -8 -77 -47.5t-24 -117.5v-84z" />
    <glyph glyph-name="sterling" unicode="&#xa3;" horiz-adv-x="570" 
d="M438 528q-6 43 -39 67.5t-85 24.5q-66 0 -96.5 -34.5t-30.5 -108.5v-100h186q11 0 14 -4t3 -16v-25q0 -12 -3 -16t-14 -4h-186v-244h302q12 0 16.5 -4t4.5 -16v-28q0 -12 -4.5 -16t-16.5 -4h-360q-12 0 -16.5 4t-4.5 16v292h-41q-11 0 -14 4t-3 16v25q0 12 3 16t14 4h41
v103q0 101 52.5 153.5t153.5 52.5q60 0 100 -16.5t68 -51.5q15 -19 24 -43t9 -45q0 -11 -4.5 -15t-17.5 -4h-32q-13 0 -17 3t-6 14z" />
    <glyph glyph-name="yen" unicode="&#xa5;" horiz-adv-x="570" 
d="M326 148v-128q0 -12 -4.5 -16t-16.5 -4h-38q-12 0 -16.5 4t-4.5 16v128h-138q-11 0 -14 4t-3 16v20q0 12 3 16t14 4h138v60h-138q-11 0 -14 4t-3 16v20q0 12 3 16t14 4h105l-180 322q-3 6 -3 10q0 12 18 12h44q12 0 17 -3t10 -14l170 -312l167 312q5 11 10 14t17 3h40
q18 0 18 -12q0 -4 -3 -10l-180 -322h106q11 0 14 -4t3 -16v-20q0 -12 -3 -16t-14 -4h-138v-60h138q11 0 14 -4t3 -16v-20q0 -12 -3 -16t-14 -4h-138z" />
    <glyph glyph-name="Euro" unicode="&#x20ac;" horiz-adv-x="570" 
d="M313 686q58 0 100.5 -16t68.5 -45q24 -26 36.5 -57t12.5 -72q0 -11 -4.5 -15t-17.5 -4h-37q-13 0 -17.5 3t-5.5 14q-9 123 -139 123q-75 0 -110 -44t-40 -140h192q11 0 14 -4t3 -16v-20q0 -12 -3 -16t-14 -4h-193v-80h193q11 0 14 -4t3 -16v-20q0 -12 -3 -16t-14 -4h-192
q5 -94 40.5 -136.5t109.5 -42.5q130 0 141 125q1 11 5.5 14t17.5 3h35q13 0 17.5 -4t4.5 -15q0 -39 -14 -73t-37 -57q-32 -31 -73.5 -47t-100.5 -16q-76 0 -128.5 34t-78.5 100q-9 22 -13 48.5t-6 66.5h-43q-11 0 -14 4t-3 16v20q0 12 3 16t14 4h43v80h-43q-11 0 -14 4
t-3 16v20q0 12 3 16t14 4h44q2 38 6.5 63.5t12.5 48.5q24 70 79.5 105.5t133.5 35.5z" />
    <glyph glyph-name="uni20BA" unicode="&#x20ba;" horiz-adv-x="570" 
d="M183 672q12 0 16.5 -4t4.5 -16v-154l178 75q2 1 5 2t6 1q8 0 13 -11l10 -21q3 -6 3 -11q0 -10 -10 -14l-205 -86v-84l180 76q2 1 5 2t6 1q8 0 13 -11l10 -21q3 -6 3 -11q0 -10 -10 -14l-207 -87v-215h61q91 0 132.5 47.5t41.5 143.5q0 12 4.5 16t16.5 4h34q12 0 16.5 -4
t4.5 -16q0 -125 -63.5 -192.5t-185.5 -67.5h-121q-12 0 -16.5 4t-4.5 16v230l-49 -20q-2 -1 -5 -2t-6 -1q-8 0 -13 11l-10 21q-3 6 -3 11q0 10 10 14l76 32v83l-51 -21q-2 -1 -5 -2t-6 -1q-8 0 -13 11l-10 21q-3 6 -3 11q0 10 10 14l78 32v188q0 12 4.5 16t16.5 4h38z" />
    <glyph glyph-name="uni20B9" unicode="&#x20b9;" horiz-adv-x="570" 
d="M444 435q-15 -170 -227 -170h-18l258 -236q13 -12 13 -18q0 -11 -14 -11h-57q-11 0 -18.5 2.5t-18.5 13.5l-259 233q-12 11 -16.5 18.5t-4.5 17.5v28q0 12 4.5 16t16.5 4h113q75 0 109 24t39 78h-261q-12 0 -16.5 4t-4.5 16v28q0 12 4.5 16t16.5 4h260q-5 54 -40 77.5
t-107 23.5h-113q-12 0 -16.5 4t-4.5 16v28q0 12 4.5 16t16.5 4h401q12 0 16.5 -4t4.5 -16v-28q0 -12 -4.5 -16t-16.5 -4h-102q36 -38 42 -101h60q12 0 16.5 -4t4.5 -16v-28q0 -12 -4.5 -16t-16.5 -4h-60z" />
    <glyph glyph-name="currency" unicode="&#xa4;" horiz-adv-x="570" 
d="M56 336q0 41 12.5 78t35.5 66l-54 59q-7 7 -7 13q0 5 9 14l23 24q8 8 13 8t13 -8l57 -62q57 37 127 37q71 0 127 -37l57 62q8 8 13 8t13 -8l23 -24q9 -9 9 -14q0 -6 -7 -13l-54 -59q48 -63 48 -144t-48 -143l54 -58q7 -7 7 -13q0 -5 -9 -14l-23 -24q-8 -8 -13 -8t-13 8
l-56 60q-56 -37 -128 -37q-73 0 -128 37l-56 -60q-8 -8 -13 -8t-13 8l-23 24q-9 9 -9 14q0 6 7 13l53 57q-47 61 -47 144zM127 335q0 -35 12 -65t33 -52t49.5 -34t62.5 -12t63.5 12t50.5 34t33 52t12 65q0 36 -12 66.5t-33 52t-50.5 34t-63.5 12.5q-33 0 -62 -12.5
t-50 -34.5t-33 -52.5t-12 -65.5z" />
    <glyph glyph-name="asciicircum" unicode="^" horiz-adv-x="570" 
d="M284 506l-145 -285q-5 -10 -9 -14t-12 -4h-44q-13 0 -13 9q0 2 4 10l183 350q5 10 17 10h40q12 0 17 -10l183 -350q4 -7 4 -10q0 -9 -13 -9h-44q-8 0 -12 4t-9 14z" />
    <glyph glyph-name="plus" unicode="+" horiz-adv-x="570" 
d="M252 369v183q0 11 4 14t16 3h27q12 0 16 -3t4 -14v-183h158q11 0 14 -4t3 -16v-25q0 -12 -3 -16t-14 -4h-158v-184q0 -11 -4 -14t-16 -3h-27q-12 0 -16 3t-4 14v184h-159q-11 0 -14 4t-3 16v25q0 12 3 16t14 4h159z" />
    <glyph glyph-name="minus" unicode="&#x2212;" horiz-adv-x="570" 
d="M477 369q11 0 14 -4t3 -16v-25q0 -12 -3 -16t-14 -4h-384q-11 0 -14 4t-3 16v25q0 12 3 16t14 4h384z" />
    <glyph glyph-name="plusminus" unicode="&#xb1;" horiz-adv-x="570" 
d="M252 369v183q0 11 4 14t16 3h27q12 0 16 -3t4 -14v-183h158q11 0 14 -4t3 -16v-25q0 -12 -3 -16t-14 -4h-158v-184q0 -11 -4 -14t-16 -3h-27q-12 0 -16 3t-4 14v184h-159q-11 0 -14 4t-3 16v25q0 12 3 16t14 4h159zM477 66q11 0 14 -4t3 -16v-25q0 -12 -3 -16t-14 -4
h-384q-11 0 -14 4t-3 16v25q0 12 3 16t14 4h384z" />
    <glyph glyph-name="equal" unicode="=" horiz-adv-x="570" 
d="M477 254q11 0 14 -4t3 -16v-25q0 -12 -3 -16t-14 -4h-384q-11 0 -14 4t-3 16v25q0 12 3 16t14 4h384zM477 483q11 0 14 -4t3 -16v-25q0 -12 -3 -16t-14 -4h-384q-11 0 -14 4t-3 16v25q0 12 3 16t14 4h384z" />
    <glyph glyph-name="notequal" unicode="&#x2260;" horiz-adv-x="570" 
d="M316 483l35 83q6 14 9.5 16.5t15.5 2.5h26q15 0 15 -9q0 -2 -1 -5t-2 -5l-35 -83h98q11 0 14 -4t3 -16v-25q0 -12 -3 -16t-14 -4h-126l-70 -165h196q11 0 14 -4t3 -16v-25q0 -12 -3 -16t-14 -4h-223l-35 -82q-6 -14 -9.5 -16.5t-15.5 -2.5h-26q-15 0 -15 9q0 2 1 5t2 5
l35 82h-98q-11 0 -14 4t-3 16v25q0 12 3 16t14 4h125l70 165h-195q-11 0 -14 4t-3 16v25q0 12 3 16t14 4h223z" />
    <glyph glyph-name="divide" unicode="&#xf7;" horiz-adv-x="570" 
d="M331 499q0 -20 -12.5 -33t-33.5 -13q-20 0 -33 13t-13 33v16q0 21 12.5 33.5t33.5 12.5t33.5 -12.5t12.5 -33.5v-16zM331 158q0 -20 -12.5 -33t-33.5 -13q-20 0 -33 13t-13 33v16q0 21 12.5 33.5t33.5 12.5t33.5 -12.5t12.5 -33.5v-16zM477 369q11 0 14 -4t3 -16v-25
q0 -12 -3 -16t-14 -4h-384q-11 0 -14 4t-3 16v25q0 12 3 16t14 4h384z" />
    <glyph glyph-name="less" unicode="&#x3c;" horiz-adv-x="570" 
d="M90 296q-10 5 -12 8.5t-2 13.5v36q0 10 2 13.5t12 8.5l384 171q6 3 10 3q10 0 10 -14v-37q0 -12 -3 -15.5t-17 -9.5l-319 -138l319 -138q14 -6 17 -9.5t3 -15.5v-37q0 -14 -10 -14q-4 0 -10 3z" />
    <glyph glyph-name="greater" unicode="&#x3e;" horiz-adv-x="570" 
d="M480 376q10 -5 12 -8.5t2 -13.5v-36q0 -10 -2 -13.5t-12 -8.5l-384 -171q-5 -3 -10 -3q-10 0 -10 14v37q0 12 3 15.5t17 9.5l318 138l-318 138q-14 6 -17 9.5t-3 15.5v37q0 14 10 14q5 0 10 -3z" />
    <glyph glyph-name="lessequal" unicode="&#x2264;" horiz-adv-x="570" 
d="M477 66q11 0 14 -4t3 -16v-25q0 -12 -3 -16t-14 -4h-384q-11 0 -14 4t-3 16v25q0 12 3 16t14 4h384zM90 296q-10 5 -12 8.5t-2 13.5v36q0 10 2 13.5t12 8.5l384 171q6 3 10 3q10 0 10 -14v-37q0 -12 -3 -15.5t-17 -9.5l-319 -138l319 -138q14 -6 17 -9.5t3 -15.5v-37
q0 -14 -10 -14q-4 0 -10 3z" />
    <glyph glyph-name="greaterequal" unicode="&#x2265;" horiz-adv-x="570" 
d="M477 66q11 0 14 -4t3 -16v-25q0 -12 -3 -16t-14 -4h-384q-11 0 -14 4t-3 16v25q0 12 3 16t14 4h384zM480 376q10 -5 12 -8.5t2 -13.5v-36q0 -10 -2 -13.5t-12 -8.5l-384 -171q-5 -3 -10 -3q-10 0 -10 14v37q0 12 3 15.5t17 9.5l318 138l-318 138q-14 6 -17 9.5t-3 15.5
v37q0 14 10 14q5 0 10 -3z" />
    <glyph glyph-name="asciitilde" unicode="~" horiz-adv-x="570" 
d="M234 321q-26 23 -39.5 31t-26.5 8q-37 0 -37 -63v-62q0 -11 -4 -14t-16 -3h-25q-12 0 -16 3t-4 14v62q0 66 24.5 97t77.5 31q24 0 48 -11.5t54 -37.5l66 -58q26 -23 39.5 -31t26.5 -8q37 0 37 63v62q0 11 4 14t16 3h25q12 0 16 -3t4 -14v-62q0 -66 -24.5 -97t-77.5 -31
q-24 0 -48 11.5t-54 37.5z" />
    <glyph glyph-name="approxequal" unicode="&#x2248;" horiz-adv-x="570" 
d="M234 224q-26 23 -39.5 31t-26.5 8q-37 0 -37 -63v-62q0 -11 -4 -14t-16 -3h-25q-12 0 -16 3t-4 14v62q0 66 24.5 97t77.5 31q24 0 48 -11.5t54 -37.5l66 -58q26 -23 39.5 -31t26.5 -8q37 0 37 63v62q0 11 4 14t16 3h25q12 0 16 -3t4 -14v-62q0 -66 -24.5 -97t-77.5 -31
q-24 0 -48 11.5t-54 37.5zM234 476q-26 23 -39.5 31t-26.5 8q-37 0 -37 -63v-62q0 -11 -4 -14t-16 -3h-25q-12 0 -16 3t-4 14v62q0 66 24.5 97t77.5 31q24 0 48 -11.5t54 -37.5l66 -58q26 -23 39.5 -31t26.5 -8q37 0 37 63v62q0 11 4 14t16 3h25q12 0 16 -3t4 -14v-62
q0 -66 -24.5 -97t-77.5 -31q-24 0 -48 11.5t-54 37.5z" />
    <glyph glyph-name="multiply" unicode="&#xd7;" horiz-adv-x="570" 
d="M242 333l-128 143q-7 7 -7 13q0 5 9 14l18 17q8 8 14 8q5 0 12 -7l125 -140l126 140q7 7 12 7q6 0 14 -8l18 -17q9 -9 9 -14q0 -6 -7 -13l-129 -143l129 -142q7 -7 7 -13q0 -5 -9 -14l-18 -17q-8 -8 -14 -8q-5 0 -12 7l-126 139l-125 -139q-7 -7 -12 -7q-6 0 -14 8
l-18 17q-9 9 -9 14q0 6 7 13z" />
    <glyph glyph-name="underscore" unicode="_" horiz-adv-x="500" 
d="M483 -73q11 0 14 -4t3 -16v-24q0 -12 -3 -16t-14 -4h-466q-11 0 -14 4t-3 16v24q0 12 3 16t14 4h466z" />
    <glyph glyph-name="section" unicode="&#xa7;" horiz-adv-x="489" 
d="M61 354q0 38 18.5 68t51.5 47q-68 33 -68 102v5q0 70 49.5 110t136.5 40q102 0 151 -50q36 -36 36 -85q0 -11 -4.5 -15t-17.5 -4h-29q-13 0 -17 3t-6 14q-12 75 -120 75q-50 0 -77 -22t-27 -62q0 -15 4.5 -25.5t15.5 -19t30 -15t48 -12.5l81 -19q123 -29 123 -126v-5
q0 -34 -19.5 -62.5t-52.5 -44.5q72 -35 72 -110v-5q0 -150 -191 -150q-109 0 -161 49q-39 37 -39 88q0 11 4.5 15t17.5 4h29q12 0 16.5 -3t6.5 -14q9 -40 38 -58t86 -18q114 0 114 81q0 33 -20 51.5t-71 29.5l-81 19q-128 29 -128 119v5zM136 363q0 -29 15.5 -45.5
t50.5 -24.5l53 -12q17 -4 28 -4q35 0 56.5 23t21.5 58q0 29 -16 45.5t-51 24.5l-53 12q-16 4 -29 4q-34 0 -55 -22.5t-21 -58.5z" />
    <glyph glyph-name="degree" unicode="&#xb0;" horiz-adv-x="352" 
d="M318 572q0 -29 -11 -55t-30.5 -45.5t-45.5 -30.5t-55 -11t-55 11t-45.5 30.5t-30.5 45.5t-11 55t11 55t30.5 45.5t45.5 30.5t55 11t55 -11t45.5 -30.5t30.5 -45.5t11 -55zM92 572q0 -18 6.5 -33.5t18 -27t27 -18.5t32.5 -7t32.5 7t27 18.5t18 27t6.5 33.5t-6.5 33.5
t-18 27t-27 18.5t-32.5 7t-32.5 -7t-27 -18.5t-18 -27t-6.5 -33.5z" />
    <glyph glyph-name="mu" unicode="&#xb5;" horiz-adv-x="531" 
d="M243 -14q-59 0 -95 34v-171q0 -12 -4.5 -16t-16.5 -4h-37q-12 0 -16.5 4t-4.5 16v655q0 12 4.5 16t16.5 4h37q12 0 16.5 -4t4.5 -16v-325q0 -64 26 -93.5t83 -29.5t91.5 38.5t34.5 102.5v307q0 12 4.5 16t16.5 4h37q12 0 16.5 -4t4.5 -16v-484q0 -12 -4.5 -16t-16.5 -4
h-35q-12 0 -16.5 4t-4.5 16v37q-51 -71 -142 -71z" />
    <glyph glyph-name="paragraph" unicode="&#xb6;" horiz-adv-x="669" 
d="M533 644v-795q0 -12 -4.5 -16t-16.5 -4h-32q-12 0 -16.5 4t-4.5 16v795h-131v-795q0 -12 -4.5 -16t-16.5 -4h-32q-12 0 -16.5 4t-4.5 16v455q-195 10 -195 192v18q0 103 52 150.5t166 47.5h304q12 0 16.5 -4t4.5 -16v-28q0 -12 -4.5 -16t-16.5 -4h-48z" />
    <glyph glyph-name="numbersign" unicode="#" horiz-adv-x="570" 
d="M215 478h141v124q0 11 4 14t16 3h25q12 0 16 -3t4 -14v-124h81q11 0 14 -4t3 -16v-24q0 -12 -3 -16t-14 -4h-81v-157h81q11 0 14 -4t3 -16v-24q0 -12 -3 -16t-14 -4h-81v-124q0 -11 -4 -14t-16 -3h-25q-12 0 -16 3t-4 14v124h-141v-124q0 -11 -4 -14t-16 -3h-25
q-12 0 -16 3t-4 14v124h-81q-11 0 -14 4t-3 16v24q0 12 3 16t14 4h81v157h-81q-11 0 -14 4t-3 16v24q0 12 3 16t14 4h81v124q0 11 4 14t16 3h25q12 0 16 -3t4 -14v-124zM215 257h141v157h-141v-157z" />
    <glyph glyph-name="bar" unicode="|" horiz-adv-x="249" 
d="M158 -154q0 -11 -4 -14t-16 -3h-27q-12 0 -16 3t-4 14v849q0 11 4 14t16 3h27q12 0 16 -3t4 -14v-849z" />
    <glyph glyph-name="brokenbar" unicode="&#xa6;" horiz-adv-x="249" 
d="M91 695q0 11 4 14t16 3h27q12 0 16 -3t4 -14v-261q0 -11 -4 -14t-16 -3h-27q-12 0 -16 3t-4 14v261zM91 107q0 11 4 14t16 3h27q12 0 16 -3t4 -14v-261q0 -11 -4 -14t-16 -3h-27q-12 0 -16 3t-4 14v261z" />
    <glyph glyph-name="dagger" unicode="&#x2020;" horiz-adv-x="442" 
d="M261 524h130q11 0 14 -4t3 -16v-24q0 -12 -3 -16t-14 -4h-130v-440q0 -12 -4.5 -16t-16.5 -4h-37q-12 0 -16.5 4t-4.5 16v440h-131q-11 0 -14 4t-3 16v24q0 12 3 16t14 4h131v168q0 12 4.5 16t16.5 4h37q12 0 16.5 -4t4.5 -16v-168z" />
    <glyph glyph-name="daggerdbl" unicode="&#x2021;" horiz-adv-x="452" 
d="M266 524h130q11 0 14 -4t3 -16v-24q0 -12 -3 -16t-14 -4h-130v-208h130q11 0 14 -4t3 -16v-24q0 -12 -3 -16t-14 -4h-130v-168q0 -12 -4.5 -16t-16.5 -4h-37q-12 0 -16.5 4t-4.5 16v168h-131q-11 0 -14 4t-3 16v24q0 12 3 16t14 4h131v208h-131q-11 0 -14 4t-3 16v24
q0 12 3 16t14 4h131v168q0 12 4.5 16t16.5 4h37q12 0 16.5 -4t4.5 -16v-168z" />
    <glyph glyph-name="logicalnot" unicode="&#xac;" horiz-adv-x="570" 
d="M477 408q11 0 14 -4t3 -16v-220q0 -11 -4 -14t-16 -3h-27q-12 0 -16 3t-4 14v175h-334q-11 0 -14 4t-3 16v25q0 12 3 16t14 4h384z" />
    <glyph glyph-name="ampersand" unicode="&#x26;" horiz-adv-x="650" 
d="M462 388q0 12 3 16t14 4h115q11 0 14 -4t3 -16v-30q0 -12 -3 -16t-14 -4h-57v-123q0 -229 -235 -229q-113 0 -178 53t-65 145v15q0 131 124 173q-51 25 -75 65t-24 102q0 43 15 78t42.5 60t66.5 38t87 13q43 0 79.5 -10.5t62.5 -29.5t40.5 -45.5t14.5 -58.5
q0 -11 -4.5 -14.5t-18.5 -3.5h-32q-11 0 -15.5 3t-6.5 11q-7 40 -39 62.5t-81 22.5q-63 0 -98.5 -34.5t-35.5 -95.5q0 -127 137 -127h28q16 0 16 -20v-30q0 -20 -16 -20h-34q-71 0 -112 -36t-41 -99v-19q0 -60 44.5 -95.5t119.5 -35.5q85 0 122 42t37 137v156z" />
    <glyph glyph-name="asterisk" unicode="*" horiz-adv-x="358" 
d="M179 498l-54 -97q-7 -13 -14 -13t-19 9l-22 16q-12 9 -12 16t10 17l75 79l-101 24q-11 2 -14.5 5t-3.5 9q0 2 2 10l10 31q7 19 16 19q5 0 11 -3l93 -52l-10 88q-2 14 -3 25t-1 15q0 10 4.5 13t17.5 3h29q13 0 17.5 -3t4.5 -13q0 -4 -1 -15t-3 -25l-10 -88l93 52q6 3 11 3
q9 0 16 -19l10 -31q2 -8 2 -10q0 -6 -3.5 -9t-14.5 -5l-101 -24l75 -79q6 -6 8 -9.5t2 -7.5q0 -7 -12 -16l-22 -16q-12 -9 -19 -9t-14 13z" />
    <glyph glyph-name="hyphen" unicode="-" horiz-adv-x="376" 
d="M317 311q11 0 14 -4t3 -16v-43q0 -12 -3 -16t-14 -4h-258q-11 0 -14 4t-3 16v43q0 12 3 16t14 4h258z" />
    <glyph glyph-name="endash" unicode="&#x2013;" horiz-adv-x="500" 
d="M483 308q11 0 14 -4t3 -16v-34q0 -12 -3 -16t-14 -4h-466q-11 0 -14 4t-3 16v34q0 12 3 16t14 4h466z" />
    <glyph glyph-name="emdash" unicode="&#x2014;" horiz-adv-x="1000" 
d="M983 308q11 0 14 -4t3 -16v-34q0 -12 -3 -16t-14 -4h-966q-11 0 -14 4t-3 16v34q0 12 3 16t14 4h966z" />
    <glyph glyph-name="parenleft" unicode="(" horiz-adv-x="299" 
d="M58 428q0 69 9.5 117.5t29.5 79.5q17 28 43.5 48t59.5 31q11 4 23 6t20 2q11 0 14 -4t3 -16v-33q0 -10 -3 -14t-14 -6q-41 -7 -66 -35q-41 -44 -41 -171v-325q0 -127 41 -171q25 -28 66 -35q11 -2 14 -6t3 -14v-33q0 -12 -3 -16t-14 -4q-8 0 -20 2t-23 6q-33 11 -59.5 31
t-43.5 48q-39 61 -39 197v315z" />
    <glyph glyph-name="parenright" unicode=")" horiz-adv-x="299" 
d="M241 113q0 -136 -39 -197q-17 -28 -43.5 -48t-59.5 -31q-11 -4 -23 -6t-20 -2q-11 0 -14 4t-3 16v33q0 10 3 14t14 6q41 7 66 35q41 44 41 171v325q0 127 -41 171q-25 28 -66 35q-11 2 -14 6t-3 14v33q0 12 3 16t14 4q8 0 20 -2t23 -6q33 -11 59.5 -31t43.5 -48
q20 -31 29.5 -79.5t9.5 -117.5v-315z" />
    <glyph glyph-name="slash" unicode="/" horiz-adv-x="316" 
d="M77 20q-5 -14 -9 -17t-16 -3h-31q-14 0 -14 10q0 4 2 10l230 672q5 14 9 17t16 3h31q14 0 14 -10q0 -4 -2 -10z" />
    <glyph glyph-name="backslash" unicode="\" horiz-adv-x="316" 
d="M9 692q-2 6 -2 10q0 10 14 10h31q12 0 16 -3t9 -17l230 -672q2 -6 2 -10q0 -10 -14 -10h-31q-12 0 -16 3t-9 17z" />
    <glyph glyph-name="bracketleft" unicode="[" horiz-adv-x="310" 
d="M76 692q0 12 4.5 16t16.5 4h157q11 0 14 -4t3 -16v-22q0 -12 -3 -16t-14 -4h-102v-759h102q11 0 14 -4t3 -16v-22q0 -12 -3 -16t-14 -4h-157q-12 0 -16.5 4t-4.5 16v843z" />
    <glyph glyph-name="bracketright" unicode="]" horiz-adv-x="310" 
d="M234 -151q0 -12 -4.5 -16t-16.5 -4h-157q-11 0 -14 4t-3 16v22q0 12 3 16t14 4h102v759h-102q-11 0 -14 4t-3 16v22q0 12 3 16t14 4h157q12 0 16.5 -4t4.5 -16v-843z" />
    <glyph glyph-name="braceleft" unicode="{" horiz-adv-x="345" 
d="M127 152q0 37 -20.5 58.5t-55.5 21.5q-11 0 -14 4t-3 16v35q0 12 3 16t14 4q35 0 55.5 21.5t20.5 58.5v181q0 74 35 109t109 35h23q11 0 14 -4t3 -16v-25q0 -12 -3 -16t-14 -4h-17q-42 0 -57 -19.5t-15 -71.5v-167q0 -45 -15.5 -73t-50.5 -45q35 -18 50.5 -45.5
t15.5 -72.5v-168q0 -26 3.5 -43.5t11.5 -28t22 -15t35 -4.5h17q11 0 14 -4t3 -16v-25q0 -12 -3 -16t-14 -4h-23q-74 0 -109 35t-35 109v179z" />
    <glyph glyph-name="braceright" unicode="}" horiz-adv-x="345" 
d="M218 387q0 -37 20.5 -58.5t55.5 -21.5q11 0 14 -4t3 -16v-35q0 -12 -3 -16t-14 -4q-35 0 -55.5 -21.5t-20.5 -58.5v-179q0 -74 -35 -109t-109 -35h-23q-11 0 -14 4t-3 16v25q0 12 3 16t14 4h17q21 0 35 4.5t22 15t11.5 28t3.5 43.5v168q0 45 15.5 72.5t50.5 45.5
q-35 17 -50.5 45t-15.5 73v167q0 52 -15 71.5t-57 19.5h-17q-11 0 -14 4t-3 16v25q0 12 3 16t14 4h23q74 0 109 -35t35 -109v-181z" />
    <glyph glyph-name="bullet" unicode="&#x2022;" horiz-adv-x="466" 
d="M99 262q0 28 10.5 52.5t28.5 42.5t42.5 28.5t52.5 10.5t52.5 -10.5t42.5 -28.5t28.5 -42.5t10.5 -52.5t-10.5 -52.5t-28.5 -42.5t-42.5 -28.5t-52.5 -10.5t-52.5 10.5t-42.5 28.5t-28.5 42.5t-10.5 52.5z" />
    <glyph glyph-name="guilsinglleft" unicode="&#x2039;" horiz-adv-x="275" 
d="M100 286l116 -109q14 -13 17 -18t3 -17v-45q0 -14 -10 -14q-5 0 -16 11l-157 146q-9 10 -11.5 14.5t-2.5 13.5v36q0 10 2.5 14.5t11.5 13.5l157 146q11 11 16 11q10 0 10 -14v-45q0 -12 -3 -17t-17 -18z" />
    <glyph glyph-name="guilsinglright" unicode="&#x203a;" horiz-adv-x="275" 
d="M175 286l-116 109q-14 13 -17 18t-3 17v45q0 14 10 14q5 0 16 -11l157 -146q10 -9 12 -13.5t2 -14.5v-36q0 -9 -2 -13.5t-12 -14.5l-157 -146q-11 -11 -16 -11q-10 0 -10 14v45q0 12 3 17t17 18z" />
    <glyph glyph-name="guillemotleft" unicode="&#xab;" horiz-adv-x="480" 
d="M100 286l116 -109q14 -13 17 -18t3 -17v-45q0 -14 -10 -14q-5 0 -16 11l-157 146q-9 10 -11.5 14.5t-2.5 13.5v36q0 10 2.5 14.5t11.5 13.5l157 146q11 11 16 11q10 0 10 -14v-45q0 -12 -3 -17t-17 -18zM305 286l116 -109q14 -13 17 -18t3 -17v-45q0 -14 -10 -14
q-5 0 -16 11l-157 146q-9 10 -11.5 14.5t-2.5 13.5v36q0 10 2.5 14.5t11.5 13.5l157 146q11 11 16 11q10 0 10 -14v-45q0 -12 -3 -17t-17 -18z" />
    <glyph glyph-name="guillemotright" unicode="&#xbb;" horiz-adv-x="480" 
d="M175 286l-116 109q-14 13 -17 18t-3 17v45q0 14 10 14q5 0 16 -11l157 -146q10 -9 12 -13.5t2 -14.5v-36q0 -9 -2 -13.5t-12 -14.5l-157 -146q-11 -11 -16 -11q-10 0 -10 14v45q0 12 3 17t17 18zM380 286l-116 109q-14 13 -17 18t-3 17v45q0 14 10 14q5 0 16 -11
l157 -146q10 -9 12 -13.5t2 -14.5v-36q0 -9 -2 -13.5t-12 -14.5l-157 -146q-11 -11 -16 -11q-10 0 -10 14v45q0 12 3 17t17 18z" />
    <glyph glyph-name="at" unicode="@" horiz-adv-x="677" 
d="M434 331q24 0 54 -2t54 -5v16q0 133 -153 133h-50q-203 0 -203 -240v-93q0 -124 58.5 -182.5t181.5 -58.5h199q11 0 14 -4t3 -16v-30q0 -12 -3 -16t-14 -4h-211q-151 0 -228.5 79t-77.5 232v92q0 148 72 228.5t204 80.5h60q112 0 168.5 -54t56.5 -160v-136
q0 -91 -42 -133.5t-130 -42.5h-28q-97 0 -143 37t-46 115q0 85 49 124.5t155 39.5zM440 264q-37 0 -62 -4.5t-40 -16t-21.5 -30t-6.5 -45.5q0 -47 26 -68t83 -21h19q55 0 79.5 28.5t24.5 92.5v55q-32 5 -59 7t-43 2z" />
    <glyph glyph-name="periodcentered" unicode="&#xb7;" horiz-adv-x="244" 
d="M122 338q29 0 45.5 -15.5t16.5 -41.5v-20q0 -26 -16.5 -41.5t-45.5 -15.5t-45.5 15.5t-16.5 41.5v20q0 26 16.5 41.5t45.5 15.5z" />
    <glyph glyph-name="hyphen.case" horiz-adv-x="376" 
d="M317 399q11 0 14 -4t3 -16v-43q0 -12 -3 -16t-14 -4h-258q-11 0 -14 4t-3 16v43q0 12 3 16t14 4h258z" />
    <glyph glyph-name="endash.case" horiz-adv-x="500" 
d="M483 393q11 0 14 -4t3 -16v-34q0 -12 -3 -16t-14 -4h-466q-11 0 -14 4t-3 16v34q0 12 3 16t14 4h466z" />
    <glyph glyph-name="emdash.case" horiz-adv-x="1000" 
d="M983 393q11 0 14 -4t3 -16v-34q0 -12 -3 -16t-14 -4h-966q-11 0 -14 4t-3 16v34q0 12 3 16t14 4h966z" />
    <glyph glyph-name="parenleft.case" horiz-adv-x="299" 
d="M58 513q0 69 9.5 117.5t29.5 79.5q17 28 43.5 48t59.5 31q11 4 23 6t20 2q11 0 14 -4t3 -16v-33q0 -10 -3 -14t-14 -6q-41 -7 -66 -35q-41 -44 -41 -171v-325q0 -127 41 -171q25 -28 66 -35q11 -2 14 -6t3 -14v-33q0 -12 -3 -16t-14 -4q-8 0 -20 2t-23 6q-33 11 -59.5 31
t-43.5 48q-39 61 -39 197v315z" />
    <glyph glyph-name="parenright.case" horiz-adv-x="299" 
d="M241 198q0 -136 -39 -197q-17 -28 -43.5 -48t-59.5 -31q-11 -4 -23 -6t-20 -2q-11 0 -14 4t-3 16v33q0 10 3 14t14 6q41 7 66 35q41 44 41 171v325q0 127 -41 171q-25 28 -66 35q-11 2 -14 6t-3 14v33q0 12 3 16t14 4q8 0 20 -2t23 -6q33 -11 59.5 -31t43.5 -48
q20 -31 29.5 -79.5t9.5 -117.5v-315z" />
    <glyph glyph-name="slash.case" horiz-adv-x="316" 
d="M77 20q-5 -14 -9 -17t-16 -3h-31q-14 0 -14 10q0 4 2 10l230 672q5 14 9 17t16 3h31q14 0 14 -10q0 -4 -2 -10z" />
    <glyph glyph-name="backslash.case" horiz-adv-x="316" 
d="M9 692q-2 6 -2 10q0 10 14 10h31q12 0 16 -3t9 -17l230 -672q2 -6 2 -10q0 -10 -14 -10h-31q-12 0 -16 3t-9 17z" />
    <glyph glyph-name="bracketleft.case" horiz-adv-x="310" 
d="M76 777q0 12 4.5 16t16.5 4h157q11 0 14 -4t3 -16v-22q0 -12 -3 -16t-14 -4h-102v-759h102q11 0 14 -4t3 -16v-22q0 -12 -3 -16t-14 -4h-157q-12 0 -16.5 4t-4.5 16v843z" />
    <glyph glyph-name="bracketright.case" horiz-adv-x="310" 
d="M234 -66q0 -12 -4.5 -16t-16.5 -4h-157q-11 0 -14 4t-3 16v22q0 12 3 16t14 4h102v759h-102q-11 0 -14 4t-3 16v22q0 12 3 16t14 4h157q12 0 16.5 -4t4.5 -16v-843z" />
    <glyph glyph-name="braceleft.case" horiz-adv-x="345" 
d="M127 237q0 37 -20.5 58.5t-55.5 21.5q-11 0 -14 4t-3 16v35q0 12 3 16t14 4q35 0 55.5 21.5t20.5 58.5v181q0 74 35 109t109 35h23q11 0 14 -4t3 -16v-25q0 -12 -3 -16t-14 -4h-17q-42 0 -57 -19.5t-15 -71.5v-167q0 -45 -15.5 -73t-50.5 -45q35 -18 50.5 -45.5
t15.5 -72.5v-168q0 -26 3.5 -43.5t11.5 -28t22 -15t35 -4.5h17q11 0 14 -4t3 -16v-25q0 -12 -3 -16t-14 -4h-23q-74 0 -109 35t-35 109v179z" />
    <glyph glyph-name="braceright.case" horiz-adv-x="345" 
d="M218 472q0 -37 20.5 -58.5t55.5 -21.5q11 0 14 -4t3 -16v-35q0 -12 -3 -16t-14 -4q-35 0 -55.5 -21.5t-20.5 -58.5v-179q0 -74 -35 -109t-109 -35h-23q-11 0 -14 4t-3 16v25q0 12 3 16t14 4h17q21 0 35 4.5t22 15t11.5 28t3.5 43.5v168q0 45 15.5 72.5t50.5 45.5
q-35 17 -50.5 45t-15.5 73v167q0 52 -15 71.5t-57 19.5h-17q-11 0 -14 4t-3 16v25q0 12 3 16t14 4h23q74 0 109 -35t35 -109v-181z" />
    <glyph glyph-name="bullet.case" horiz-adv-x="466" 
d="M99 350q0 28 10.5 52.5t28.5 42.5t42.5 28.5t52.5 10.5t52.5 -10.5t42.5 -28.5t28.5 -42.5t10.5 -52.5t-10.5 -52.5t-28.5 -42.5t-42.5 -28.5t-52.5 -10.5t-52.5 10.5t-42.5 28.5t-28.5 42.5t-10.5 52.5z" />
    <glyph glyph-name="guilsinglleft.case" horiz-adv-x="275" 
d="M100 353l116 -109q14 -13 17 -18t3 -17v-45q0 -14 -10 -14q-5 0 -16 11l-157 146q-9 10 -11.5 14.5t-2.5 13.5v36q0 10 2.5 14.5t11.5 13.5l157 146q11 11 16 11q10 0 10 -14v-45q0 -12 -3 -17t-17 -18z" />
    <glyph glyph-name="guilsinglright.case" horiz-adv-x="275" 
d="M175 353l-116 109q-14 13 -17 18t-3 17v45q0 14 10 14q5 0 16 -11l157 -146q10 -9 12 -13.5t2 -14.5v-36q0 -9 -2 -13.5t-12 -14.5l-157 -146q-11 -11 -16 -11q-10 0 -10 14v45q0 12 3 17t17 18z" />
    <glyph glyph-name="guillemotleft.case" horiz-adv-x="480" 
d="M100 353l116 -109q14 -13 17 -18t3 -17v-45q0 -14 -10 -14q-5 0 -16 11l-157 146q-9 10 -11.5 14.5t-2.5 13.5v36q0 10 2.5 14.5t11.5 13.5l157 146q11 11 16 11q10 0 10 -14v-45q0 -12 -3 -17t-17 -18zM305 353l116 -109q14 -13 17 -18t3 -17v-45q0 -14 -10 -14
q-5 0 -16 11l-157 146q-9 10 -11.5 14.5t-2.5 13.5v36q0 10 2.5 14.5t11.5 13.5l157 146q11 11 16 11q10 0 10 -14v-45q0 -12 -3 -17t-17 -18z" />
    <glyph glyph-name="guillemotright.case" horiz-adv-x="480" 
d="M175 353l-116 109q-14 13 -17 18t-3 17v45q0 14 10 14q5 0 16 -11l157 -146q10 -9 12 -13.5t2 -14.5v-36q0 -9 -2 -13.5t-12 -14.5l-157 -146q-11 -11 -16 -11q-10 0 -10 14v45q0 12 3 17t17 18zM380 353l-116 109q-14 13 -17 18t-3 17v45q0 14 10 14q5 0 16 -11
l157 -146q10 -9 12 -13.5t2 -14.5v-36q0 -9 -2 -13.5t-12 -14.5l-157 -146q-11 -11 -16 -11q-10 0 -10 14v45q0 12 3 17t17 18z" />
    <glyph glyph-name="at.case" horiz-adv-x="677" 
d="M434 502q24 0 54 -2t54 -5v16q0 133 -153 133h-50q-203 0 -203 -240v-93q0 -124 58.5 -182.5t181.5 -58.5h199q11 0 14 -4t3 -16v-30q0 -12 -3 -16t-14 -4h-211q-151 0 -228.5 79t-77.5 232v92q0 148 72 228.5t204 80.5h60q112 0 168.5 -54t56.5 -160v-136
q0 -91 -42 -133.5t-130 -42.5h-28q-97 0 -143 37t-46 115q0 85 49 124.5t155 39.5zM440 435q-37 0 -62 -4.5t-40 -16t-21.5 -30t-6.5 -45.5q0 -47 26 -68t83 -21h19q55 0 79.5 28.5t24.5 92.5v55q-32 5 -59 7t-43 2z" />
    <glyph glyph-name="periodcentered.case" horiz-adv-x="244" 
d="M122 406q29 0 45.5 -15.5t16.5 -41.5v-20q0 -26 -16.5 -41.5t-45.5 -15.5t-45.5 15.5t-16.5 41.5v20q0 26 16.5 41.5t45.5 15.5z" />
    <glyph glyph-name="uni2010" unicode="&#x2010;" horiz-adv-x="376" 
d="M317 311q11 0 14 -4t3 -16v-43q0 -12 -3 -16t-14 -4h-258q-11 0 -14 4t-3 16v43q0 12 3 16t14 4h258z" />
    <glyph glyph-name="figuredash" unicode="&#x2012;" horiz-adv-x="500" 
d="M483 308q11 0 14 -4t3 -16v-34q0 -12 -3 -16t-14 -4h-466q-11 0 -14 4t-3 16v34q0 12 3 16t14 4h466z" />
    <glyph glyph-name="uni2015" unicode="&#x2015;" horiz-adv-x="1000" 
d="M983 308q11 0 14 -4t3 -16v-34q0 -12 -3 -16t-14 -4h-966q-11 0 -14 4t-3 16v34q0 12 3 16t14 4h966z" />
    <glyph glyph-name="uni00AD" unicode="&#xad;" horiz-adv-x="376" 
d="M317 311q11 0 14 -4t3 -16v-43q0 -12 -3 -16t-14 -4h-258q-11 0 -14 4t-3 16v43q0 12 3 16t14 4h258z" />
    <glyph glyph-name="A" unicode="A" horiz-adv-x="602" 
d="M586 21q2 -6 2 -9q0 -12 -16 -12h-45q-13 0 -17 3t-8 14l-59 178h-288l-58 -178q-4 -11 -8 -14t-17 -3h-42q-16 0 -16 12q0 3 2 9l229 669q4 12 9 17t17 5h64q12 0 17 -5.5t9 -16.5zM178 265h242l-120 368z" />
    <glyph glyph-name="B" unicode="B" horiz-adv-x="593" 
d="M97 0q-12 0 -16.5 4t-4.5 16v672q0 12 4.5 16t16.5 4h229q98 0 151.5 -47t53.5 -133v-13q0 -47 -24 -88t-68 -58q44 -13 73 -55t29 -99v-16q0 -56 -15 -94.5t-44.5 -62.5t-73 -35t-99.5 -11h-212zM155 69h157q67 0 105 29t38 98v21q0 57 -32 90.5t-92 33.5h-176v-272z
M155 643v-233h169q63 0 93 25t30 83v14q0 57 -32 84t-100 27h-160z" />
    <glyph glyph-name="C" unicode="C" horiz-adv-x="589" 
d="M463 189q1 11 5.5 14t17.5 3h35q13 0 17.5 -4t4.5 -15q0 -41 -13.5 -77t-37.5 -60q-67 -66 -189 -66q-81 0 -138.5 31.5t-85.5 97.5q-11 29 -16 64.5t-5 91.5v164q0 57 5 93t16 64q27 68 85.5 103t146.5 35q127 0 183 -64q49 -53 49 -136q0 -11 -4.5 -15t-17.5 -4h-37
q-13 0 -17.5 3t-5.5 14q-10 131 -155 131q-88 0 -127 -50t-39 -162v-178q0 -111 39 -161t126 -50q146 0 158 133z" />
    <glyph glyph-name="D" unicode="D" horiz-adv-x="607" 
d="M300 712q82 0 142.5 -35t83.5 -96q23 -63 23 -152v-151q0 -49 -5.5 -84.5t-17.5 -64.5q-25 -62 -82.5 -95.5t-138.5 -33.5h-208q-12 0 -16.5 4t-4.5 16v672q0 12 4.5 16t16.5 4h203zM156 68h142q88 0 128.5 50t40.5 158v160q0 108 -40.5 158t-128.5 50h-142v-576z" />
    <glyph glyph-name="E" unicode="E" horiz-adv-x="550" 
d="M492 20q0 -12 -4.5 -16t-16.5 -4h-374q-12 0 -16.5 4t-4.5 16v672q0 12 4.5 16t16.5 4h370q12 0 16.5 -4t4.5 -16v-28q0 -12 -4.5 -16t-16.5 -4h-311v-244h285q12 0 16.5 -4t4.5 -16v-28q0 -12 -4.5 -16t-16.5 -4h-285v-264h315q12 0 16.5 -4t4.5 -16v-28z" />
    <glyph glyph-name="F" unicode="F" horiz-adv-x="530" 
d="M156 341v-321q0 -12 -4.5 -16t-16.5 -4h-38q-12 0 -16.5 4t-4.5 16v672q0 12 4.5 16t16.5 4h368q12 0 16.5 -4t4.5 -16v-28q0 -12 -4.5 -16t-16.5 -4h-309v-235h283q12 0 16.5 -4t4.5 -16v-28q0 -12 -4.5 -16t-16.5 -4h-283z" />
    <glyph glyph-name="G" unicode="G" horiz-adv-x="610" 
d="M58 428q0 59 5 95t16 64q28 69 87.5 105t149.5 36q60 0 104 -14.5t77 -46.5q11 -11 21 -27.5t17.5 -35.5t12 -38.5t4.5 -37.5q0 -11 -4.5 -15t-17.5 -4h-37q-12 0 -16 3.5t-5 13.5q-7 65 -48 98.5t-115 33.5q-89 0 -129 -50.5t-40 -162.5v-178q0 -112 40 -162.5
t129 -50.5q162 0 162 178v47h-102q-12 0 -16.5 4t-4.5 16v31q0 12 4.5 16t16.5 4h162q21 0 21 -20v-106q0 -114 -64.5 -177t-180.5 -63q-85 0 -142.5 32.5t-85.5 98.5q-11 29 -16 63t-5 86v164z" />
    <glyph glyph-name="H" unicode="H" horiz-adv-x="642" 
d="M566 20q0 -12 -4.5 -16t-16.5 -4h-38q-12 0 -16.5 4t-4.5 16v322h-330v-322q0 -12 -4.5 -16t-16.5 -4h-38q-12 0 -16.5 4t-4.5 16v672q0 12 4.5 16t16.5 4h38q12 0 16.5 -4t4.5 -16v-280h330v280q0 12 4.5 16t16.5 4h38q12 0 16.5 -4t4.5 -16v-672z" />
    <glyph glyph-name="I" unicode="I" horiz-adv-x="232" 
d="M156 20q0 -12 -4.5 -16t-16.5 -4h-38q-12 0 -16.5 4t-4.5 16v672q0 12 4.5 16t16.5 4h38q12 0 16.5 -4t4.5 -16v-672z" />
    <glyph glyph-name="J" unicode="J" horiz-adv-x="529" 
d="M109 174q5 -57 39 -87t92 -30q39 0 65.5 10.5t43 34.5t24 62.5t7.5 94.5v433q0 12 4.5 16t16.5 4h38q12 0 16.5 -4t4.5 -16v-456q0 -129 -52.5 -190.5t-163.5 -61.5q-100 0 -157.5 50t-57.5 138q0 11 4.5 15t17.5 4h35q13 0 17.5 -3t5.5 -14z" />
    <glyph glyph-name="K" unicode="K" horiz-adv-x="583" 
d="M317 428l241 -408q2 -4 2.5 -5.5t0.5 -3.5q0 -11 -18 -11h-54q-11 0 -16 3.5t-13 16.5l-198 341l-107 -128v-213q0 -12 -4.5 -16t-16.5 -4h-37q-12 0 -16.5 4t-4.5 16v672q0 12 4.5 16t16.5 4h37q12 0 16.5 -4t4.5 -16v-351l285 351q11 14 15 17t14 3h55q14 0 14 -11
q0 -4 -4 -9z" />
    <glyph glyph-name="L" unicode="L" horiz-adv-x="498" 
d="M469 20q0 -12 -4.5 -16t-16.5 -4h-351q-12 0 -16.5 4t-4.5 16v672q0 12 4.5 16t16.5 4h38q12 0 16.5 -4t4.5 -16v-624h292q12 0 16.5 -4t4.5 -16v-28z" />
    <glyph glyph-name="M" unicode="M" horiz-adv-x="725" 
d="M341 212q-12 0 -17.5 3.5t-10.5 15.5l-159 342v-553q0 -12 -4.5 -16t-16.5 -4h-36q-12 0 -16.5 4t-4.5 16v672q0 12 4.5 16t16.5 4h55q12 0 17.5 -3.5t10.5 -15.5l182 -396l187 396q5 12 10.5 15.5t17.5 3.5h51q12 0 16.5 -4t4.5 -16v-672q0 -12 -4.5 -16t-16.5 -4h-36
q-12 0 -16.5 4t-4.5 16v553l-163 -342q-5 -12 -10.5 -15.5t-17.5 -3.5h-39z" />
    <glyph glyph-name="N" unicode="N" horiz-adv-x="622" 
d="M154 577v-557q0 -12 -4.5 -16t-16.5 -4h-36q-12 0 -16.5 4t-4.5 16v672q0 12 4.5 16t16.5 4h49q11 0 16.5 -4t11.5 -15l294 -558v557q0 12 4.5 16t16.5 4h36q12 0 16.5 -4t4.5 -16v-672q0 -12 -4.5 -16t-16.5 -4h-49q-11 0 -16.5 4t-11.5 15z" />
    <glyph glyph-name="O" unicode="O" horiz-adv-x="616" 
d="M308 658q-88 0 -128 -50.5t-40 -162.5v-178q0 -112 40 -162.5t128 -50.5t128 50.5t40 162.5v178q0 112 -40 162.5t-128 50.5zM308 728q172 0 228 -136q6 -15 10.5 -30t7 -33t3.5 -40t1 -51v-154q0 -30 -1 -53t-3.5 -41.5t-7 -34t-10.5 -30.5q-56 -141 -228 -141
q-173 0 -228 134q-6 15 -10.5 30.5t-7 33.5t-3.5 40.5t-1 51.5v154q0 30 1 53t3.5 41.5t7 34t10.5 30.5q56 141 228 141z" />
    <glyph glyph-name="P" unicode="P" horiz-adv-x="553" 
d="M154 281v-261q0 -12 -4.5 -16t-16.5 -4h-36q-12 0 -16.5 4t-4.5 16v672q0 12 4.5 16t16.5 4h195q119 0 173.5 -49.5t54.5 -158.5v-20q0 -203 -228 -203h-138zM154 349h141q77 0 109.5 30.5t32.5 104.5v16q0 79 -32 111.5t-110 32.5h-141v-295z" />
    <glyph glyph-name="Q" unicode="Q" horiz-adv-x="636" 
d="M308 728q172 0 228 -136q6 -15 10.5 -30t7 -33t3.5 -40t1 -51v-164q0 -41 -5 -72.5t-16.5 -56.5t-29.5 -44t-44 -35h122q12 0 16.5 -4t4.5 -16v-26q0 -12 -4.5 -16t-16.5 -4h-277q-250 0 -250 274v154q0 30 1 53t3.5 41.5t7 34t10.5 30.5q56 141 228 141zM308 658
q-88 0 -128 -50.5t-40 -162.5v-171q0 -109 40 -158t128 -49t128 49t40 158v171q0 112 -40 162.5t-128 50.5z" />
    <glyph glyph-name="R" unicode="R" horiz-adv-x="590" 
d="M154 301v-281q0 -12 -4.5 -16t-16.5 -4h-36q-12 0 -16.5 4t-4.5 16v672q0 12 4.5 16t16.5 4h200q112 0 170 -44.5t58 -153.5v-19q0 -78 -36 -124t-103 -62l163 -289q3 -6 3 -9q0 -11 -18 -11h-49q-11 0 -16.5 3.5t-12.5 16.5l-154 281h-148zM154 369h146q47 0 75 10
t43 27t19.5 40t4.5 49v15q0 28 -4.5 52.5t-19.5 42.5t-43 28.5t-75 10.5h-146v-275z" />
    <glyph glyph-name="S" unicode="S" horiz-adv-x="550" 
d="M124 155q11 -49 50.5 -74.5t104.5 -25.5q69 0 107 32.5t38 92.5q0 92 -99 127l-129 43q-141 48 -141 178v5q0 93 60.5 144t171.5 51q63 0 105 -16t71 -51q16 -19 26 -46t10 -50q0 -11 -4.5 -15t-17.5 -4h-35q-13 0 -17 3t-6 14q-15 97 -140 97q-68 0 -106 -32t-38 -89
q0 -24 5.5 -42.5t18 -33t33.5 -25.5t52 -21l129 -43q66 -23 100 -70.5t34 -115.5v-5q0 -45 -16 -82t-45 -63t-71 -40t-93 -14q-125 0 -186 58q-22 21 -37 53t-15 58q0 11 4.5 15t17.5 4h35q12 0 16.5 -3t6.5 -14z" />
    <glyph glyph-name="T" unicode="T" horiz-adv-x="550" 
d="M235 644h-192q-12 0 -16.5 4t-4.5 16v28q0 12 4.5 16t16.5 4h464q12 0 16.5 -4t4.5 -16v-28q0 -12 -4.5 -16t-16.5 -4h-192v-624q0 -12 -4.5 -16t-16.5 -4h-38q-12 0 -16.5 4t-4.5 16v624z" />
    <glyph glyph-name="U" unicode="U" horiz-adv-x="616" 
d="M547 242q0 -128 -59.5 -193t-175.5 -65h-9q-234 0 -234 258v450q0 12 4.5 16t16.5 4h38q12 0 16.5 -4t4.5 -16v-451q0 -183 152 -183h13q153 0 153 183v451q0 12 4.5 16t16.5 4h38q12 0 16.5 -4t4.5 -16v-450z" />
    <glyph glyph-name="V" unicode="V" horiz-adv-x="565" 
d="M20 691q-2 6 -2 9q0 12 16 12h43q12 0 16.5 -3t8.5 -15l183 -585l180 585q4 12 8.5 15t16.5 3h41q16 0 16 -12q0 -3 -2 -9l-212 -669q-4 -12 -9 -17t-17 -5h-49q-12 0 -17 5t-9 17z" />
    <glyph glyph-name="W" unicode="W" horiz-adv-x="776" 
d="M74 712q13 0 18 -3.5t7 -14.5l122 -593l122 564q3 13 9 17.5t17 4.5h42q22 0 26 -22l114 -566l127 595q2 11 7 14.5t18 3.5h39q16 0 16 -12q0 -1 -2 -11l-150 -667q-3 -13 -9 -17.5t-17 -4.5h-59q-22 0 -26 22l-109 527l-113 -527q-3 -13 -9 -17.5t-17 -4.5h-59
q-22 0 -26 22l-142 667q-2 10 -2 11q0 12 16 12h40z" />
    <glyph glyph-name="X" unicode="X" horiz-adv-x="540" 
d="M94 712q11 0 16 -3t12 -15l149 -250l151 250q7 12 12 15t16 3h45q15 0 15 -12q0 -2 -0.5 -3.5t-2.5 -5.5l-193 -316l204 -354q2 -4 2.5 -5.5t0.5 -3.5q0 -12 -15 -12h-49q-11 0 -16 3t-12 15l-160 285l-162 -285q-7 -12 -12 -15t-16 -3h-45q-15 0 -15 12q0 2 0.5 3.5
t2.5 5.5l204 352l-193 318q-3 7 -3 9q0 12 15 12h49z" />
    <glyph glyph-name="Y" unicode="Y" horiz-adv-x="539" 
d="M76 712q12 0 17 -3t10 -14l170 -344l167 344q5 11 10 14t17 3h40q18 0 18 -12q0 -4 -3 -10l-212 -420v-250q0 -12 -4.5 -16t-16.5 -4h-38q-12 0 -16.5 4t-4.5 16v250l-213 420q-3 6 -3 10q0 12 18 12h44z" />
    <glyph glyph-name="Z" unicode="Z" horiz-adv-x="548" 
d="M500 662q0 -10 -2.5 -17t-6.5 -13l-361 -564h357q12 0 16.5 -4t4.5 -16v-28q0 -12 -4.5 -16t-16.5 -4h-426q-12 0 -16.5 4t-4.5 16v30q0 10 2.5 17t6.5 13l361 564h-334q-12 0 -16.5 4t-4.5 16v28q0 12 4.5 16t16.5 4h403q12 0 16.5 -4t4.5 -16v-30z" />
    <glyph glyph-name="a" unicode="a" horiz-adv-x="506" 
d="M255 320q20 0 51 -2t62 -6v59q0 55 -25.5 79.5t-83.5 24.5q-47 0 -71.5 -13.5t-38.5 -46.5q-5 -11 -8 -14t-15 -3h-36q-13 0 -17.5 4t-4.5 15q0 14 8 30.5t20 30.5q26 30 65 45t98 15q100 0 144 -38.5t44 -126.5v-205q0 -91 -45 -134.5t-144 -43.5h-15
q-102 0 -150.5 37.5t-48.5 121.5q0 89 51 130t160 41zM261 254q-77 0 -106.5 -24t-29.5 -80q0 -49 27.5 -71t96.5 -22h9q59 0 84.5 28.5t25.5 91.5v68q-30 4 -59.5 6.5t-47.5 2.5z" />
    <glyph glyph-name="b" unicode="b" horiz-adv-x="539" 
d="M59 692q0 12 4.5 16t16.5 4h37q12 0 16.5 -4t4.5 -16v-216q50 62 148 62q99 0 151.5 -56t52.5 -162v-111q0 -106 -56 -164.5t-159 -58.5t-159.5 54t-56.5 154v498zM138 220q0 -166 137 -166q136 0 136 166v84q0 166 -137 166q-67 0 -101.5 -42.5t-34.5 -123.5v-84z" />
    <glyph glyph-name="c" unicode="c" horiz-adv-x="496" 
d="M256 54q102 0 117 86q2 11 6 14t17 3h33q13 0 17.5 -4t4.5 -15q0 -18 -7.5 -40.5t-21.5 -42.5q-46 -69 -168 -69q-101 0 -153 55t-52 163v99q0 117 52 176t153 59q109 0 158 -55q38 -43 38 -97q0 -11 -4.5 -15t-17.5 -4h-32q-13 0 -17 3t-6 14q-5 42 -34.5 64.5
t-80.5 22.5q-68 0 -99 -39.5t-31 -127.5v-84q0 -86 31 -126t97 -40z" />
    <glyph glyph-name="d" unicode="d" horiz-adv-x="539" 
d="M254 538q97 0 147 -62v216q0 12 4.5 16t16.5 4h37q12 0 16.5 -4t4.5 -16v-478q0 -109 -56.5 -168.5t-159.5 -59.5t-159 55.5t-56 157.5v111q0 107 54 167.5t151 60.5zM128 220q0 -166 136 -166q137 0 137 166v84q0 166 -136 166q-137 0 -137 -166v-84z" />
    <glyph glyph-name="e" unicode="e" horiz-adv-x="513" 
d="M128 238v-19q0 -165 134 -165q85 0 113 65q5 12 8.5 14.5t14.5 2.5h36q14 0 18 -2.5t4 -13.5q0 -14 -11 -36t-25 -38q-25 -28 -67.5 -44t-93.5 -16q-101 0 -155.5 59t-54.5 168v75q0 121 54 185.5t157 64.5q206 0 206 -229v-51q0 -12 -4.5 -16t-16.5 -4h-317zM260 476
q-131 0 -132 -173h258q0 89 -30.5 131t-95.5 42z" />
    <glyph glyph-name="f" unicode="f" horiz-adv-x="322" 
d="M298 712q11 0 14 -4t3 -16v-27q0 -12 -3 -16t-14 -4h-29q-45 0 -63.5 -18t-18.5 -62v-41h91q11 0 14 -4t3 -16v-26q0 -12 -3 -16t-14 -4h-91v-438q0 -12 -4.5 -16t-16.5 -4h-37q-12 0 -16.5 4t-4.5 16v438h-64q-11 0 -14 4t-3 16v26q0 12 3 16t14 4h64v45q0 69 40 106
t114 37h36z" />
    <glyph glyph-name="g" unicode="g" horiz-adv-x="537" 
d="M155 -74q11 -23 36 -34.5t70 -11.5q71 0 103 28q35 32 35 100v47q-25 -29 -62 -44t-84 -15q-99 0 -151.5 56t-52.5 162v96q0 109 55.5 168.5t158.5 59.5t159 -57t56 -161v-308q0 -57 -15 -95t-43.5 -60.5t-68.5 -32t-91 -9.5q-42 0 -76.5 8t-59 23t-38.5 35.5t-14 45.5
q0 11 4 13.5t18 2.5h38q11 0 14.5 -2.5t8.5 -14.5zM128 230q0 -166 136 -166q135 0 135 166v74q0 166 -136 166q-135 0 -135 -166v-74z" />
    <glyph glyph-name="h" unicode="h" horiz-adv-x="536" 
d="M148 471q26 32 65 49.5t87 17.5q84 0 128 -45t44 -131v-342q0 -12 -4.5 -16t-16.5 -4h-37q-12 0 -16.5 4t-4.5 16v325q0 64 -27 93.5t-87 29.5t-95.5 -38.5t-35.5 -102.5v-307q0 -12 -4.5 -16t-16.5 -4h-37q-12 0 -16.5 4t-4.5 16v672q0 12 4.5 16t16.5 4h37
q12 0 16.5 -4t4.5 -16v-221z" />
    <glyph glyph-name="i" unicode="i" horiz-adv-x="217" 
d="M148 20q0 -12 -4.5 -16t-16.5 -4h-37q-12 0 -16.5 4t-4.5 16v484q0 12 4.5 16t16.5 4h37q12 0 16.5 -4t4.5 -16v-484zM109 617q-23 0 -36.5 12t-13.5 33v16q0 20 13.5 32t36.5 12q24 0 38 -12t14 -32v-16q0 -21 -14 -33t-38 -12z" />
    <glyph glyph-name="j" unicode="j" horiz-adv-x="217" 
d="M-36 -171q-11 0 -14 4t-3 16v30q0 12 3 16t14 4h29q44 0 60 14.5t16 52.5v538q0 12 4.5 16t16.5 4h37q12 0 16.5 -4t4.5 -16v-543q0 -132 -139 -132h-45zM109 617q-23 0 -36.5 12t-13.5 33v16q0 20 13.5 32t36.5 12q24 0 38 -12t14 -32v-16q0 -21 -14 -33t-38 -12z" />
    <glyph glyph-name="k" unicode="k" horiz-adv-x="499" 
d="M148 272l214 232q12 13 19 16.5t19 3.5h40q18 0 18 -13q0 -3 -1 -5.5t-6 -7.5l-153 -162l193 -310q4 -7 4 -13q0 -13 -18 -13h-52q-11 0 -15.5 3.5t-12.5 16.5l-154 257l-95 -100v-157q0 -12 -4.5 -16t-16.5 -4h-37q-12 0 -16.5 4t-4.5 16v672q0 12 4.5 16t16.5 4h37
q12 0 16.5 -4t4.5 -16v-420z" />
    <glyph glyph-name="l" unicode="l" horiz-adv-x="217" 
d="M148 20q0 -12 -4.5 -16t-16.5 -4h-37q-12 0 -16.5 4t-4.5 16v672q0 12 4.5 16t16.5 4h37q12 0 16.5 -4t4.5 -16v-672z" />
    <glyph glyph-name="m" unicode="m" horiz-adv-x="838" 
d="M608 538q81 0 123.5 -45t42.5 -131v-342q0 -12 -4.5 -16t-16.5 -4h-37q-12 0 -16.5 4t-4.5 16v325q0 64 -25.5 93.5t-82.5 29.5t-91.5 -38t-34.5 -103v-307q0 -12 -4.5 -16t-16.5 -4h-37q-12 0 -16.5 4t-4.5 16v325q0 64 -25.5 93.5t-82.5 29.5t-91.5 -38t-34.5 -103
v-307q0 -12 -4.5 -16t-16.5 -4h-37q-12 0 -16.5 4t-4.5 16v484q0 12 4.5 16t16.5 4h35q12 0 16.5 -4t4.5 -16v-35q24 33 62.5 51t86.5 18q109 0 148 -82q32 44 70.5 63t94.5 19z" />
    <glyph glyph-name="n" unicode="n" horiz-adv-x="536" 
d="M300 538q84 0 128 -45t44 -131v-342q0 -12 -4.5 -16t-16.5 -4h-37q-12 0 -16.5 4t-4.5 16v325q0 64 -27 93.5t-87 29.5t-95.5 -38.5t-35.5 -102.5v-307q0 -12 -4.5 -16t-16.5 -4h-37q-12 0 -16.5 4t-4.5 16v484q0 12 4.5 16t16.5 4h35q12 0 16.5 -4t4.5 -16v-35
q25 33 64.5 51t89.5 18z" />
    <glyph glyph-name="o" unicode="o" horiz-adv-x="530" 
d="M265 -14q-103 0 -159.5 57t-56.5 161v106q0 109 56.5 168.5t159.5 59.5t159.5 -57t56.5 -161v-106q0 -109 -56.5 -168.5t-159.5 -59.5zM265 54q137 0 137 166v84q0 166 -137 166t-137 -166v-84q0 -166 137 -166z" />
    <glyph glyph-name="p" unicode="p" horiz-adv-x="539" 
d="M285 -14q-48 0 -86 16t-61 46v-199q0 -12 -4.5 -16t-16.5 -4h-37q-12 0 -16.5 4t-4.5 16v461q0 109 56.5 168.5t159.5 59.5t159 -55.5t56 -157.5v-106q0 -233 -205 -233zM411 304q0 166 -136 166q-137 0 -137 -166v-84q0 -81 34.5 -123.5t101.5 -42.5q137 0 137 166v84z
" />
    <glyph glyph-name="q" unicode="q" horiz-adv-x="539" 
d="M401 48q-50 -62 -148 -62q-99 0 -151.5 56t-52.5 162v106q0 109 56 168.5t159 59.5t159.5 -57t56.5 -161v-471q0 -12 -4.5 -16t-16.5 -4h-37q-12 0 -16.5 4t-4.5 16v199zM128 220q0 -166 137 -166q136 0 136 166v84q0 166 -137 166q-136 0 -136 -166v-84z" />
    <glyph glyph-name="r" unicode="r" horiz-adv-x="340" 
d="M146 428q19 43 57.5 69.5t86.5 26.5h13q11 0 14 -4t3 -16v-36q0 -12 -3 -16t-14 -4h-26q-30 0 -53.5 -13t-40.5 -36.5t-26 -55t-9 -68.5v-255q0 -12 -4.5 -16t-16.5 -4h-37q-12 0 -16.5 4t-4.5 16v484q0 12 4.5 16t16.5 4h35q12 0 16.5 -4t4.5 -16v-76z" />
    <glyph glyph-name="s" unicode="s" horiz-adv-x="475" 
d="M241 -14q-109 0 -161 49q-39 37 -39 88q0 11 4.5 15t17.5 4h29q12 0 16.5 -3t6.5 -14q9 -40 38 -58t86 -18q114 0 114 81q0 38 -20.5 59.5t-70.5 34.5l-89 23q-62 17 -91 49.5t-29 86.5v5q0 69 50 109.5t137 40.5q105 0 152 -50q36 -36 36 -85q0 -11 -4.5 -15t-17.5 -4
h-29q-13 0 -17 3t-6 14q-12 75 -121 75q-50 0 -77.5 -22t-27.5 -62q0 -17 5 -29t17 -22t31.5 -18t48.5 -15l82 -21q120 -30 120 -146v-5q0 -150 -191 -150z" />
    <glyph glyph-name="t" unicode="t" horiz-adv-x="340" 
d="M233 0q-68 0 -99 32t-31 101v325h-65q-11 0 -14 4t-3 16v26q0 12 3 16t14 4h65v127q0 12 4.5 16t16.5 4h37q12 0 16.5 -4t4.5 -16v-127h103q11 0 14 -4t3 -16v-26q0 -12 -3 -16t-14 -4h-103v-312q0 -41 13.5 -58.5t44.5 -17.5h47q11 0 14 -4t3 -16v-30q0 -12 -3 -16
t-14 -4h-54z" />
    <glyph glyph-name="u" unicode="u" horiz-adv-x="526" 
d="M380 54q-26 -33 -63.5 -50.5t-85.5 -17.5q-81 0 -124 45t-43 131v342q0 12 4.5 16t16.5 4h37q12 0 16.5 -4t4.5 -16v-325q0 -64 26 -93.5t83 -29.5t91.5 38.5t34.5 102.5v307q0 12 4.5 16t16.5 4h37q12 0 16.5 -4t4.5 -16v-484q0 -12 -4.5 -16t-16.5 -4h-35
q-12 0 -16.5 4t-4.5 16v34z" />
    <glyph glyph-name="v" unicode="v" horiz-adv-x="459" 
d="M70 524q10 0 14.5 -4.5t8.5 -16.5l139 -424l135 424q4 13 8.5 17t14.5 4h42q16 0 16 -12q0 -2 -3 -12l-161 -478q-5 -13 -10 -17.5t-16 -4.5h-58q-11 0 -16 4.5t-10 17.5l-160 478q-3 10 -3 12q0 12 16 12h43z" />
    <glyph glyph-name="w" unicode="w" horiz-adv-x="721" 
d="M385 504q11 0 17 -4.5t9 -17.5l108 -412l111 433q3 12 7.5 16.5t15.5 4.5h41q16 0 16 -12q0 -3 -3 -13l-132 -477q-4 -13 -9.5 -17.5t-16.5 -4.5h-66q-11 0 -17 4.5t-9 17.5l-97 383l-97 -383q-3 -13 -9 -17.5t-17 -4.5h-66q-11 0 -16.5 4.5t-9.5 17.5l-131 477
q-3 10 -3 13q0 12 16 12h42q10 0 14.5 -4t8.5 -17l115 -433l104 412q3 13 9 17.5t17 4.5h48z" />
    <glyph glyph-name="x" unicode="x" horiz-adv-x="448" 
d="M81 524q11 0 15.5 -3.5t12.5 -14.5l115 -174l118 174q8 11 12.5 14.5t15.5 3.5h41q15 0 15 -12q0 -5 -3 -9l-155 -225l166 -257q3 -5 3 -9q0 -12 -15 -12h-50q-11 0 -16 3.5t-12 14.5l-123 197l-124 -197q-8 -11 -12.5 -14.5t-15.5 -3.5h-43q-15 0 -15 12q0 4 3 9
l164 252l-157 230q-3 4 -3 9q0 12 15 12h48z" />
    <glyph glyph-name="y" unicode="y" horiz-adv-x="462" 
d="M82 -101q21 0 36.5 3t27.5 12t21.5 25t18.5 41l12 35l-184 485q-3 9 -3 12q0 12 16 12h44q10 0 14 -4t9 -17l143 -386l133 386q5 13 9 17t14 4h42q16 0 16 -12q0 -3 -3 -12l-188 -526q-16 -46 -33.5 -74.5t-37.5 -44t-43.5 -21t-52.5 -5.5h-23q-11 0 -14 4t-3 16v30
q0 12 3 16t14 4h12z" />
    <glyph glyph-name="z" unicode="z" horiz-adv-x="469" 
d="M54 0q-11 0 -14 4t-3 16v19q0 18 9 30l283 388h-260q-11 0 -14 4t-3 16v27q0 12 3 16t14 4h339q11 0 14 -4t3 -16v-19q0 -18 -9 -30l-283 -388h285q11 0 14 -4t3 -16v-27q0 -12 -3 -16t-14 -4h-364z" />
    <glyph glyph-name="trademark" unicode="&#x2122;" horiz-adv-x="764" 
d="M303 712q11 0 14 -4t3 -16v-9q0 -12 -3 -16t-14 -4h-97v-324q0 -11 -4 -14t-16 -3h-16q-12 0 -16 3t-4 14v324h-97q-11 0 -14 4t-3 16v9q0 12 3 16t14 4h250zM418 712q11 0 15.5 -3t9.5 -14l100 -209l100 209q5 11 9.5 14t15.5 3h22q12 0 16 -3t4 -14v-356q0 -11 -4 -14
t-16 -3h-14q-12 0 -16 3t-4 14v274l-81 -166q-4 -8 -8 -11t-13 -3h-22q-10 0 -14 3t-8 11l-80 166v-274q0 -11 -4 -14t-16 -3h-14q-12 0 -16 3t-4 14v356q0 11 4 14t16 3h22z" />
    <glyph glyph-name="ordfeminine" unicode="&#xaa;" horiz-adv-x="361" 
d="M38 462q0 111 139 111q25 0 75 -6v30q0 65 -67 65q-29 0 -44.5 -6.5t-25.5 -21.5q-6 -9 -13 -9h-36q-13 0 -13 10q0 21 22 42q36 35 107 35q67 0 97 -26t30 -84v-128q0 -56 -32 -86t-91 -30h-24q-60 0 -92 26.5t-32 77.5zM180 408q72 0 72 76v34q-20 3 -38.5 4.5
t-29.5 1.5q-50 0 -69 -13t-19 -47q0 -30 17.5 -43t56.5 -13h10z" />
    <glyph glyph-name="ordmasculine" unicode="&#xba;" horiz-adv-x="366" 
d="M183 660q-45 0 -65 -25t-20 -79v-42q0 -54 20 -79t65 -25t65 25t20 79v42q0 54 -20 79t-65 25zM183 358q-69 0 -106.5 37t-37.5 106v63q0 71 37.5 109.5t106.5 38.5t106.5 -37t37.5 -106v-63q0 -71 -37.5 -109.5t-106.5 -38.5z" />
    <glyph glyph-name="copyright" unicode="&#xa9;" horiz-adv-x="844" 
d="M422 -16q-81 0 -149.5 27.5t-118 77t-77 118t-27.5 149.5t27.5 149.5t77 118t118 77t149.5 27.5t149.5 -27.5t118 -77t77 -118t27.5 -149.5t-27.5 -149.5t-77 -118t-118 -77t-149.5 -27.5zM422 668q-68 0 -124.5 -22.5t-97 -64t-63 -99t-22.5 -126.5t22.5 -126.5t63 -99
t97 -64t124.5 -22.5t124.5 22.5t97 64t63 99t22.5 126.5t-22.5 126.5t-63 99t-97 64t-124.5 22.5zM416 215q72 0 81 64q2 11 15 11h31q18 0 18 -14q0 -46 -33 -79q-35 -38 -113 -38q-46 0 -81.5 19.5t-51.5 54.5q-8 19 -11 38t-3 48v75q0 32 3 50.5t12 37.5q17 37 51.5 57
t84.5 20q38 0 66.5 -9.5t45.5 -27.5q30 -35 30 -78q0 -14 -18 -14h-32q-14 0 -15 12q-7 60 -79 60q-45 0 -65 -23t-20 -75v-90q0 -53 19.5 -76t64.5 -23z" />
    <glyph glyph-name="registered" unicode="&#xae;" horiz-adv-x="502" 
d="M251 326q-44 0 -81 15t-63.5 41.5t-41.5 63.5t-15 81t15 81t41.5 63.5t63.5 41.5t81 15t81 -15t63.5 -41.5t41.5 -63.5t15 -81t-15 -81t-41.5 -63.5t-63.5 -41.5t-81 -15zM251 688q-35 0 -64 -12t-50 -33t-32.5 -50.5t-11.5 -65.5t11.5 -65.5t32.5 -50.5t50 -33t64 -12
t64 12t50 33t32.5 50.5t11.5 65.5t-11.5 65.5t-32.5 50.5t-50 33t-64 12zM193 418q-8 0 -10.5 2t-2.5 10v198q0 8 2.5 10t10.5 2h58q74 0 74 -65v-6q0 -45 -36 -58l45 -81q2 -2 2 -6q0 -6 -11 -6h-19q-7 0 -10 2t-7 10l-41 76h-31v-76q0 -8 -2.5 -10t-10.5 -2h-11zM217 541
h34q19 0 26.5 6.5t7.5 21.5v5q0 31 -34 31h-34v-64z" />
    <glyph glyph-name="partialdiff" unicode="&#x2202;" horiz-adv-x="550" 
d="M265 712q127 0 186.5 -45.5t59.5 -150.5q0 -60 -18 -141l-28 -129q-16 -72 -37.5 -121.5t-52 -80t-71.5 -44.5t-96 -14q-89 0 -135 45t-46 130q0 32 8 75l4 20q9 46 28.5 82.5t48 62.5t65.5 40t79 14q112 0 156 -65l13 60q8 38 8 64q0 130 -161 130h-106q-12 0 -16.5 4
t-4.5 16v28q0 12 4.5 16t16.5 4h95zM223 52q119 0 152 150l8 36q2 12 3.5 23t1.5 22q0 51 -30 78t-87 27q-69 0 -106 -37t-52 -121l-4 -21q-2 -14 -3.5 -26t-1.5 -23q0 -108 119 -108z" />
    <glyph glyph-name="product" unicode="&#x220f;" horiz-adv-x="632" 
d="M556 20q0 -12 -4.5 -16t-16.5 -4h-38q-12 0 -16.5 4t-4.5 16v624h-320v-624q0 -12 -4.5 -16t-16.5 -4h-38q-12 0 -16.5 4t-4.5 16v672q0 12 4.5 16t16.5 4h438q12 0 16.5 -4t4.5 -16v-672z" />
    <glyph glyph-name="summation" unicode="&#x2211;" horiz-adv-x="490" 
d="M19 -12q0 15 9 28l209 305l-199 301q-5 8 -7 14t-2 14v42q0 12 4.5 16t16.5 4h403q12 0 16.5 -4t4.5 -16v-28q0 -12 -4.5 -16t-16.5 -4h-335l197 -297q9 -14 9 -23q0 -11 -9 -23l-210 -307h348q12 0 16.5 -4t4.5 -16v-28q0 -12 -4.5 -16t-16.5 -4h-413q-12 0 -16.5 4
t-4.5 16v42z" />
    <glyph glyph-name="uni2215" unicode="&#x2215;" horiz-adv-x="176" 
d="M-32 17q-5 -10 -9.5 -13.5t-12.5 -3.5h-50q-10 0 -10 7q0 2 4 10l317 638q5 10 9.5 13.5t12.5 3.5h50q10 0 10 -7q0 -2 -4 -10z" />
    <glyph glyph-name="uni2219" unicode="&#x2219;" horiz-adv-x="244" 
d="M122 421q29 0 45.5 -15.5t16.5 -41.5v-20q0 -26 -16.5 -41.5t-45.5 -15.5t-45.5 15.5t-16.5 41.5v20q0 26 16.5 41.5t45.5 15.5z" />
    <glyph glyph-name="radical" unicode="&#x221a;" horiz-adv-x="606" 
d="M162 524q14 0 19.5 -4t8.5 -15l130 -437l213 725q4 13 8.5 17t14.5 4h40q16 0 16 -11q0 -4 -3 -13l-233 -768q-4 -13 -9.5 -17.5t-16.5 -4.5h-65q-11 0 -16.5 4.5t-9.5 17.5l-133 436h-75q-11 0 -14 4t-3 16v26q0 12 3 16t14 4h111z" />
    <glyph glyph-name="infinity" unicode="&#x221e;" horiz-adv-x="654" 
d="M162 492q86 0 165 -103q79 103 165 103q60 0 96.5 -37.5t36.5 -98.5v-40q0 -61 -36.5 -98.5t-96.5 -37.5q-85 0 -165 102q-79 -102 -165 -102q-60 0 -96.5 37.5t-36.5 98.5v40q0 61 36.5 98.5t96.5 37.5zM161 242q57 0 127 94q-70 94 -127 94q-32 0 -49 -21.5t-17 -62.5
v-20q0 -41 17 -62.5t49 -21.5zM493 430q-29 0 -60 -23t-67 -71q36 -48 67 -71t60 -23q32 0 49 21.5t17 62.5v20q0 41 -17 62.5t-49 21.5z" />
    <glyph glyph-name="integral" unicode="&#x222b;" horiz-adv-x="318" 
d="M242 22q7 -38 8.5 -54.5t1.5 -32.5q0 -51 -35 -78.5t-98 -27.5h-58q-11 0 -14 4t-3 16v27q0 12 3 16t14 4h51q62 0 62 43q0 4 -0.5 8.5l-1.5 13t-3 21.5t-6 34l-87 503l-5 32t-3 22.5t-1.5 17t-0.5 15.5q0 51 35 78.5t98 27.5h58q11 0 14 -4t3 -16v-27q0 -12 -3 -16
t-14 -4h-51q-62 0 -62 -43q0 -4 0.5 -8.5l1.5 -13t3 -21.5t6 -34z" />
    <glyph glyph-name="lozenge" unicode="&#x25ca;" horiz-adv-x="550" 
d="M132 356l143 -280l144 280l-144 280zM313 10q-5 -10 -17 -10h-40q-12 0 -17 10l-169 323q-8 16 -8 23t8 23l169 323q5 10 17 10h40q12 0 17 -10l168 -323q8 -16 8 -23t-8 -23z" />
    <glyph glyph-name="Delta" unicode="&#x2206;" horiz-adv-x="598" 
d="M30 0q-16 0 -16 12q0 3 2 9l227 669q5 13 10 17.5t16 4.5h64q11 0 16 -4.5t10 -17.5l223 -669q2 -6 2 -9q0 -12 -16 -12h-538zM112 68h371l-185 565z" />
    <glyph glyph-name="estimated" unicode="&#x212e;" horiz-adv-x="785" 
d="M389 656q-143 0 -212 -69v-211h431v211q-81 69 -219 69zM691 149q-27 -43 -57.5 -73t-66.5 -49t-79 -28t-95 -9q-78 0 -142.5 25.5t-110 71.5t-71 110.5t-25.5 142.5t25 141.5t70 108.5t108.5 70t141.5 25q79 0 144 -24t110.5 -69t71 -109t26.5 -143h-564v-245
q40 -40 92.5 -59t124.5 -19q97 0 161.5 35t113.5 112z" />
    <glyph glyph-name="uni2113" unicode="&#x2113;" horiz-adv-x="438" 
d="M187 250v-97q0 -26 3.5 -43t13 -27t25.5 -14t40 -4h82q11 0 14 -4t3 -16v-25q0 -12 -3 -16t-14 -4h-89q-80 0 -113.5 32t-33.5 108v50l-54 -45q-6 -5 -12 -5q-5 0 -14 10l-16 19q-7 8 -7 14t7 12l96 81v291q0 78 36.5 119.5t106.5 41.5q63 0 96.5 -39t33.5 -112v-43
q0 -115 -87 -188zM187 336l65 55q37 30 51 62.5t14 86.5v21q0 105 -65 105t-65 -105v-225z" />
    <glyph glyph-name="Omega" unicode="&#x2126;" horiz-adv-x="618" 
d="M59 428q0 30 1 53t3.5 41.5t7 34t10.5 30.5q56 141 228 141t228 -136q6 -15 10.5 -30t7 -33t3.5 -40t1 -51v-105q0 -41 -4.5 -75t-15.5 -63.5t-28.5 -57t-42.5 -56.5l-12 -13h105q12 0 16.5 -4t4.5 -16v-28q0 -12 -4.5 -16t-16.5 -4h-172q-12 0 -16.5 4t-4.5 16v28
q0 13 1.5 19.5t6.5 13.5l23 30q22 29 37 54.5t24 50.5t13 51.5t4 58.5v119q0 112 -40 162.5t-128 50.5t-128 -50.5t-40 -162.5v-119q0 -32 4 -58.5t13 -51.5t24 -50.5t37 -54.5l23 -30q5 -7 6.5 -13.5t1.5 -19.5v-28q0 -12 -4.5 -16t-16.5 -4h-172q-12 0 -16.5 4t-4.5 16v28
q0 12 4.5 16t16.5 4h104l-11 13q-26 29 -43 56.5t-28 57t-15.5 63.5t-4.5 75v95z" />
    <glyph glyph-name="quoteleft" unicode="&#x2018;" horiz-adv-x="244" 
d="M131 453q-29 0 -45.5 15.5t-16.5 42.5v19q0 20 7.5 40t25.5 54l43 80q7 13 12.5 16.5t17.5 3.5h25q12 0 12 -8q0 -2 -0.5 -4t-3.5 -9l-56 -129q19 -3 30 -18t11 -38v-8q0 -26 -16.5 -41.5t-45.5 -15.5z" />
    <glyph glyph-name="quoteright" unicode="&#x2019;" horiz-adv-x="244" 
d="M113 724q29 0 45.5 -15.5t16.5 -42.5v-19q0 -20 -7.5 -40t-25.5 -54l-43 -80q-7 -13 -12.5 -16.5t-17.5 -3.5h-25q-12 0 -12 8q0 2 0.5 4t3.5 9l56 129q-19 3 -30 18t-11 38v8q0 26 16.5 41.5t45.5 15.5z" />
    <glyph glyph-name="quotesinglbase" unicode="&#x201a;" horiz-adv-x="244" 
d="M42 -143q0 2 0.5 4t3.5 9l56 129q-19 3 -30 18t-11 38v8q0 26 16.5 41.5t45.5 15.5t45.5 -15.5t16.5 -42.5v-19q0 -20 -7.5 -40t-25.5 -54l-43 -80q-7 -13 -12.5 -16.5t-17.5 -3.5h-25q-12 0 -12 8z" />
    <glyph glyph-name="quotedblleft" unicode="&#x201c;" horiz-adv-x="421" 
d="M131 453q-29 0 -45.5 15.5t-16.5 42.5v19q0 20 7.5 40t25.5 54l43 80q7 13 12.5 16.5t17.5 3.5h25q12 0 12 -8q0 -2 -0.5 -4t-3.5 -9l-56 -129q19 -3 30 -18t11 -38v-8q0 -26 -16.5 -41.5t-45.5 -15.5zM308 453q-29 0 -45.5 15.5t-16.5 42.5v19q0 20 7.5 40t25.5 54
l43 80q7 13 12.5 16.5t17.5 3.5h25q12 0 12 -8q0 -2 -0.5 -4t-3.5 -9l-56 -129q19 -3 30 -18t11 -38v-8q0 -26 -16.5 -41.5t-45.5 -15.5z" />
    <glyph glyph-name="quotedblright" unicode="&#x201d;" horiz-adv-x="421" 
d="M113 724q29 0 45.5 -15.5t16.5 -42.5v-19q0 -20 -7.5 -40t-25.5 -54l-43 -80q-7 -13 -12.5 -16.5t-17.5 -3.5h-25q-12 0 -12 8q0 2 0.5 4t3.5 9l56 129q-19 3 -30 18t-11 38v8q0 26 16.5 41.5t45.5 15.5zM290 724q29 0 45.5 -15.5t16.5 -42.5v-19q0 -20 -7.5 -40
t-25.5 -54l-43 -80q-7 -13 -12.5 -16.5t-17.5 -3.5h-25q-12 0 -12 8q0 2 0.5 4t3.5 9l56 129q-19 3 -30 18t-11 38v8q0 26 16.5 41.5t45.5 15.5z" />
    <glyph glyph-name="quotedblbase" unicode="&#x201e;" horiz-adv-x="421" 
d="M42 -143q0 2 0.5 4t3.5 9l56 129q-19 3 -30 18t-11 38v8q0 26 16.5 41.5t45.5 15.5t45.5 -15.5t16.5 -42.5v-19q0 -20 -7.5 -40t-25.5 -54l-43 -80q-7 -13 -12.5 -16.5t-17.5 -3.5h-25q-12 0 -12 8zM219 -143q0 2 0.5 4t3.5 9l56 129q-19 3 -30 18t-11 38v8
q0 26 16.5 41.5t45.5 15.5t45.5 -15.5t16.5 -42.5v-19q0 -20 -7.5 -40t-25.5 -54l-43 -80q-7 -13 -12.5 -16.5t-17.5 -3.5h-25q-12 0 -12 8z" />
    <glyph glyph-name="uni02BC" unicode="&#x2bc;" horiz-adv-x="244" 
d="M173 655q0 -18 -7.5 -35t-24.5 -48l-42 -80q-7 -13 -12.5 -16.5t-17.5 -3.5h-25q-12 0 -12 8q0 2 0.5 4t3.5 9l52 115q-35 8 -35 48v8q0 28 16.5 44t43.5 16q28 0 44 -16t16 -44v-9z" />
    <glyph glyph-name="periodcentered.loclCAT" horiz-adv-x="140" 
d="M71 422q29 0 45.5 -15.5t16.5 -41.5v-20q0 -26 -16.5 -41.5t-45.5 -15.5t-45.5 15.5t-16.5 41.5v20q0 26 16.5 41.5t45.5 15.5z" />
    <glyph glyph-name="periodcentered.loclCAT.cap" horiz-adv-x="272" 
d="M136 460q29 0 45.5 -15.5t16.5 -41.5v-20q0 -26 -16.5 -41.5t-45.5 -15.5t-45.5 15.5t-16.5 41.5v20q0 26 16.5 41.5t45.5 15.5z" />
    <glyph glyph-name="dotlessi" unicode="&#x131;" horiz-adv-x="217" 
d="M91 0q-22 0 -22 21v482q0 14 4 17.5t18 3.5h35q14 0 18 -3.5t4 -17.5v-482q0 -14 -4 -17.5t-18 -3.5h-35z" />
    <glyph glyph-name="uni0237" unicode="&#x237;" horiz-adv-x="217" 
d="M-7 -101q44 0 60 14.5t16 52.5v538q0 12 4.5 16t16.5 4h37q12 0 16.5 -4t4.5 -16v-543q0 -132 -139 -132h-45q-11 0 -14 4t-3 16v30q0 12 3 16t14 4h29z" />
    <glyph glyph-name="IJ" unicode="&#x132;" horiz-adv-x="761" 
d="M156 20q0 -12 -4.5 -16t-16.5 -4h-38q-12 0 -16.5 4t-4.5 16v672q0 12 4.5 16t16.5 4h38q12 0 16.5 -4t4.5 -16v-672zM341 174q5 -57 39 -87t92 -30q39 0 65.5 10.5t43 34.5t24 62.5t7.5 94.5v433q0 12 4.5 16t16.5 4h38q12 0 16.5 -4t4.5 -16v-456q0 -129 -52.5 -190.5
t-163.5 -61.5q-100 0 -157.5 50t-57.5 138q0 11 4.5 15t17.5 4h35q13 0 17.5 -3t5.5 -14z" />
    <glyph glyph-name="Ldot" unicode="&#x13f;" horiz-adv-x="498" 
d="M469 20q0 -12 -4.5 -16t-16.5 -4h-351q-12 0 -16.5 4t-4.5 16v672q0 12 4.5 16t16.5 4h38q12 0 16.5 -4t4.5 -16v-624h292q12 0 16.5 -4t4.5 -16v-28zM362 460q29 0 45.5 -15.5t16.5 -41.5v-20q0 -26 -16.5 -41.5t-45.5 -15.5t-45.5 15.5t-16.5 41.5v20q0 26 16.5 41.5
t45.5 15.5z" />
    <glyph glyph-name="ij" unicode="&#x133;" horiz-adv-x="434" 
d="M148 20q0 -12 -4.5 -16t-16.5 -4h-37q-12 0 -16.5 4t-4.5 16v484q0 12 4.5 16t16.5 4h37q12 0 16.5 -4t4.5 -16v-484zM109 617q-23 0 -36.5 12t-13.5 33v16q0 20 13.5 32t36.5 12q24 0 38 -12t14 -32v-16q0 -21 -14 -33t-38 -12zM181 -171q-11 0 -14 4t-3 16v30
q0 12 3 16t14 4h29q44 0 60 14.5t16 52.5v538q0 12 4.5 16t16.5 4h37q12 0 16.5 -4t4.5 -16v-543q0 -132 -139 -132h-45zM326 617q-23 0 -36.5 12t-13.5 33v16q0 20 13.5 32t36.5 12q24 0 38 -12t14 -32v-16q0 -21 -14 -33t-38 -12z" />
    <glyph glyph-name="ldot" unicode="&#x140;" horiz-adv-x="360" 
d="M148 20q0 -12 -4.5 -16t-16.5 -4h-37q-12 0 -16.5 4t-4.5 16v672q0 12 4.5 16t16.5 4h37q12 0 16.5 -4t4.5 -16v-672zM290 422q29 0 45.5 -15.5t16.5 -41.5v-20q0 -26 -16.5 -41.5t-45.5 -15.5t-45.5 15.5t-16.5 41.5v20q0 26 16.5 41.5t45.5 15.5z" />
    <glyph glyph-name="napostrophe" unicode="&#x149;" horiz-adv-x="646" 
d="M410 538q84 0 128 -45t44 -131v-342q0 -12 -4.5 -16t-16.5 -4h-37q-12 0 -16.5 4t-4.5 16v325q0 64 -27 93.5t-87 29.5t-95.5 -38.5t-35.5 -102.5v-307q0 -12 -4.5 -16t-16.5 -4h-37q-12 0 -16.5 4t-4.5 16v484q0 12 4.5 16t16.5 4h35q12 0 16.5 -4t4.5 -16v-35
q25 33 64.5 51t89.5 18zM155 655q0 -18 -7.5 -35t-24.5 -48l-42 -80q-7 -13 -12.5 -16.5t-17.5 -3.5h-25q-12 0 -12 8q0 2 0.5 4t3.5 9l52 115q-35 8 -35 48v8q0 28 16.5 44t43.5 16q28 0 44 -16t16 -44v-9z" />
    <glyph glyph-name="uniFB01" unicode="&#xfb01;" horiz-adv-x="524" 
d="M298 712q11 0 14 -4t3 -16v-27q0 -12 -3 -16t-14 -4h-29q-45 0 -63.5 -18t-18.5 -62v-41h91q11 0 14 -4t3 -16v-26q0 -12 -3 -16t-14 -4h-91v-438q0 -12 -4.5 -16t-16.5 -4h-37q-12 0 -16.5 4t-4.5 16v438h-64q-11 0 -14 4t-3 16v26q0 12 3 16t14 4h64v45q0 69 40 106
t114 37h36zM455 20q0 -12 -4.5 -16t-16.5 -4h-37q-12 0 -16.5 4t-4.5 16v484q0 12 4.5 16t16.5 4h37q12 0 16.5 -4t4.5 -16v-484zM416 617q-23 0 -36.5 12t-13.5 33v16q0 20 13.5 32t36.5 12q24 0 38 -12t14 -32v-16q0 -21 -14 -33t-38 -12z" />
    <glyph glyph-name="uniFB02" unicode="&#xfb02;" horiz-adv-x="524" 
d="M298 712q11 0 14 -4t3 -16v-27q0 -12 -3 -16t-14 -4h-29q-45 0 -63.5 -18t-18.5 -62v-41h91q11 0 14 -4t3 -16v-26q0 -12 -3 -16t-14 -4h-91v-438q0 -12 -4.5 -16t-16.5 -4h-37q-12 0 -16.5 4t-4.5 16v438h-64q-11 0 -14 4t-3 16v26q0 12 3 16t14 4h64v45q0 69 40 106
t114 37h36zM455 20q0 -12 -4.5 -16t-16.5 -4h-37q-12 0 -16.5 4t-4.5 16v672q0 12 4.5 16t16.5 4h37q12 0 16.5 -4t4.5 -16v-672z" />
    <glyph glyph-name="Thorn" unicode="&#xde;" horiz-adv-x="545" 
d="M154 578h138q119 0 173.5 -49.5t54.5 -158.5v-20q0 -203 -228 -203h-138v-127q0 -12 -4.5 -16t-16.5 -4h-36q-12 0 -16.5 4t-4.5 16v672q0 12 4.5 16t16.5 4h36q12 0 16.5 -4t4.5 -16v-114zM154 510v-295h141q77 0 109.5 30.5t32.5 104.5v16q0 79 -32 111.5t-110 32.5
h-141z" />
    <glyph glyph-name="AE" unicode="&#xc6;" horiz-adv-x="898" 
d="M840 20q0 -12 -4.5 -16t-16.5 -4h-374q-12 0 -16.5 4t-4.5 16v175h-233l-92 -177q-6 -11 -11 -14.5t-17 -3.5h-42q-15 0 -15 11q0 4 3 10l357 673q6 11 11.5 14.5t16.5 3.5h413q12 0 16.5 -4t4.5 -16v-28q0 -12 -4.5 -16t-16.5 -4h-311v-244h285q12 0 16.5 -4t4.5 -16
v-28q0 -12 -4.5 -16t-16.5 -4h-285v-264h315q12 0 16.5 -4t4.5 -16v-28zM227 265h197v379z" />
    <glyph glyph-name="OE" unicode="&#x152;" horiz-adv-x="920" 
d="M862 20q0 -12 -4.5 -16t-16.5 -4h-533q-172 0 -228 134q-6 15 -10.5 29.5t-7 32t-3.5 39t-1 50.5v127q0 30 1 53t3.5 41.5t7 34t10.5 30.5q56 141 228 141h529q12 0 16.5 -4t4.5 -16v-28q0 -12 -4.5 -16t-16.5 -4h-311v-244h285q12 0 16.5 -4t4.5 -16v-28q0 -12 -4.5 -16
t-16.5 -4h-285v-264h315q12 0 16.5 -4t4.5 -16v-28zM140 283q0 -112 42.5 -163.5t135.5 -51.5h128v576h-128q-93 0 -135.5 -51.5t-42.5 -163.5v-146z" />
    <glyph glyph-name="uni1E9E" unicode="&#x1e9e;" horiz-adv-x="596" 
d="M151 20q0 -12 -4.5 -16t-16.5 -4h-38q-12 0 -16.5 4t-4.5 16v465q0 118 55.5 172.5t175.5 54.5h194q12 0 16.5 -4t4.5 -16v-30q0 -14 -9 -30l-116 -209q78 -10 119.5 -59.5t41.5 -145.5v-16q0 -98 -55 -150t-172 -52h-49q-11 0 -14 4t-3 16v30q0 12 3 16t14 4h28
q90 0 128.5 31.5t38.5 106.5v14q0 73 -31 106.5t-97 33.5h-25q-11 0 -14 4t-3 16v13q0 15 9 30l120 219h-129q-41 0 -70 -8.5t-47 -28t-26 -50.5t-8 -76v-461z" />
    <glyph glyph-name="thorn" unicode="&#xfe;" horiz-adv-x="549" 
d="M69 692q0 12 4.5 16t16.5 4h37q12 0 16.5 -4t4.5 -16v-216q23 30 61 46t86 16q205 0 205 -228v-91q0 -233 -205 -233q-48 0 -86 16t-61 46v-199q0 -12 -4.5 -16t-16.5 -4h-37q-12 0 -16.5 4t-4.5 16v843zM148 220q0 -81 34.5 -123.5t101.5 -42.5q137 0 137 166v84
q0 166 -137 166q-67 0 -101.5 -42.5t-34.5 -123.5v-84z" />
    <glyph glyph-name="ae" unicode="&#xe6;" horiz-adv-x="832" 
d="M368 245q-30 4 -59.5 6.5t-47.5 2.5q-38 0 -64 -5.5t-42 -18t-23 -32.5t-7 -48q0 -49 28 -71t96 -22h9q59 0 84.5 27.5t25.5 90.5v70zM579 476q-131 0 -132 -173h258q0 89 -30.5 131t-95.5 42zM578 -14q-113 0 -165 76q-41 -72 -146 -72h-27q-102 0 -149 39t-47 120
q0 89 51 130t160 41q20 0 51 -2t62 -6v59q0 55 -25.5 79.5t-83.5 24.5q-48 0 -72 -14t-38 -46q-5 -11 -8 -14t-15 -3h-36q-13 0 -17.5 4t-4.5 15q0 14 7.5 30.5t20.5 30.5q26 30 65 45t98 15q65 0 105 -17t59 -54q54 71 156 71q206 0 206 -229v-51q0 -12 -4.5 -16t-16.5 -4
h-317v-19q0 -165 134 -165q85 0 113 65q5 12 8.5 14.5t14.5 2.5h36q14 0 18 -2.5t4 -13.5q0 -14 -11 -36t-25 -38q-25 -28 -67.5 -44t-93.5 -16z" />
    <glyph glyph-name="oe" unicode="&#x153;" horiz-adv-x="866" 
d="M265 538q63 0 107.5 -23.5t69.5 -67.5q52 91 171 91q206 0 206 -229v-51q0 -12 -4.5 -16t-16.5 -4h-317v-19q0 -165 134 -165q85 0 113 65q5 12 8.5 14.5t14.5 2.5h36q14 0 18 -2.5t4 -13.5q0 -14 -11 -36t-25 -38q-25 -28 -67.5 -44t-93.5 -16q-122 0 -172 87
q-26 -42 -70 -64.5t-105 -22.5q-103 0 -159.5 57t-56.5 161v106q0 109 56.5 168.5t159.5 59.5zM265 470q-137 0 -137 -166v-84q0 -166 137 -166t137 166v84q0 166 -137 166zM613 476q-131 0 -132 -173h258q0 89 -30.5 131t-95.5 42z" />
    <glyph glyph-name="germandbls" unicode="&#xdf;" horiz-adv-x="532" 
d="M268 726q94 0 144 -41.5t50 -117.5v-17q0 -57 -23.5 -92t-76.5 -57q121 -24 121 -165v-36q0 -200 -206 -200h-22q-11 0 -14 4t-3 16v30q0 12 3 16t14 4h5q76 0 108 33t32 111v4q0 76 -33 110t-107 34h-5q-11 0 -14 4t-3 16v28q0 12 3 16t14 4h4q56 0 88 32t32 88
q0 60 -27 87t-87 27q-33 0 -55 -8.5t-36 -28.5t-20 -52.5t-6 -79.5v-475q0 -12 -4.5 -16t-16.5 -4h-37q-12 0 -16.5 4t-4.5 16v479q0 120 47 173.5t152 53.5z" />
    <glyph glyph-name="longs" unicode="&#x17f;" horiz-adv-x="217" 
d="M259 712q11 0 14 -4t3 -16v-27q0 -12 -3 -16t-14 -4h-29q-45 0 -63.5 -18t-18.5 -62v-545q0 -12 -4.5 -16t-16.5 -4h-37q-12 0 -16.5 4t-4.5 16v549q0 69 40 106t114 37h36z" />
    <glyph glyph-name="kgreenlandic" unicode="&#x138;" horiz-adv-x="499" 
d="M440 524q18 0 18 -13q0 -3 -1 -5.5t-6 -7.5l-143 -163l183 -309q4 -7 4 -13q0 -13 -18 -13h-50q-11 0 -15.5 3.5t-12.5 16.5l-145 254l-106 -121v-133q0 -12 -4.5 -16t-16.5 -4h-37q-12 0 -16.5 4t-4.5 16v484q0 12 4.5 16t16.5 4h37q12 0 16.5 -4t4.5 -16v-250l216 250
q11 12 17.5 16t20.5 4h38z" />
    <glyph glyph-name="florin" unicode="&#x192;" horiz-adv-x="322" 
d="M298 712q11 0 14 -4t3 -16v-27q0 -12 -3 -16t-14 -4h-29q-45 0 -63.5 -18t-18.5 -62v-41h91q11 0 14 -4t3 -16v-26q0 -12 -3 -16t-14 -4h-91v-497q0 -132 -139 -132h-45q-11 0 -14 4t-3 16v30q0 12 3 16t14 4h29q44 0 60 14.5t16 52.5v492h-64q-11 0 -14 4t-3 16v26
q0 12 3 16t14 4h64v45q0 69 40 106t114 37h36z" />
    <glyph glyph-name="Eth" unicode="&#xd0;" horiz-adv-x="607" 
d="M549 278q0 -49 -5.5 -84.5t-17.5 -64.5q-25 -62 -82.5 -95.5t-138.5 -33.5h-208q-12 0 -16.5 4t-4.5 16v304h-48q-11 0 -14 4t-3 16v23q0 12 3 16t14 4h48v305q0 12 4.5 16t16.5 4h203q82 0 142.5 -35t83.5 -96q23 -63 23 -152v-151zM467 436q0 108 -40.5 158t-128.5 50
h-142v-257h89q11 0 14 -4t3 -16v-23q0 -12 -3 -16t-14 -4h-89v-256h142q88 0 128.5 50t40.5 158v160z" />
    <glyph glyph-name="Dcroat" unicode="&#x110;" horiz-adv-x="607" 
d="M549 278q0 -49 -5.5 -84.5t-17.5 -64.5q-25 -62 -82.5 -95.5t-138.5 -33.5h-208q-12 0 -16.5 4t-4.5 16v304h-48q-11 0 -14 4t-3 16v23q0 12 3 16t14 4h48v305q0 12 4.5 16t16.5 4h203q82 0 142.5 -35t83.5 -96q23 -63 23 -152v-151zM467 436q0 108 -40.5 158t-128.5 50
h-142v-257h89q11 0 14 -4t3 -16v-23q0 -12 -3 -16t-14 -4h-89v-256h142q88 0 128.5 50t40.5 158v160z" />
    <glyph glyph-name="Hbar" unicode="&#x126;" horiz-adv-x="642" 
d="M566 591h58q11 0 14 -4t3 -16v-19q0 -12 -3 -16t-14 -4h-58v-512q0 -12 -4.5 -16t-16.5 -4h-38q-12 0 -16.5 4t-4.5 16v322h-330v-322q0 -12 -4.5 -16t-16.5 -4h-38q-12 0 -16.5 4t-4.5 16v512h-58q-11 0 -14 4t-3 16v19q0 12 3 16t14 4h58v101q0 12 4.5 16t16.5 4h38
q12 0 16.5 -4t4.5 -16v-101h330v101q0 12 4.5 16t16.5 4h38q12 0 16.5 -4t4.5 -16v-101zM486 412v120h-330v-120h330z" />
    <glyph glyph-name="Tbar" unicode="&#x166;" horiz-adv-x="550" 
d="M235 326h-119q-11 0 -14 4t-3 16v19q0 12 3 16t14 4h119v259h-192q-12 0 -16.5 4t-4.5 16v28q0 12 4.5 16t16.5 4h464q12 0 16.5 -4t4.5 -16v-28q0 -12 -4.5 -16t-16.5 -4h-192v-259h119q11 0 14 -4t3 -16v-19q0 -12 -3 -16t-14 -4h-119v-306q0 -12 -4.5 -16t-16.5 -4
h-38q-12 0 -16.5 4t-4.5 16v306z" />
    <glyph glyph-name="Eng" unicode="&#x14a;" horiz-adv-x="622" 
d="M468 152v540q0 12 4.5 16t16.5 4h36q12 0 16.5 -4t4.5 -16v-731q0 -132 -139 -132h-79q-11 0 -14 4t-3 16v30q0 12 3 16t14 4h63q44 0 60 14.5t16 52.5v34l-313 577v-557q0 -12 -4.5 -16t-16.5 -4h-36q-12 0 -16.5 4t-4.5 16v672q0 12 4.5 16t16.5 4h49q11 0 16.5 -4
t11.5 -15z" />
    <glyph glyph-name="Lslash" unicode="&#x141;" horiz-adv-x="498" 
d="M156 431l91 97q7 7 11 7q9 0 9 -12v-44q0 -13 -20 -33l-91 -97v-281h292q12 0 16.5 -4t4.5 -16v-28q0 -12 -4.5 -16t-16.5 -4h-351q-12 0 -16.5 4t-4.5 16v244l-45 -47q-7 -7 -11 -7q-9 0 -9 12v44q0 13 20 33l45 47v346q0 12 4.5 16t16.5 4h38q12 0 16.5 -4t4.5 -16
v-261z" />
    <glyph glyph-name="Oslash" unicode="&#xd8;" horiz-adv-x="616" 
d="M308 728q96 0 157 -44l28 47q6 11 12 11q3 0 6 -1.5t8 -4.5l16 -10q8 -5 10.5 -7.5t2.5 -5.5q0 -4 -5 -12l-35 -60q8 -11 15 -23t13 -26q6 -15 10.5 -30t7 -33t3.5 -40t1 -51v-154q0 -30 -1 -53t-3.5 -41.5t-7 -34t-10.5 -30.5q-56 -141 -228 -141q-98 0 -160 44l-26 -45
q-6 -11 -12 -11q-4 0 -14 6l-16 10q-8 5 -10.5 7.5t-2.5 5.5q0 4 5 12l34 58q-8 11 -14.5 22t-11.5 25q-6 15 -10.5 30.5t-7 33.5t-3.5 40.5t-1 51.5v154q0 30 1 53t3.5 41.5t7 34t10.5 30.5q56 141 228 141zM308 54q88 0 128 50.5t40 162.5v178q0 70 -16 115l-272 -464
q41 -42 120 -42zM308 658q-88 0 -128 -50.5t-40 -162.5v-178q0 -68 15 -113l271 463q-40 41 -118 41z" />
    <glyph glyph-name="eth" unicode="&#xf0;" horiz-adv-x="523" 
d="M372 638q29 -25 48.5 -53t31.5 -62.5t17 -76.5t5 -96v-158q0 -99 -54.5 -152.5t-157.5 -53.5t-158 50.5t-55 145.5v109q0 46 14.5 84t40.5 65t63.5 42t83.5 15q39 0 79 -13.5t62 -38.5q-2 26 -7.5 47t-14.5 39t-22.5 33.5t-32.5 30.5l-78 -59q-8 -5 -11 -5q-4 0 -7 2
t-8 9l-9 12q-7 9 -7 14q0 6 7 11l65 49q-17 11 -38 21q-12 5 -12 13q0 5 5 15l12 24q6 13 15 13q5 0 13 -4l34.5 -18.5t29.5 -18.5l57 43q7 5 11 5t7 -2t8 -9l9 -12q7 -10 7 -14q0 -5 -7 -11zM262 54q133 0 133 143v96q0 136 -133 136q-134 0 -134 -143v-88q0 -144 134 -144
z" />
    <glyph glyph-name="dcroat" unicode="&#x111;" horiz-adv-x="539" 
d="M254 538q97 0 147 -62v109h-86q-11 0 -14 4t-3 16v23q0 12 3 16t14 4h86v44q0 12 4.5 16t16.5 4h37q12 0 16.5 -4t4.5 -16v-44h58q11 0 14 -4t3 -16v-23q0 -12 -3 -16t-14 -4h-58v-371q0 -109 -56.5 -168.5t-159.5 -59.5t-159 55.5t-56 157.5v111q0 107 54 167.5
t151 60.5zM128 220q0 -166 136 -166q137 0 137 166v84q0 166 -136 166q-137 0 -137 -166v-84z" />
    <glyph glyph-name="hbar" unicode="&#x127;" horiz-adv-x="536" 
d="M300 538q84 0 128 -45t44 -131v-342q0 -12 -4.5 -16t-16.5 -4h-37q-12 0 -16.5 4t-4.5 16v325q0 64 -27 93.5t-87 29.5t-95.5 -38.5t-35.5 -102.5v-307q0 -12 -4.5 -16t-16.5 -4h-37q-12 0 -16.5 4t-4.5 16v565h-58q-11 0 -14 4t-3 16v23q0 12 3 16t14 4h58v44
q0 12 4.5 16t16.5 4h37q12 0 16.5 -4t4.5 -16v-44h86q11 0 14 -4t3 -16v-23q0 -12 -3 -16t-14 -4h-86v-114q26 32 65 49.5t87 17.5z" />
    <glyph glyph-name="tbar" unicode="&#x167;" horiz-adv-x="340" 
d="M233 0q-68 0 -99 32t-31 101v140h-65q-11 0 -14 4t-3 16v23q0 12 3 16t14 4h65v122h-65q-11 0 -14 4t-3 16v26q0 12 3 16t14 4h65v127q0 12 4.5 16t16.5 4h37q12 0 16.5 -4t4.5 -16v-127h103q11 0 14 -4t3 -16v-26q0 -12 -3 -16t-14 -4h-103v-122h103q11 0 14 -4t3 -16
v-23q0 -12 -3 -16t-14 -4h-103v-127q0 -41 13.5 -58.5t44.5 -17.5h47q11 0 14 -4t3 -16v-30q0 -12 -3 -16t-14 -4h-54z" />
    <glyph glyph-name="eng" unicode="&#x14b;" horiz-adv-x="536" 
d="M288 -171q-11 0 -14 4t-3 16v30q0 12 3 16t14 4h29q44 0 60 14.5t16 52.5v379q0 64 -27 93.5t-87 29.5t-95.5 -38.5t-35.5 -102.5v-307q0 -12 -4.5 -16t-16.5 -4h-37q-12 0 -16.5 4t-4.5 16v484q0 12 4.5 16t16.5 4h35q12 0 16.5 -4t4.5 -16v-35q25 33 64.5 51t89.5 18
q84 0 128 -45t44 -131v-401q0 -132 -139 -132h-45z" />
    <glyph glyph-name="lslash" unicode="&#x142;" horiz-adv-x="239" 
d="M159 451l49 55q5 5 9 5q9 0 9 -12v-40q0 -11 -3 -16.5t-14 -17.5l-50 -56v-349q0 -12 -4.5 -16t-16.5 -4h-37q-12 0 -16.5 4t-4.5 16v262l-49 -54q-5 -5 -9 -5q-9 0 -9 12v40q0 11 3 16.5t14 17.5l50 55v328q0 12 4.5 16t16.5 4h37q12 0 16.5 -4t4.5 -16v-241z" />
    <glyph glyph-name="oslash" unicode="&#xf8;" horiz-adv-x="530" 
d="M265 538q79 0 132 -35l27 40q6 9 12 9q5 0 14 -7l11 -8q11 -8 11 -13t-7 -15l-28 -42q44 -56 44 -147v-106q0 -109 -56.5 -168.5t-159.5 -59.5q-77 0 -129 32l-23 -35q-6 -9 -12 -9q-5 0 -14 7l-11 8q-11 8 -11 13t7 15l24 36q-47 56 -47 151v106q0 109 56.5 168.5
t159.5 59.5zM265 54q137 0 137 166v84q0 53 -14 90l-211 -315q32 -25 88 -25zM265 470q-137 0 -137 -166v-84q0 -60 16 -96l212 317q-34 29 -91 29z" />
    <glyph glyph-name="uni0327" unicode="&#x327;" 
d="M43 33l5 -46l4.5 -46t2.5 -40q0 -41 -25 -63t-74 -22h-72q-11 0 -14 4t-3 16v26q0 12 3 16t14 4h61q22 0 29.5 8t7.5 30q0 9 -2 29.5t-4 37.5l-5 46h72z" />
    <glyph glyph-name="uni0327.cap" 
d="M34 33l5 -46l4.5 -46t2.5 -40q0 -41 -25 -63t-74 -22h-72q-11 0 -14 4t-3 16v26q0 12 3 16t14 4h59q22 0 29.5 8t7.5 30q0 9 -2 29.5t-4 37.5l-5 46h74z" />
    <glyph glyph-name="cedilla" unicode="&#xb8;" horiz-adv-x="500" 
d="M332 33l5 -46l4.5 -46t2.5 -40q0 -41 -25 -63t-74 -22h-72q-11 0 -14 4t-3 16v26q0 12 3 16t14 4h61q22 0 29.5 8t7.5 30q0 9 -2 29.5t-4 37.5l-5 46h72z" />
    <glyph glyph-name="uni0326" unicode="&#x326;" 
d="M-53 -197q0 4 4 13l27 59q-25 7 -25 33v14q0 19 12 29.5t33 10.5q22 0 34.5 -10.5t12.5 -29.5v-14q0 -27 -17 -56l-22 -37q-8 -13 -13 -16.5t-17 -3.5h-17q-12 0 -12 8z" />
    <glyph glyph-name="uni0326.cap" 
d="M-53 -197q0 4 4 13l27 59q-25 7 -25 33v14q0 19 12 29.5t33 10.5q22 0 34.5 -10.5t12.5 -29.5v-14q0 -27 -17 -56l-22 -37q-8 -13 -13 -16.5t-17 -3.5h-17q-12 0 -12 8z" />
    <glyph glyph-name="uni0312" unicode="&#x312;" 
d="M56 737q0 -2 -0.5 -4.5t-3.5 -8.5l-27 -59q25 -8 25 -33v-14q0 -19 -12 -29.5t-33 -10.5q-22 0 -34.5 10.5t-12.5 29.5v14q0 27 17 56l22 37q8 13 13 16.5t17 3.5h17q12 0 12 -8z" />
    <glyph glyph-name="uni0328" unicode="&#x328;" 
d="M34 3l-30 -28q-29 -26 -37.5 -38.5t-8.5 -27.5q0 -27 40 -27h25q11 0 14 -4t3 -16v-26q0 -12 -3 -16t-14 -4h-39q-103 0 -103 72q0 14 3 26.5t10.5 25t20 26t30.5 30.5l58 54z" />
    <glyph glyph-name="uni0328.cap" 
d="M34 3l-30 -28q-29 -26 -37.5 -38.5t-8.5 -27.5q0 -27 40 -27h25q11 0 14 -4t3 -16v-26q0 -12 -3 -16t-14 -4h-39q-103 0 -103 72q0 14 3 26.5t10.5 25t20 26t30.5 30.5l58 54z" />
    <glyph glyph-name="uni0328.round" 
d="M81 44l-50 -61q-21 -26 -28 -40.5t-7 -28.5q0 -19 10.5 -25.5t29.5 -6.5h25q11 0 14 -4t3 -16v-26q0 -12 -3 -16t-14 -4h-39q-54 0 -78.5 18.5t-24.5 56.5q0 15 2.5 26.5t9 24t17 27.5t27.5 35l52 65z" />
    <glyph glyph-name="uni0328.round.cap" 
d="M111 54l-58 -71q-21 -26 -28 -40.5t-7 -28.5q0 -19 10.5 -25.5t29.5 -6.5h25q11 0 14 -4t3 -16v-26q0 -12 -3 -16t-14 -4h-39q-54 0 -78.5 18.5t-24.5 56.5q0 15 2.5 26.5t9 24t17 27.5t27.5 35l52 65z" />
    <glyph glyph-name="ogonek" unicode="&#x2db;" horiz-adv-x="500" 
d="M323 3l-30 -28q-29 -26 -37.5 -38.5t-8.5 -27.5q0 -27 40 -27h25q11 0 14 -4t3 -16v-26q0 -12 -3 -16t-14 -4h-39q-103 0 -103 72q0 14 3 26.5t10.5 25t20 26t30.5 30.5l58 54z" />
    <glyph glyph-name="Ccedilla" unicode="&#xc7;" horiz-adv-x="589" 
d="M463 189q1 11 5.5 14t17.5 3h35q13 0 17.5 -4t4.5 -15q0 -41 -13.5 -77t-37.5 -60q-67 -66 -189 -66q-81 0 -138.5 31.5t-85.5 97.5q-11 29 -16 64.5t-5 91.5v164q0 57 5 93t16 64q27 68 85.5 103t146.5 35q127 0 183 -64q49 -53 49 -136q0 -11 -4.5 -15t-17.5 -4h-37
q-13 0 -17.5 3t-5.5 14q-10 131 -155 131q-88 0 -127 -50t-39 -162v-178q0 -111 39 -161t126 -50q146 0 158 133zM344 33l5 -46l4.5 -46t2.5 -40q0 -41 -25 -63t-74 -22h-72q-11 0 -14 4t-3 16v26q0 12 3 16t14 4h59q22 0 29.5 8t7.5 30q0 9 -2 29.5t-4 37.5l-5 46h74z" />
    <glyph glyph-name="Scedilla" unicode="&#x15e;" horiz-adv-x="550" 
d="M124 155q11 -49 50.5 -74.5t104.5 -25.5q69 0 107 32.5t38 92.5q0 92 -99 127l-129 43q-141 48 -141 178v5q0 93 60.5 144t171.5 51q63 0 105 -16t71 -51q16 -19 26 -46t10 -50q0 -11 -4.5 -15t-17.5 -4h-35q-13 0 -17 3t-6 14q-15 97 -140 97q-68 0 -106 -32t-38 -89
q0 -24 5.5 -42.5t18 -33t33.5 -25.5t52 -21l129 -43q66 -23 100 -70.5t34 -115.5v-5q0 -45 -16 -82t-45 -63t-71 -40t-93 -14q-125 0 -186 58q-22 21 -37 53t-15 58q0 11 4.5 15t17.5 4h35q12 0 16.5 -3t6.5 -14zM325 33l5 -46l4.5 -46t2.5 -40q0 -41 -25 -63t-74 -22h-72
q-11 0 -14 4t-3 16v26q0 12 3 16t14 4h59q22 0 29.5 8t7.5 30q0 9 -2 29.5t-4 37.5l-5 46h74z" />
    <glyph glyph-name="uni0162" unicode="&#x162;" horiz-adv-x="550" 
d="M235 644h-192q-12 0 -16.5 4t-4.5 16v28q0 12 4.5 16t16.5 4h464q12 0 16.5 -4t4.5 -16v-28q0 -12 -4.5 -16t-16.5 -4h-192v-624q0 -12 -4.5 -16t-16.5 -4h-38q-12 0 -16.5 4t-4.5 16v624zM311 33l5 -46l4.5 -46t2.5 -40q0 -41 -25 -63t-74 -22h-72q-11 0 -14 4t-3 16v26
q0 12 3 16t14 4h59q22 0 29.5 8t7.5 30q0 9 -2 29.5t-4 37.5l-5 46h74z" />
    <glyph glyph-name="uni0123" unicode="&#x123;" horiz-adv-x="537" 
d="M155 -74q11 -23 36 -34.5t70 -11.5q71 0 103 28q35 32 35 100v47q-25 -29 -62 -44t-84 -15q-99 0 -151.5 56t-52.5 162v96q0 109 55.5 168.5t158.5 59.5t159 -57t56 -161v-308q0 -57 -15 -95t-43.5 -60.5t-68.5 -32t-91 -9.5q-42 0 -76.5 8t-59 23t-38.5 35.5t-14 45.5
q0 11 4 13.5t18 2.5h38q11 0 14.5 -2.5t8.5 -14.5zM128 230q0 -166 136 -166q135 0 135 166v74q0 166 -136 166q-135 0 -135 -166v-74zM320 737q0 -2 -0.5 -4.5t-3.5 -8.5l-27 -59q25 -8 25 -33v-14q0 -19 -12 -29.5t-33 -10.5q-22 0 -34.5 10.5t-12.5 29.5v14q0 27 17 56
l22 37q8 13 13 16.5t17 3.5h17q12 0 12 -8z" />
    <glyph glyph-name="uni0137" unicode="&#x137;" horiz-adv-x="499" 
d="M148 272l214 232q12 13 19 16.5t19 3.5h40q18 0 18 -13q0 -3 -1 -5.5t-6 -7.5l-153 -162l193 -310q4 -7 4 -13q0 -13 -18 -13h-52q-11 0 -15.5 3.5t-12.5 16.5l-154 257l-95 -100v-157q0 -12 -4.5 -16t-16.5 -4h-37q-12 0 -16.5 4t-4.5 16v672q0 12 4.5 16t16.5 4h37
q12 0 16.5 -4t4.5 -16v-420zM211 -197q0 4 4 13l27 59q-25 7 -25 33v14q0 19 12 29.5t33 10.5q22 0 34.5 -10.5t12.5 -29.5v-14q0 -27 -17 -56l-22 -37q-8 -13 -13 -16.5t-17 -3.5h-17q-12 0 -12 8z" />
    <glyph glyph-name="uni013C" unicode="&#x13c;" horiz-adv-x="217" 
d="M148 20q0 -12 -4.5 -16t-16.5 -4h-37q-12 0 -16.5 4t-4.5 16v672q0 12 4.5 16t16.5 4h37q12 0 16.5 -4t4.5 -16v-672zM55 -197q0 4 4 13l27 59q-25 7 -25 33v14q0 19 12 29.5t33 10.5q22 0 34.5 -10.5t12.5 -29.5v-14q0 -27 -17 -56l-22 -37q-8 -13 -13 -16.5t-17 -3.5
h-17q-12 0 -12 8z" />
    <glyph glyph-name="uni0146" unicode="&#x146;" horiz-adv-x="536" 
d="M300 538q84 0 128 -45t44 -131v-342q0 -12 -4.5 -16t-16.5 -4h-37q-12 0 -16.5 4t-4.5 16v325q0 64 -27 93.5t-87 29.5t-95.5 -38.5t-35.5 -102.5v-307q0 -12 -4.5 -16t-16.5 -4h-37q-12 0 -16.5 4t-4.5 16v484q0 12 4.5 16t16.5 4h35q12 0 16.5 -4t4.5 -16v-35
q25 33 64.5 51t89.5 18zM217 -197q0 4 4 13l27 59q-25 7 -25 33v14q0 19 12 29.5t33 10.5q22 0 34.5 -10.5t12.5 -29.5v-14q0 -27 -17 -56l-22 -37q-8 -13 -13 -16.5t-17 -3.5h-17q-12 0 -12 8z" />
    <glyph glyph-name="uni0157" unicode="&#x157;" horiz-adv-x="340" 
d="M146 428q19 43 57.5 69.5t86.5 26.5h13q11 0 14 -4t3 -16v-36q0 -12 -3 -16t-14 -4h-26q-30 0 -53.5 -13t-40.5 -36.5t-26 -55t-9 -68.5v-255q0 -12 -4.5 -16t-16.5 -4h-37q-12 0 -16.5 4t-4.5 16v484q0 12 4.5 16t16.5 4h35q12 0 16.5 -4t4.5 -16v-76zM55 -197q0 4 4 13
l27 59q-25 7 -25 33v14q0 19 12 29.5t33 10.5q22 0 34.5 -10.5t12.5 -29.5v-14q0 -27 -17 -56l-22 -37q-8 -13 -13 -16.5t-17 -3.5h-17q-12 0 -12 8z" />
    <glyph glyph-name="uni0219" unicode="&#x219;" horiz-adv-x="475" 
d="M241 -14q-109 0 -161 49q-39 37 -39 88q0 11 4.5 15t17.5 4h29q12 0 16.5 -3t6.5 -14q9 -40 38 -58t86 -18q114 0 114 81q0 38 -20.5 59.5t-70.5 34.5l-89 23q-62 17 -91 49.5t-29 86.5v5q0 69 50 109.5t137 40.5q105 0 152 -50q36 -36 36 -85q0 -11 -4.5 -15t-17.5 -4
h-29q-13 0 -17 3t-6 14q-12 75 -121 75q-50 0 -77.5 -22t-27.5 -62q0 -17 5 -29t17 -22t31.5 -18t48.5 -15l82 -21q120 -30 120 -146v-5q0 -150 -191 -150zM190 -197q0 4 4 13l27 59q-25 7 -25 33v14q0 19 12 29.5t33 10.5q22 0 34.5 -10.5t12.5 -29.5v-14q0 -27 -17 -56
l-22 -37q-8 -13 -13 -16.5t-17 -3.5h-17q-12 0 -12 8z" />
    <glyph glyph-name="uni021B" unicode="&#x21b;" horiz-adv-x="340" 
d="M233 0q-68 0 -99 32t-31 101v325h-65q-11 0 -14 4t-3 16v26q0 12 3 16t14 4h65v127q0 12 4.5 16t16.5 4h37q12 0 16.5 -4t4.5 -16v-127h103q11 0 14 -4t3 -16v-26q0 -12 -3 -16t-14 -4h-103v-312q0 -41 13.5 -58.5t44.5 -17.5h47q11 0 14 -4t3 -16v-30q0 -12 -3 -16
t-14 -4h-54zM143 -197q0 4 4 13l27 59q-25 7 -25 33v14q0 19 12 29.5t33 10.5q22 0 34.5 -10.5t12.5 -29.5v-14q0 -27 -17 -56l-22 -37q-8 -13 -13 -16.5t-17 -3.5h-17q-12 0 -12 8z" />
    <glyph glyph-name="Aogonek" unicode="&#x104;" horiz-adv-x="602" 
d="M586 21q2 -6 2 -9q0 -12 -16 -12h-45q-13 0 -17 3t-8 14l-59 178h-288l-58 -178q-4 -11 -8 -14t-17 -3h-42q-16 0 -16 12q0 3 2 9l229 669q4 12 9 17t17 5h64q12 0 17 -5.5t9 -16.5zM178 265h242l-120 368zM584 3l-30 -28q-29 -26 -37.5 -38.5t-8.5 -27.5q0 -27 40 -27
h25q11 0 14 -4t3 -16v-26q0 -12 -3 -16t-14 -4h-39q-103 0 -103 72q0 14 3 26.5t10.5 25t20 26t30.5 30.5l58 54z" />
    <glyph glyph-name="Eogonek" unicode="&#x118;" horiz-adv-x="550" 
d="M492 20q0 -12 -4.5 -16t-16.5 -4h-374q-12 0 -16.5 4t-4.5 16v672q0 12 4.5 16t16.5 4h370q12 0 16.5 -4t4.5 -16v-28q0 -12 -4.5 -16t-16.5 -4h-311v-244h285q12 0 16.5 -4t4.5 -16v-28q0 -12 -4.5 -16t-16.5 -4h-285v-264h315q12 0 16.5 -4t4.5 -16v-28zM486 3l-30 -28
q-29 -26 -37.5 -38.5t-8.5 -27.5q0 -27 40 -27h25q11 0 14 -4t3 -16v-26q0 -12 -3 -16t-14 -4h-39q-103 0 -103 72q0 14 3 26.5t10.5 25t20 26t30.5 30.5l58 54z" />
    <glyph glyph-name="Iogonek" unicode="&#x12e;" horiz-adv-x="232" 
d="M156 20q0 -12 -4.5 -16t-16.5 -4h-38q-12 0 -16.5 4t-4.5 16v672q0 12 4.5 16t16.5 4h38q12 0 16.5 -4t4.5 -16v-672zM150 3l-30 -28q-29 -26 -37.5 -38.5t-8.5 -27.5q0 -27 40 -27h25q11 0 14 -4t3 -16v-26q0 -12 -3 -16t-14 -4h-39q-103 0 -103 72q0 14 3 26.5t10.5 25
t20 26t30.5 30.5l58 54z" />
    <glyph glyph-name="Uogonek" unicode="&#x172;" horiz-adv-x="616" 
d="M547 242q0 -128 -59.5 -193t-175.5 -65h-9q-234 0 -234 258v450q0 12 4.5 16t16.5 4h38q12 0 16.5 -4t4.5 -16v-451q0 -183 152 -183h13q153 0 153 183v451q0 12 4.5 16t16.5 4h38q12 0 16.5 -4t4.5 -16v-450zM491 54l-58 -71q-21 -26 -28 -40.5t-7 -28.5
q0 -19 10.5 -25.5t29.5 -6.5h25q11 0 14 -4t3 -16v-26q0 -12 -3 -16t-14 -4h-39q-54 0 -78.5 18.5t-24.5 56.5q0 15 2.5 26.5t9 24t17 27.5t27.5 35l52 65z" />
    <glyph glyph-name="ccedilla" unicode="&#xe7;" horiz-adv-x="496" 
d="M256 54q102 0 117 86q2 11 6 14t17 3h33q13 0 17.5 -4t4.5 -15q0 -18 -7.5 -40.5t-21.5 -42.5q-46 -69 -168 -69q-101 0 -153 55t-52 163v99q0 117 52 176t153 59q109 0 158 -55q38 -43 38 -97q0 -11 -4.5 -15t-17.5 -4h-32q-13 0 -17 3t-6 14q-5 42 -34.5 64.5
t-80.5 22.5q-68 0 -99 -39.5t-31 -127.5v-84q0 -86 31 -126t97 -40zM294 33l5 -46l4.5 -46t2.5 -40q0 -41 -25 -63t-74 -22h-72q-11 0 -14 4t-3 16v26q0 12 3 16t14 4h61q22 0 29.5 8t7.5 30q0 9 -2 29.5t-4 37.5l-5 46h72z" />
    <glyph glyph-name="scedilla" unicode="&#x15f;" horiz-adv-x="475" 
d="M241 -14q-109 0 -161 49q-39 37 -39 88q0 11 4.5 15t17.5 4h29q12 0 16.5 -3t6.5 -14q9 -40 38 -58t86 -18q114 0 114 81q0 38 -20.5 59.5t-70.5 34.5l-89 23q-62 17 -91 49.5t-29 86.5v5q0 69 50 109.5t137 40.5q105 0 152 -50q36 -36 36 -85q0 -11 -4.5 -15t-17.5 -4
h-29q-13 0 -17 3t-6 14q-12 75 -121 75q-50 0 -77.5 -22t-27.5 -62q0 -17 5 -29t17 -22t31.5 -18t48.5 -15l82 -21q120 -30 120 -146v-5q0 -150 -191 -150zM286 33l5 -46l4.5 -46t2.5 -40q0 -41 -25 -63t-74 -22h-72q-11 0 -14 4t-3 16v26q0 12 3 16t14 4h61q22 0 29.5 8
t7.5 30q0 9 -2 29.5t-4 37.5l-5 46h72z" />
    <glyph glyph-name="uni0163" unicode="&#x163;" horiz-adv-x="340" 
d="M233 0q-68 0 -99 32t-31 101v325h-65q-11 0 -14 4t-3 16v26q0 12 3 16t14 4h65v127q0 12 4.5 16t16.5 4h37q12 0 16.5 -4t4.5 -16v-127h103q11 0 14 -4t3 -16v-26q0 -12 -3 -16t-14 -4h-103v-312q0 -41 13.5 -58.5t44.5 -17.5h47q11 0 14 -4t3 -16v-30q0 -12 -3 -16
t-14 -4h-54zM249 33l5 -46l4.5 -46t2.5 -40q0 -41 -25 -63t-74 -22h-72q-11 0 -14 4t-3 16v26q0 12 3 16t14 4h61q22 0 29.5 8t7.5 30q0 9 -2 29.5t-4 37.5l-5 46h72z" />
    <glyph glyph-name="uni0122" unicode="&#x122;" horiz-adv-x="610" 
d="M58 428q0 59 5 95t16 64q28 69 87.5 105t149.5 36q60 0 104 -14.5t77 -46.5q11 -11 21 -27.5t17.5 -35.5t12 -38.5t4.5 -37.5q0 -11 -4.5 -15t-17.5 -4h-37q-12 0 -16 3.5t-5 13.5q-7 65 -48 98.5t-115 33.5q-89 0 -129 -50.5t-40 -162.5v-178q0 -112 40 -162.5
t129 -50.5q162 0 162 178v47h-102q-12 0 -16.5 4t-4.5 16v31q0 12 4.5 16t16.5 4h162q21 0 21 -20v-106q0 -114 -64.5 -177t-180.5 -63q-85 0 -142.5 32.5t-85.5 98.5q-11 29 -16 63t-5 86v164zM255 -197q0 4 4 13l27 59q-25 7 -25 33v14q0 19 12 29.5t33 10.5
q22 0 34.5 -10.5t12.5 -29.5v-14q0 -27 -17 -56l-22 -37q-8 -13 -13 -16.5t-17 -3.5h-17q-12 0 -12 8z" />
    <glyph glyph-name="uni0136" unicode="&#x136;" horiz-adv-x="583" 
d="M317 428l241 -408q2 -4 2.5 -5.5t0.5 -3.5q0 -11 -18 -11h-54q-11 0 -16 3.5t-13 16.5l-198 341l-107 -128v-213q0 -12 -4.5 -16t-16.5 -4h-37q-12 0 -16.5 4t-4.5 16v672q0 12 4.5 16t16.5 4h37q12 0 16.5 -4t4.5 -16v-351l285 351q11 14 15 17t14 3h55q14 0 14 -11
q0 -4 -4 -9zM240 -197q0 4 4 13l27 59q-25 7 -25 33v14q0 19 12 29.5t33 10.5q22 0 34.5 -10.5t12.5 -29.5v-14q0 -27 -17 -56l-22 -37q-8 -13 -13 -16.5t-17 -3.5h-17q-12 0 -12 8z" />
    <glyph glyph-name="uni013B" unicode="&#x13b;" horiz-adv-x="498" 
d="M469 20q0 -12 -4.5 -16t-16.5 -4h-351q-12 0 -16.5 4t-4.5 16v672q0 12 4.5 16t16.5 4h38q12 0 16.5 -4t4.5 -16v-624h292q12 0 16.5 -4t4.5 -16v-28zM219 -197q0 4 4 13l27 59q-25 7 -25 33v14q0 19 12 29.5t33 10.5q22 0 34.5 -10.5t12.5 -29.5v-14q0 -27 -17 -56
l-22 -37q-8 -13 -13 -16.5t-17 -3.5h-17q-12 0 -12 8z" />
    <glyph glyph-name="uni0145" unicode="&#x145;" horiz-adv-x="622" 
d="M154 577v-557q0 -12 -4.5 -16t-16.5 -4h-36q-12 0 -16.5 4t-4.5 16v672q0 12 4.5 16t16.5 4h49q11 0 16.5 -4t11.5 -15l294 -558v557q0 12 4.5 16t16.5 4h36q12 0 16.5 -4t4.5 -16v-672q0 -12 -4.5 -16t-16.5 -4h-49q-11 0 -16.5 4t-11.5 15zM253 -197q0 4 4 13l27 59
q-25 7 -25 33v14q0 19 12 29.5t33 10.5q22 0 34.5 -10.5t12.5 -29.5v-14q0 -27 -17 -56l-22 -37q-8 -13 -13 -16.5t-17 -3.5h-17q-12 0 -12 8z" />
    <glyph glyph-name="uni0156" unicode="&#x156;" horiz-adv-x="590" 
d="M154 301v-281q0 -12 -4.5 -16t-16.5 -4h-36q-12 0 -16.5 4t-4.5 16v672q0 12 4.5 16t16.5 4h200q112 0 170 -44.5t58 -153.5v-19q0 -78 -36 -124t-103 -62l163 -289q3 -6 3 -9q0 -11 -18 -11h-49q-11 0 -16.5 3.5t-12.5 16.5l-154 281h-148zM154 369h146q47 0 75 10
t43 27t19.5 40t4.5 49v15q0 28 -4.5 52.5t-19.5 42.5t-43 28.5t-75 10.5h-146v-275zM242 -197q0 4 4 13l27 59q-25 7 -25 33v14q0 19 12 29.5t33 10.5q22 0 34.5 -10.5t12.5 -29.5v-14q0 -27 -17 -56l-22 -37q-8 -13 -13 -16.5t-17 -3.5h-17q-12 0 -12 8z" />
    <glyph glyph-name="uni0218" unicode="&#x218;" horiz-adv-x="550" 
d="M124 155q11 -49 50.5 -74.5t104.5 -25.5q69 0 107 32.5t38 92.5q0 92 -99 127l-129 43q-141 48 -141 178v5q0 93 60.5 144t171.5 51q63 0 105 -16t71 -51q16 -19 26 -46t10 -50q0 -11 -4.5 -15t-17.5 -4h-35q-13 0 -17 3t-6 14q-15 97 -140 97q-68 0 -106 -32t-38 -89
q0 -24 5.5 -42.5t18 -33t33.5 -25.5t52 -21l129 -43q66 -23 100 -70.5t34 -115.5v-5q0 -45 -16 -82t-45 -63t-71 -40t-93 -14q-125 0 -186 58q-22 21 -37 53t-15 58q0 11 4.5 15t17.5 4h35q12 0 16.5 -3t6.5 -14zM227 -197q0 4 4 13l27 59q-25 7 -25 33v14q0 19 12 29.5
t33 10.5q22 0 34.5 -10.5t12.5 -29.5v-14q0 -27 -17 -56l-22 -37q-8 -13 -13 -16.5t-17 -3.5h-17q-12 0 -12 8z" />
    <glyph glyph-name="uni021A" unicode="&#x21a;" horiz-adv-x="550" 
d="M235 644h-192q-12 0 -16.5 4t-4.5 16v28q0 12 4.5 16t16.5 4h464q12 0 16.5 -4t4.5 -16v-28q0 -12 -4.5 -16t-16.5 -4h-192v-624q0 -12 -4.5 -16t-16.5 -4h-38q-12 0 -16.5 4t-4.5 16v624zM222 -197q0 4 4 13l27 59q-25 7 -25 33v14q0 19 12 29.5t33 10.5
q22 0 34.5 -10.5t12.5 -29.5v-14q0 -27 -17 -56l-22 -37q-8 -13 -13 -16.5t-17 -3.5h-17q-12 0 -12 8z" />
    <glyph glyph-name="aogonek" unicode="&#x105;" horiz-adv-x="506" 
d="M255 320q20 0 51 -2t62 -6v59q0 55 -25.5 79.5t-83.5 24.5q-47 0 -71.5 -13.5t-38.5 -46.5q-5 -11 -8 -14t-15 -3h-36q-13 0 -17.5 4t-4.5 15q0 14 8 30.5t20 30.5q26 30 65 45t98 15q100 0 144 -38.5t44 -126.5v-205q0 -91 -45 -134.5t-144 -43.5h-15
q-102 0 -150.5 37.5t-48.5 121.5q0 89 51 130t160 41zM261 254q-77 0 -106.5 -24t-29.5 -80q0 -49 27.5 -71t96.5 -22h9q59 0 84.5 28.5t25.5 91.5v68q-30 4 -59.5 6.5t-47.5 2.5zM411 44l-50 -61q-21 -26 -28 -40.5t-7 -28.5q0 -19 10.5 -25.5t29.5 -6.5h25q11 0 14 -4
t3 -16v-26q0 -12 -3 -16t-14 -4h-39q-54 0 -78.5 18.5t-24.5 56.5q0 15 2.5 26.5t9 24t17 27.5t27.5 35l52 65z" />
    <glyph glyph-name="eogonek" unicode="&#x119;" horiz-adv-x="513" 
d="M128 238v-19q0 -165 134 -165q85 0 113 65q5 12 8.5 14.5t14.5 2.5h36q14 0 18 -2.5t4 -13.5q0 -14 -11 -36t-25 -38q-25 -28 -67.5 -44t-93.5 -16q-101 0 -155.5 59t-54.5 168v75q0 121 54 185.5t157 64.5q206 0 206 -229v-51q0 -12 -4.5 -16t-16.5 -4h-317zM260 476
q-131 0 -132 -173h258q0 89 -30.5 131t-95.5 42zM418 44l-50 -61q-21 -26 -28 -40.5t-7 -28.5q0 -19 10.5 -25.5t29.5 -6.5h25q11 0 14 -4t3 -16v-26q0 -12 -3 -16t-14 -4h-39q-54 0 -78.5 18.5t-24.5 56.5q0 15 2.5 26.5t9 24t17 27.5t27.5 35l52 65z" />
    <glyph glyph-name="iogonek" unicode="&#x12f;" horiz-adv-x="217" 
d="M148 20q0 -12 -4.5 -16t-16.5 -4h-37q-12 0 -16.5 4t-4.5 16v484q0 12 4.5 16t16.5 4h37q12 0 16.5 -4t4.5 -16v-484zM109 617q-23 0 -36.5 12t-13.5 33v16q0 20 13.5 32t36.5 12q24 0 38 -12t14 -32v-16q0 -21 -14 -33t-38 -12zM142 3l-30 -28q-29 -26 -37.5 -38.5
t-8.5 -27.5q0 -27 40 -27h25q11 0 14 -4t3 -16v-26q0 -12 -3 -16t-14 -4h-39q-103 0 -103 72q0 14 3 26.5t10.5 25t20 26t30.5 30.5l58 54z" />
    <glyph glyph-name="uogonek" unicode="&#x173;" horiz-adv-x="526" 
d="M380 54q-26 -33 -63.5 -50.5t-85.5 -17.5q-81 0 -124 45t-43 131v342q0 12 4.5 16t16.5 4h37q12 0 16.5 -4t4.5 -16v-325q0 -64 26 -93.5t83 -29.5t91.5 38.5t34.5 102.5v307q0 12 4.5 16t16.5 4h37q12 0 16.5 -4t4.5 -16v-484q0 -12 -4.5 -16t-16.5 -4h-35
q-12 0 -16.5 4t-4.5 16v34zM451 3l-30 -28q-29 -26 -37.5 -38.5t-8.5 -27.5q0 -27 40 -27h25q11 0 14 -4t3 -16v-26q0 -12 -3 -16t-14 -4h-39q-103 0 -103 72q0 14 3 26.5t10.5 25t20 26t30.5 30.5l58 54z" />
    <glyph glyph-name="acutecomb" unicode="&#x301;" 
d="M93 730q13 0 13 -8q0 -4 -4 -11l-71 -99q-11 -16 -16 -19t-17 -3h-34q-13 0 -13 8q0 4 4 11l61 99q9 15 14 18.5t19 3.5h44z" />
    <glyph glyph-name="acutecomb.cap" 
d="M24 873q11 14 16.5 18t16.5 4h56q13 0 13 -8q0 -6 -5 -11l-78 -92l-11 -12.5t-8 -6.5t-8 -2.5t-10 -0.5h-40q-13 0 -13 9q0 5 4 10z" />
    <glyph glyph-name="acute" unicode="&#xb4;" horiz-adv-x="500" 
d="M315 730q13 0 13 -8q0 -4 -4 -11l-71 -99q-11 -16 -16 -19t-17 -3h-34q-13 0 -13 8q0 4 4 11l61 99q9 15 14 18.5t19 3.5h44z" />
    <glyph glyph-name="uni030B" unicode="&#x30b;" 
d="M-35 612q-5 -14 -9.5 -18t-12.5 -4h-33q-13 0 -13 8q0 5 3 14l30 96q5 14 9 18t15 4h41q12 0 12 -8q0 -4 -3 -11zM111 612q-5 -14 -9.5 -18t-12.5 -4h-33q-13 0 -13 8q0 5 3 14l30 96q5 14 9 18t15 4h41q12 0 12 -8q0 -4 -3 -11z" />
    <glyph glyph-name="uni030B.cap" 
d="M-47 783q-6 -14 -10 -17.5t-12 -3.5h-41q-13 0 -13 8q0 5 4 15l32 88q5 14 9.5 18t14.5 4h50q12 0 12 -8q0 -4 -3 -11zM111 783q-6 -14 -10 -17.5t-12 -3.5h-41q-13 0 -13 8q0 5 4 15l32 88q5 14 9.5 18t14.5 4h50q12 0 12 -8q0 -4 -3 -11z" />
    <glyph glyph-name="hungarumlaut" unicode="&#x2dd;" horiz-adv-x="500" 
d="M190 612q-5 -14 -9.5 -18t-12.5 -4h-33q-13 0 -13 8q0 5 3 14l30 96q5 14 9 18t15 4h41q12 0 12 -8q0 -4 -3 -11zM336 612q-5 -14 -9.5 -18t-12.5 -4h-33q-13 0 -13 8q0 5 3 14l30 96q5 14 9 18t15 4h41q12 0 12 -8q0 -4 -3 -11z" />
    <glyph glyph-name="Aacute" unicode="&#xc1;" horiz-adv-x="602" 
d="M586 21q2 -6 2 -9q0 -12 -16 -12h-45q-13 0 -17 3t-8 14l-59 178h-288l-58 -178q-4 -11 -8 -14t-17 -3h-42q-16 0 -16 12q0 3 2 9l229 669q4 12 9 17t17 5h64q12 0 17 -5.5t9 -16.5zM178 265h242l-120 368zM325 873q11 14 16.5 18t16.5 4h56q13 0 13 -8q0 -6 -5 -11
l-78 -92l-11 -12.5t-8 -6.5t-8 -2.5t-10 -0.5h-40q-13 0 -13 9q0 5 4 10z" />
    <glyph glyph-name="Cacute" unicode="&#x106;" horiz-adv-x="589" 
d="M463 189q1 11 5.5 14t17.5 3h35q13 0 17.5 -4t4.5 -15q0 -41 -13.5 -77t-37.5 -60q-67 -66 -189 -66q-81 0 -138.5 31.5t-85.5 97.5q-11 29 -16 64.5t-5 91.5v164q0 57 5 93t16 64q27 68 85.5 103t146.5 35q127 0 183 -64q49 -53 49 -136q0 -11 -4.5 -15t-17.5 -4h-37
q-13 0 -17.5 3t-5.5 14q-10 131 -155 131q-88 0 -127 -50t-39 -162v-178q0 -111 39 -161t126 -50q146 0 158 133zM336 873q11 14 16.5 18t16.5 4h56q13 0 13 -8q0 -6 -5 -11l-78 -92l-11 -12.5t-8 -6.5t-8 -2.5t-10 -0.5h-40q-13 0 -13 9q0 5 4 10z" />
    <glyph glyph-name="Eacute" unicode="&#xc9;" horiz-adv-x="550" 
d="M492 20q0 -12 -4.5 -16t-16.5 -4h-374q-12 0 -16.5 4t-4.5 16v672q0 12 4.5 16t16.5 4h370q12 0 16.5 -4t4.5 -16v-28q0 -12 -4.5 -16t-16.5 -4h-311v-244h285q12 0 16.5 -4t4.5 -16v-28q0 -12 -4.5 -16t-16.5 -4h-285v-264h315q12 0 16.5 -4t4.5 -16v-28zM306 873
q11 14 16.5 18t16.5 4h56q13 0 13 -8q0 -6 -5 -11l-78 -92l-11 -12.5t-8 -6.5t-8 -2.5t-10 -0.5h-40q-13 0 -13 9q0 5 4 10z" />
    <glyph glyph-name="Iacute" unicode="&#xcd;" horiz-adv-x="232" 
d="M156 20q0 -12 -4.5 -16t-16.5 -4h-38q-12 0 -16.5 4t-4.5 16v672q0 12 4.5 16t16.5 4h38q12 0 16.5 -4t4.5 -16v-672zM140 873q11 14 16.5 18t16.5 4h56q13 0 13 -8q0 -6 -5 -11l-78 -92l-11 -12.5t-8 -6.5t-8 -2.5t-10 -0.5h-40q-13 0 -13 9q0 5 4 10z" />
    <glyph glyph-name="Lacute" unicode="&#x139;" horiz-adv-x="498" 
d="M469 20q0 -12 -4.5 -16t-16.5 -4h-351q-12 0 -16.5 4t-4.5 16v672q0 12 4.5 16t16.5 4h38q12 0 16.5 -4t4.5 -16v-624h292q12 0 16.5 -4t4.5 -16v-28zM140 873q11 14 16.5 18t16.5 4h56q13 0 13 -8q0 -6 -5 -11l-78 -92l-11 -12.5t-8 -6.5t-8 -2.5t-10 -0.5h-40
q-13 0 -13 9q0 5 4 10z" />
    <glyph glyph-name="Nacute" unicode="&#x143;" horiz-adv-x="622" 
d="M154 577v-557q0 -12 -4.5 -16t-16.5 -4h-36q-12 0 -16.5 4t-4.5 16v672q0 12 4.5 16t16.5 4h49q11 0 16.5 -4t11.5 -15l294 -558v557q0 12 4.5 16t16.5 4h36q12 0 16.5 -4t4.5 -16v-672q0 -12 -4.5 -16t-16.5 -4h-49q-11 0 -16.5 4t-11.5 15zM340 873q11 14 16.5 18
t16.5 4h56q13 0 13 -8q0 -6 -5 -11l-78 -92l-11 -12.5t-8 -6.5t-8 -2.5t-10 -0.5h-40q-13 0 -13 9q0 5 4 10z" />
    <glyph glyph-name="Oacute" unicode="&#xd3;" horiz-adv-x="616" 
d="M308 658q-88 0 -128 -50.5t-40 -162.5v-178q0 -112 40 -162.5t128 -50.5t128 50.5t40 162.5v178q0 112 -40 162.5t-128 50.5zM308 728q172 0 228 -136q6 -15 10.5 -30t7 -33t3.5 -40t1 -51v-154q0 -30 -1 -53t-3.5 -41.5t-7 -34t-10.5 -30.5q-56 -141 -228 -141
q-173 0 -228 134q-6 15 -10.5 30.5t-7 33.5t-3.5 40.5t-1 51.5v154q0 30 1 53t3.5 41.5t7 34t10.5 30.5q56 141 228 141zM332 873q11 14 16.5 18t16.5 4h56q13 0 13 -8q0 -6 -5 -11l-78 -92l-11 -12.5t-8 -6.5t-8 -2.5t-10 -0.5h-40q-13 0 -13 9q0 5 4 10z" />
    <glyph glyph-name="Racute" unicode="&#x154;" horiz-adv-x="590" 
d="M154 301v-281q0 -12 -4.5 -16t-16.5 -4h-36q-12 0 -16.5 4t-4.5 16v672q0 12 4.5 16t16.5 4h200q112 0 170 -44.5t58 -153.5v-19q0 -78 -36 -124t-103 -62l163 -289q3 -6 3 -9q0 -11 -18 -11h-49q-11 0 -16.5 3.5t-12.5 16.5l-154 281h-148zM154 369h146q47 0 75 10
t43 27t19.5 40t4.5 49v15q0 28 -4.5 52.5t-19.5 42.5t-43 28.5t-75 10.5h-146v-275zM310 873q11 14 16.5 18t16.5 4h56q13 0 13 -8q0 -6 -5 -11l-78 -92l-11 -12.5t-8 -6.5t-8 -2.5t-10 -0.5h-40q-13 0 -13 9q0 5 4 10z" />
    <glyph glyph-name="Sacute" unicode="&#x15a;" horiz-adv-x="550" 
d="M124 155q11 -49 50.5 -74.5t104.5 -25.5q69 0 107 32.5t38 92.5q0 92 -99 127l-129 43q-141 48 -141 178v5q0 93 60.5 144t171.5 51q63 0 105 -16t71 -51q16 -19 26 -46t10 -50q0 -11 -4.5 -15t-17.5 -4h-35q-13 0 -17 3t-6 14q-15 97 -140 97q-68 0 -106 -32t-38 -89
q0 -24 5.5 -42.5t18 -33t33.5 -25.5t52 -21l129 -43q66 -23 100 -70.5t34 -115.5v-5q0 -45 -16 -82t-45 -63t-71 -40t-93 -14q-125 0 -186 58q-22 21 -37 53t-15 58q0 11 4.5 15t17.5 4h35q12 0 16.5 -3t6.5 -14zM304 873q11 14 16.5 18t16.5 4h56q13 0 13 -8q0 -6 -5 -11
l-78 -92l-11 -12.5t-8 -6.5t-8 -2.5t-10 -0.5h-40q-13 0 -13 9q0 5 4 10z" />
    <glyph glyph-name="Uacute" unicode="&#xda;" horiz-adv-x="616" 
d="M547 242q0 -128 -59.5 -193t-175.5 -65h-9q-234 0 -234 258v450q0 12 4.5 16t16.5 4h38q12 0 16.5 -4t4.5 -16v-451q0 -183 152 -183h13q153 0 153 183v451q0 12 4.5 16t16.5 4h38q12 0 16.5 -4t4.5 -16v-450zM332 873q11 14 16.5 18t16.5 4h56q13 0 13 -8q0 -6 -5 -11
l-78 -92l-11 -12.5t-8 -6.5t-8 -2.5t-10 -0.5h-40q-13 0 -13 9q0 5 4 10z" />
    <glyph glyph-name="Wacute" unicode="&#x1e82;" horiz-adv-x="776" 
d="M74 712q13 0 18 -3.5t7 -14.5l122 -593l122 564q3 13 9 17.5t17 4.5h42q22 0 26 -22l114 -566l127 595q2 11 7 14.5t18 3.5h39q16 0 16 -12q0 -1 -2 -11l-150 -667q-3 -13 -9 -17.5t-17 -4.5h-59q-22 0 -26 22l-109 527l-113 -527q-3 -13 -9 -17.5t-17 -4.5h-59
q-22 0 -26 22l-142 667q-2 10 -2 11q0 12 16 12h40zM412 873q11 14 16.5 18t16.5 4h56q13 0 13 -8q0 -6 -5 -11l-78 -92l-11 -12.5t-8 -6.5t-8 -2.5t-10 -0.5h-40q-13 0 -13 9q0 5 4 10z" />
    <glyph glyph-name="Yacute" unicode="&#xdd;" horiz-adv-x="539" 
d="M76 712q12 0 17 -3t10 -14l170 -344l167 344q5 11 10 14t17 3h40q18 0 18 -12q0 -4 -3 -10l-212 -420v-250q0 -12 -4.5 -16t-16.5 -4h-38q-12 0 -16.5 4t-4.5 16v250l-213 420q-3 6 -3 10q0 12 18 12h44zM293 873q11 14 16.5 18t16.5 4h56q13 0 13 -8q0 -6 -5 -11
l-78 -92l-11 -12.5t-8 -6.5t-8 -2.5t-10 -0.5h-40q-13 0 -13 9q0 5 4 10z" />
    <glyph glyph-name="Zacute" unicode="&#x179;" horiz-adv-x="548" 
d="M500 662q0 -10 -2.5 -17t-6.5 -13l-361 -564h357q12 0 16.5 -4t4.5 -16v-28q0 -12 -4.5 -16t-16.5 -4h-426q-12 0 -16.5 4t-4.5 16v30q0 10 2.5 17t6.5 13l361 564h-334q-12 0 -16.5 4t-4.5 16v28q0 12 4.5 16t16.5 4h403q12 0 16.5 -4t4.5 -16v-30zM301 873
q11 14 16.5 18t16.5 4h56q13 0 13 -8q0 -6 -5 -11l-78 -92l-11 -12.5t-8 -6.5t-8 -2.5t-10 -0.5h-40q-13 0 -13 9q0 5 4 10z" />
    <glyph glyph-name="uniE133" unicode="&#xe133;" horiz-adv-x="761" 
d="M156 20q0 -12 -4.5 -16t-16.5 -4h-38q-12 0 -16.5 4t-4.5 16v672q0 12 4.5 16t16.5 4h38q12 0 16.5 -4t4.5 -16v-672zM341 174q5 -57 39 -87t92 -30q39 0 65.5 10.5t43 34.5t24 62.5t7.5 94.5v433q0 12 4.5 16t16.5 4h38q12 0 16.5 -4t4.5 -16v-456q0 -129 -52.5 -190.5
t-163.5 -61.5q-100 0 -157.5 50t-57.5 138q0 11 4.5 15t17.5 4h35q13 0 17.5 -3t5.5 -14zM140 873q11 14 16.5 18t16.5 4h56q13 0 13 -8q0 -6 -5 -11l-78 -92l-11 -12.5t-8 -6.5t-8 -2.5t-10 -0.5h-40q-13 0 -13 9q0 5 4 10zM676 873q11 14 16.5 18t16.5 4h56q13 0 13 -8
q0 -6 -5 -11l-78 -92l-11 -12.5t-8 -6.5t-8 -2.5t-10 -0.5h-40q-13 0 -13 9q0 5 4 10z" />
    <glyph glyph-name="Ohungarumlaut" unicode="&#x150;" horiz-adv-x="616" 
d="M308 658q-88 0 -128 -50.5t-40 -162.5v-178q0 -112 40 -162.5t128 -50.5t128 50.5t40 162.5v178q0 112 -40 162.5t-128 50.5zM308 728q172 0 228 -136q6 -15 10.5 -30t7 -33t3.5 -40t1 -51v-154q0 -30 -1 -53t-3.5 -41.5t-7 -34t-10.5 -30.5q-56 -141 -228 -141
q-173 0 -228 134q-6 15 -10.5 30.5t-7 33.5t-3.5 40.5t-1 51.5v154q0 30 1 53t3.5 41.5t7 34t10.5 30.5q56 141 228 141zM261 783q-6 -14 -10 -17.5t-12 -3.5h-41q-13 0 -13 8q0 5 4 15l32 88q5 14 9.5 18t14.5 4h50q12 0 12 -8q0 -4 -3 -11zM419 783q-6 -14 -10 -17.5
t-12 -3.5h-41q-13 0 -13 8q0 5 4 15l32 88q5 14 9.5 18t14.5 4h50q12 0 12 -8q0 -4 -3 -11z" />
    <glyph glyph-name="Uhungarumlaut" unicode="&#x170;" horiz-adv-x="616" 
d="M547 242q0 -128 -59.5 -193t-175.5 -65h-9q-234 0 -234 258v450q0 12 4.5 16t16.5 4h38q12 0 16.5 -4t4.5 -16v-451q0 -183 152 -183h13q153 0 153 183v451q0 12 4.5 16t16.5 4h38q12 0 16.5 -4t4.5 -16v-450zM261 783q-6 -14 -10 -17.5t-12 -3.5h-41q-13 0 -13 8
q0 5 4 15l32 88q5 14 9.5 18t14.5 4h50q12 0 12 -8q0 -4 -3 -11zM419 783q-6 -14 -10 -17.5t-12 -3.5h-41q-13 0 -13 8q0 5 4 15l32 88q5 14 9.5 18t14.5 4h50q12 0 12 -8q0 -4 -3 -11z" />
    <glyph glyph-name="aacute" unicode="&#xe1;" horiz-adv-x="506" 
d="M255 320q20 0 51 -2t62 -6v59q0 55 -25.5 79.5t-83.5 24.5q-47 0 -71.5 -13.5t-38.5 -46.5q-5 -11 -8 -14t-15 -3h-36q-13 0 -17.5 4t-4.5 15q0 14 8 30.5t20 30.5q26 30 65 45t98 15q100 0 144 -38.5t44 -126.5v-205q0 -91 -45 -134.5t-144 -43.5h-15
q-102 0 -150.5 37.5t-48.5 121.5q0 89 51 130t160 41zM261 254q-77 0 -106.5 -24t-29.5 -80q0 -49 27.5 -71t96.5 -22h9q59 0 84.5 28.5t25.5 91.5v68q-30 4 -59.5 6.5t-47.5 2.5zM356 730q13 0 13 -8q0 -4 -4 -11l-71 -99q-11 -16 -16 -19t-17 -3h-34q-13 0 -13 8q0 4 4 11
l61 99q9 15 14 18.5t19 3.5h44z" />
    <glyph glyph-name="cacute" unicode="&#x107;" horiz-adv-x="496" 
d="M256 54q102 0 117 86q2 11 6 14t17 3h33q13 0 17.5 -4t4.5 -15q0 -18 -7.5 -40.5t-21.5 -42.5q-46 -69 -168 -69q-101 0 -153 55t-52 163v99q0 117 52 176t153 59q109 0 158 -55q38 -43 38 -97q0 -11 -4.5 -15t-17.5 -4h-32q-13 0 -17 3t-6 14q-5 42 -34.5 64.5
t-80.5 22.5q-68 0 -99 -39.5t-31 -127.5v-84q0 -86 31 -126t97 -40zM351 730q13 0 13 -8q0 -4 -4 -11l-71 -99q-11 -16 -16 -19t-17 -3h-34q-13 0 -13 8q0 4 4 11l61 99q9 15 14 18.5t19 3.5h44z" />
    <glyph glyph-name="eacute" unicode="&#xe9;" horiz-adv-x="513" 
d="M128 238v-19q0 -165 134 -165q85 0 113 65q5 12 8.5 14.5t14.5 2.5h36q14 0 18 -2.5t4 -13.5q0 -14 -11 -36t-25 -38q-25 -28 -67.5 -44t-93.5 -16q-101 0 -155.5 59t-54.5 168v75q0 121 54 185.5t157 64.5q206 0 206 -229v-51q0 -12 -4.5 -16t-16.5 -4h-317zM260 476
q-131 0 -132 -173h258q0 89 -30.5 131t-95.5 42zM355 730q13 0 13 -8q0 -4 -4 -11l-71 -99q-11 -16 -16 -19t-17 -3h-34q-13 0 -13 8q0 4 4 11l61 99q9 15 14 18.5t19 3.5h44z" />
    <glyph glyph-name="iacute" unicode="&#xed;" horiz-adv-x="217" 
d="M91 0q-22 0 -22 21v482q0 14 4 17.5t18 3.5h35q14 0 18 -3.5t4 -17.5v-482q0 -14 -4 -17.5t-18 -3.5h-35zM201 730q13 0 13 -8q0 -4 -4 -11l-71 -99q-11 -16 -16 -19t-17 -3h-34q-13 0 -13 8q0 4 4 11l61 99q9 15 14 18.5t19 3.5h44z" />
    <glyph glyph-name="lacute" unicode="&#x13a;" horiz-adv-x="217" 
d="M148 20q0 -12 -4.5 -16t-16.5 -4h-37q-12 0 -16.5 4t-4.5 16v672q0 12 4.5 16t16.5 4h37q12 0 16.5 -4t4.5 -16v-672zM132 873q11 14 16.5 18t16.5 4h56q13 0 13 -8q0 -6 -5 -11l-78 -92l-11 -12.5t-8 -6.5t-8 -2.5t-10 -0.5h-40q-13 0 -13 9q0 5 4 10z" />
    <glyph glyph-name="nacute" unicode="&#x144;" horiz-adv-x="536" 
d="M300 538q84 0 128 -45t44 -131v-342q0 -12 -4.5 -16t-16.5 -4h-37q-12 0 -16.5 4t-4.5 16v325q0 64 -27 93.5t-87 29.5t-95.5 -38.5t-35.5 -102.5v-307q0 -12 -4.5 -16t-16.5 -4h-37q-12 0 -16.5 4t-4.5 16v484q0 12 4.5 16t16.5 4h35q12 0 16.5 -4t4.5 -16v-35
q25 33 64.5 51t89.5 18zM373 730q13 0 13 -8q0 -4 -4 -11l-71 -99q-11 -16 -16 -19t-17 -3h-34q-13 0 -13 8q0 4 4 11l61 99q9 15 14 18.5t19 3.5h44z" />
    <glyph glyph-name="oacute" unicode="&#xf3;" horiz-adv-x="530" 
d="M265 -14q-103 0 -159.5 57t-56.5 161v106q0 109 56.5 168.5t159.5 59.5t159.5 -57t56.5 -161v-106q0 -109 -56.5 -168.5t-159.5 -59.5zM265 54q137 0 137 166v84q0 166 -137 166t-137 -166v-84q0 -166 137 -166zM358 730q13 0 13 -8q0 -4 -4 -11l-71 -99q-11 -16 -16 -19
t-17 -3h-34q-13 0 -13 8q0 4 4 11l61 99q9 15 14 18.5t19 3.5h44z" />
    <glyph glyph-name="racute" unicode="&#x155;" horiz-adv-x="340" 
d="M146 428q19 43 57.5 69.5t86.5 26.5h13q11 0 14 -4t3 -16v-36q0 -12 -3 -16t-14 -4h-26q-30 0 -53.5 -13t-40.5 -36.5t-26 -55t-9 -68.5v-255q0 -12 -4.5 -16t-16.5 -4h-37q-12 0 -16.5 4t-4.5 16v484q0 12 4.5 16t16.5 4h35q12 0 16.5 -4t4.5 -16v-76zM279 730
q13 0 13 -8q0 -4 -4 -11l-71 -99q-11 -16 -16 -19t-17 -3h-34q-13 0 -13 8q0 4 4 11l61 99q9 15 14 18.5t19 3.5h44z" />
    <glyph glyph-name="sacute" unicode="&#x15b;" horiz-adv-x="475" 
d="M241 -14q-109 0 -161 49q-39 37 -39 88q0 11 4.5 15t17.5 4h29q12 0 16.5 -3t6.5 -14q9 -40 38 -58t86 -18q114 0 114 81q0 38 -20.5 59.5t-70.5 34.5l-89 23q-62 17 -91 49.5t-29 86.5v5q0 69 50 109.5t137 40.5q105 0 152 -50q36 -36 36 -85q0 -11 -4.5 -15t-17.5 -4
h-29q-13 0 -17 3t-6 14q-12 75 -121 75q-50 0 -77.5 -22t-27.5 -62q0 -17 5 -29t17 -22t31.5 -18t48.5 -15l82 -21q120 -30 120 -146v-5q0 -150 -191 -150zM331 730q13 0 13 -8q0 -4 -4 -11l-71 -99q-11 -16 -16 -19t-17 -3h-34q-13 0 -13 8q0 4 4 11l61 99q9 15 14 18.5
t19 3.5h44z" />
    <glyph glyph-name="uacute" unicode="&#xfa;" horiz-adv-x="526" 
d="M380 54q-26 -33 -63.5 -50.5t-85.5 -17.5q-81 0 -124 45t-43 131v342q0 12 4.5 16t16.5 4h37q12 0 16.5 -4t4.5 -16v-325q0 -64 26 -93.5t83 -29.5t91.5 38.5t34.5 102.5v307q0 12 4.5 16t16.5 4h37q12 0 16.5 -4t4.5 -16v-484q0 -12 -4.5 -16t-16.5 -4h-35
q-12 0 -16.5 4t-4.5 16v34zM353 730q13 0 13 -8q0 -4 -4 -11l-71 -99q-11 -16 -16 -19t-17 -3h-34q-13 0 -13 8q0 4 4 11l61 99q9 15 14 18.5t19 3.5h44z" />
    <glyph glyph-name="wacute" unicode="&#x1e83;" horiz-adv-x="721" 
d="M385 504q11 0 17 -4.5t9 -17.5l108 -412l111 433q3 12 7.5 16.5t15.5 4.5h41q16 0 16 -12q0 -3 -3 -13l-132 -477q-4 -13 -9.5 -17.5t-16.5 -4.5h-66q-11 0 -17 4.5t-9 17.5l-97 383l-97 -383q-3 -13 -9 -17.5t-17 -4.5h-66q-11 0 -16.5 4.5t-9.5 17.5l-131 477
q-3 10 -3 13q0 12 16 12h42q10 0 14.5 -4t8.5 -17l115 -433l104 412q3 13 9 17.5t17 4.5h48zM453 730q13 0 13 -8q0 -4 -4 -11l-71 -99q-11 -16 -16 -19t-17 -3h-34q-13 0 -13 8q0 4 4 11l61 99q9 15 14 18.5t19 3.5h44z" />
    <glyph glyph-name="yacute" unicode="&#xfd;" horiz-adv-x="462" 
d="M82 -101q21 0 36.5 3t27.5 12t21.5 25t18.5 41l12 35l-184 485q-3 9 -3 12q0 12 16 12h44q10 0 14 -4t9 -17l143 -386l133 386q5 13 9 17t14 4h42q16 0 16 -12q0 -3 -3 -12l-188 -526q-16 -46 -33.5 -74.5t-37.5 -44t-43.5 -21t-52.5 -5.5h-23q-11 0 -14 4t-3 16v30
q0 12 3 16t14 4h12zM325 730q13 0 13 -8q0 -4 -4 -11l-71 -99q-11 -16 -16 -19t-17 -3h-34q-13 0 -13 8q0 4 4 11l61 99q9 15 14 18.5t19 3.5h44z" />
    <glyph glyph-name="zacute" unicode="&#x17a;" horiz-adv-x="469" 
d="M54 0q-11 0 -14 4t-3 16v19q0 18 9 30l283 388h-260q-11 0 -14 4t-3 16v27q0 12 3 16t14 4h339q11 0 14 -4t3 -16v-19q0 -18 -9 -30l-283 -388h285q11 0 14 -4t3 -16v-27q0 -12 -3 -16t-14 -4h-364zM331 730q13 0 13 -8q0 -4 -4 -11l-71 -99q-11 -16 -16 -19t-17 -3h-34
q-13 0 -13 8q0 4 4 11l61 99q9 15 14 18.5t19 3.5h44z" />
    <glyph glyph-name="uniE132" unicode="&#xe132;" horiz-adv-x="434" 
d="M91 0q-22 0 -22 21v482q0 14 4 17.5t18 3.5h35q14 0 18 -3.5t4 -17.5v-482q0 -14 -4 -17.5t-18 -3.5h-35zM210 -101q44 0 60 14.5t16 52.5v538q0 12 4.5 16t16.5 4h37q12 0 16.5 -4t4.5 -16v-543q0 -132 -139 -132h-45q-11 0 -14 4t-3 16v30q0 12 3 16t14 4h29zM201 730
q13 0 13 -8q0 -4 -4 -11l-71 -99q-11 -16 -16 -19t-17 -3h-34q-13 0 -13 8q0 4 4 11l61 99q9 15 14 18.5t19 3.5h44zM418 730q13 0 13 -8q0 -4 -4 -11l-71 -99q-11 -16 -16 -19t-17 -3h-34q-13 0 -13 8q0 4 4 11l61 99q9 15 14 18.5t19 3.5h44z" />
    <glyph glyph-name="ohungarumlaut" unicode="&#x151;" horiz-adv-x="530" 
d="M265 -14q-103 0 -159.5 57t-56.5 161v106q0 109 56.5 168.5t159.5 59.5t159.5 -57t56.5 -161v-106q0 -109 -56.5 -168.5t-159.5 -59.5zM265 54q137 0 137 166v84q0 166 -137 166t-137 -166v-84q0 -166 137 -166zM230 612q-5 -14 -9.5 -18t-12.5 -4h-33q-13 0 -13 8
q0 5 3 14l30 96q5 14 9 18t15 4h41q12 0 12 -8q0 -4 -3 -11zM376 612q-5 -14 -9.5 -18t-12.5 -4h-33q-13 0 -13 8q0 5 3 14l30 96q5 14 9 18t15 4h41q12 0 12 -8q0 -4 -3 -11z" />
    <glyph glyph-name="uhungarumlaut" unicode="&#x171;" horiz-adv-x="526" 
d="M380 54q-26 -33 -63.5 -50.5t-85.5 -17.5q-81 0 -124 45t-43 131v342q0 12 4.5 16t16.5 4h37q12 0 16.5 -4t4.5 -16v-325q0 -64 26 -93.5t83 -29.5t91.5 38.5t34.5 102.5v307q0 12 4.5 16t16.5 4h37q12 0 16.5 -4t4.5 -16v-484q0 -12 -4.5 -16t-16.5 -4h-35
q-12 0 -16.5 4t-4.5 16v34zM225 612q-5 -14 -9.5 -18t-12.5 -4h-33q-13 0 -13 8q0 5 3 14l30 96q5 14 9 18t15 4h41q12 0 12 -8q0 -4 -3 -11zM371 612q-5 -14 -9.5 -18t-12.5 -4h-33q-13 0 -13 8q0 5 3 14l30 96q5 14 9 18t15 4h41q12 0 12 -8q0 -4 -3 -11z" />
    <glyph glyph-name="gravecomb" unicode="&#x300;" 
d="M-101 711q-4 7 -4 11q0 8 13 8h44q14 0 19 -3.5t14 -18.5l61 -99q4 -7 4 -11q0 -8 -13 -8h-34q-12 0 -17 3t-16 19z" />
    <glyph glyph-name="gravecomb.cap" 
d="M43 781q4 -5 4 -10q0 -9 -13 -9h-40q-13 0 -18.5 3t-18.5 19l-78 92q-5 5 -5 11q0 8 13 8h56q11 0 16.5 -4t16.5 -18z" />
    <glyph glyph-name="grave" unicode="`" horiz-adv-x="500" 
d="M176 711q-4 7 -4 11q0 8 13 8h44q14 0 19 -3.5t14 -18.5l61 -99q4 -7 4 -11q0 -8 -13 -8h-34q-12 0 -17 3t-16 19z" />
    <glyph glyph-name="uni02CB" unicode="&#x2cb;" horiz-adv-x="500" 
d="M176 711q-4 7 -4 11q0 8 13 8h44q14 0 19 -3.5t14 -18.5l61 -99q4 -7 4 -11q0 -8 -13 -8h-34q-12 0 -17 3t-16 19z" />
    <glyph glyph-name="Agrave" unicode="&#xc0;" horiz-adv-x="602" 
d="M586 21q2 -6 2 -9q0 -12 -16 -12h-45q-13 0 -17 3t-8 14l-59 178h-288l-58 -178q-4 -11 -8 -14t-17 -3h-42q-16 0 -16 12q0 3 2 9l229 669q4 12 9 17t17 5h64q12 0 17 -5.5t9 -16.5zM178 265h242l-120 368zM344 781q4 -5 4 -10q0 -9 -13 -9h-40q-13 0 -18.5 3t-18.5 19
l-78 92q-5 5 -5 11q0 8 13 8h56q11 0 16.5 -4t16.5 -18z" />
    <glyph glyph-name="Egrave" unicode="&#xc8;" horiz-adv-x="550" 
d="M492 20q0 -12 -4.5 -16t-16.5 -4h-374q-12 0 -16.5 4t-4.5 16v672q0 12 4.5 16t16.5 4h370q12 0 16.5 -4t4.5 -16v-28q0 -12 -4.5 -16t-16.5 -4h-311v-244h285q12 0 16.5 -4t4.5 -16v-28q0 -12 -4.5 -16t-16.5 -4h-285v-264h315q12 0 16.5 -4t4.5 -16v-28zM325 781
q4 -5 4 -10q0 -9 -13 -9h-40q-13 0 -18.5 3t-18.5 19l-78 92q-5 5 -5 11q0 8 13 8h56q11 0 16.5 -4t16.5 -18z" />
    <glyph glyph-name="Igrave" unicode="&#xcc;" horiz-adv-x="232" 
d="M156 20q0 -12 -4.5 -16t-16.5 -4h-38q-12 0 -16.5 4t-4.5 16v672q0 12 4.5 16t16.5 4h38q12 0 16.5 -4t4.5 -16v-672zM159 781q4 -5 4 -10q0 -9 -13 -9h-40q-13 0 -18.5 3t-18.5 19l-78 92q-5 5 -5 11q0 8 13 8h56q11 0 16.5 -4t16.5 -18z" />
    <glyph glyph-name="Ograve" unicode="&#xd2;" horiz-adv-x="616" 
d="M308 658q-88 0 -128 -50.5t-40 -162.5v-178q0 -112 40 -162.5t128 -50.5t128 50.5t40 162.5v178q0 112 -40 162.5t-128 50.5zM308 728q172 0 228 -136q6 -15 10.5 -30t7 -33t3.5 -40t1 -51v-154q0 -30 -1 -53t-3.5 -41.5t-7 -34t-10.5 -30.5q-56 -141 -228 -141
q-173 0 -228 134q-6 15 -10.5 30.5t-7 33.5t-3.5 40.5t-1 51.5v154q0 30 1 53t3.5 41.5t7 34t10.5 30.5q56 141 228 141zM351 781q4 -5 4 -10q0 -9 -13 -9h-40q-13 0 -18.5 3t-18.5 19l-78 92q-5 5 -5 11q0 8 13 8h56q11 0 16.5 -4t16.5 -18z" />
    <glyph glyph-name="Ugrave" unicode="&#xd9;" horiz-adv-x="616" 
d="M547 242q0 -128 -59.5 -193t-175.5 -65h-9q-234 0 -234 258v450q0 12 4.5 16t16.5 4h38q12 0 16.5 -4t4.5 -16v-451q0 -183 152 -183h13q153 0 153 183v451q0 12 4.5 16t16.5 4h38q12 0 16.5 -4t4.5 -16v-450zM351 781q4 -5 4 -10q0 -9 -13 -9h-40q-13 0 -18.5 3
t-18.5 19l-78 92q-5 5 -5 11q0 8 13 8h56q11 0 16.5 -4t16.5 -18z" />
    <glyph glyph-name="Wgrave" unicode="&#x1e80;" horiz-adv-x="776" 
d="M74 712q13 0 18 -3.5t7 -14.5l122 -593l122 564q3 13 9 17.5t17 4.5h42q22 0 26 -22l114 -566l127 595q2 11 7 14.5t18 3.5h39q16 0 16 -12q0 -1 -2 -11l-150 -667q-3 -13 -9 -17.5t-17 -4.5h-59q-22 0 -26 22l-109 527l-113 -527q-3 -13 -9 -17.5t-17 -4.5h-59
q-22 0 -26 22l-142 667q-2 10 -2 11q0 12 16 12h40zM431 781q4 -5 4 -10q0 -9 -13 -9h-40q-13 0 -18.5 3t-18.5 19l-78 92q-5 5 -5 11q0 8 13 8h56q11 0 16.5 -4t16.5 -18z" />
    <glyph glyph-name="Ygrave" unicode="&#x1ef2;" horiz-adv-x="539" 
d="M76 712q12 0 17 -3t10 -14l170 -344l167 344q5 11 10 14t17 3h40q18 0 18 -12q0 -4 -3 -10l-212 -420v-250q0 -12 -4.5 -16t-16.5 -4h-38q-12 0 -16.5 4t-4.5 16v250l-213 420q-3 6 -3 10q0 12 18 12h44zM312 781q4 -5 4 -10q0 -9 -13 -9h-40q-13 0 -18.5 3t-18.5 19
l-78 92q-5 5 -5 11q0 8 13 8h56q11 0 16.5 -4t16.5 -18z" />
    <glyph glyph-name="agrave" unicode="&#xe0;" horiz-adv-x="506" 
d="M255 320q20 0 51 -2t62 -6v59q0 55 -25.5 79.5t-83.5 24.5q-47 0 -71.5 -13.5t-38.5 -46.5q-5 -11 -8 -14t-15 -3h-36q-13 0 -17.5 4t-4.5 15q0 14 8 30.5t20 30.5q26 30 65 45t98 15q100 0 144 -38.5t44 -126.5v-205q0 -91 -45 -134.5t-144 -43.5h-15
q-102 0 -150.5 37.5t-48.5 121.5q0 89 51 130t160 41zM261 254q-77 0 -106.5 -24t-29.5 -80q0 -49 27.5 -71t96.5 -22h9q59 0 84.5 28.5t25.5 91.5v68q-30 4 -59.5 6.5t-47.5 2.5zM162 711q-4 7 -4 11q0 8 13 8h44q14 0 19 -3.5t14 -18.5l61 -99q4 -7 4 -11q0 -8 -13 -8h-34
q-12 0 -17 3t-16 19z" />
    <glyph glyph-name="egrave" unicode="&#xe8;" horiz-adv-x="513" 
d="M128 238v-19q0 -165 134 -165q85 0 113 65q5 12 8.5 14.5t14.5 2.5h36q14 0 18 -2.5t4 -13.5q0 -14 -11 -36t-25 -38q-25 -28 -67.5 -44t-93.5 -16q-101 0 -155.5 59t-54.5 168v75q0 121 54 185.5t157 64.5q206 0 206 -229v-51q0 -12 -4.5 -16t-16.5 -4h-317zM260 476
q-131 0 -132 -173h258q0 89 -30.5 131t-95.5 42zM161 711q-4 7 -4 11q0 8 13 8h44q14 0 19 -3.5t14 -18.5l61 -99q4 -7 4 -11q0 -8 -13 -8h-34q-12 0 -17 3t-16 19z" />
    <glyph glyph-name="igrave" unicode="&#xec;" horiz-adv-x="217" 
d="M91 0q-22 0 -22 21v482q0 14 4 17.5t18 3.5h35q14 0 18 -3.5t4 -17.5v-482q0 -14 -4 -17.5t-18 -3.5h-35zM7 711q-4 7 -4 11q0 8 13 8h44q14 0 19 -3.5t14 -18.5l61 -99q4 -7 4 -11q0 -8 -13 -8h-34q-12 0 -17 3t-16 19z" />
    <glyph glyph-name="ograve" unicode="&#xf2;" horiz-adv-x="530" 
d="M265 -14q-103 0 -159.5 57t-56.5 161v106q0 109 56.5 168.5t159.5 59.5t159.5 -57t56.5 -161v-106q0 -109 -56.5 -168.5t-159.5 -59.5zM265 54q137 0 137 166v84q0 166 -137 166t-137 -166v-84q0 -166 137 -166zM164 711q-4 7 -4 11q0 8 13 8h44q14 0 19 -3.5t14 -18.5
l61 -99q4 -7 4 -11q0 -8 -13 -8h-34q-12 0 -17 3t-16 19z" />
    <glyph glyph-name="ugrave" unicode="&#xf9;" horiz-adv-x="526" 
d="M380 54q-26 -33 -63.5 -50.5t-85.5 -17.5q-81 0 -124 45t-43 131v342q0 12 4.5 16t16.5 4h37q12 0 16.5 -4t4.5 -16v-325q0 -64 26 -93.5t83 -29.5t91.5 38.5t34.5 102.5v307q0 12 4.5 16t16.5 4h37q12 0 16.5 -4t4.5 -16v-484q0 -12 -4.5 -16t-16.5 -4h-35
q-12 0 -16.5 4t-4.5 16v34zM159 711q-4 7 -4 11q0 8 13 8h44q14 0 19 -3.5t14 -18.5l61 -99q4 -7 4 -11q0 -8 -13 -8h-34q-12 0 -17 3t-16 19z" />
    <glyph glyph-name="wgrave" unicode="&#x1e81;" horiz-adv-x="721" 
d="M385 504q11 0 17 -4.5t9 -17.5l108 -412l111 433q3 12 7.5 16.5t15.5 4.5h41q16 0 16 -12q0 -3 -3 -13l-132 -477q-4 -13 -9.5 -17.5t-16.5 -4.5h-66q-11 0 -17 4.5t-9 17.5l-97 383l-97 -383q-3 -13 -9 -17.5t-17 -4.5h-66q-11 0 -16.5 4.5t-9.5 17.5l-131 477
q-3 10 -3 13q0 12 16 12h42q10 0 14.5 -4t8.5 -17l115 -433l104 412q3 13 9 17.5t17 4.5h48zM259 711q-4 7 -4 11q0 8 13 8h44q14 0 19 -3.5t14 -18.5l61 -99q4 -7 4 -11q0 -8 -13 -8h-34q-12 0 -17 3t-16 19z" />
    <glyph glyph-name="ygrave" unicode="&#x1ef3;" horiz-adv-x="462" 
d="M82 -101q21 0 36.5 3t27.5 12t21.5 25t18.5 41l12 35l-184 485q-3 9 -3 12q0 12 16 12h44q10 0 14 -4t9 -17l143 -386l133 386q5 13 9 17t14 4h42q16 0 16 -12q0 -3 -3 -12l-188 -526q-16 -46 -33.5 -74.5t-37.5 -44t-43.5 -21t-52.5 -5.5h-23q-11 0 -14 4t-3 16v30
q0 12 3 16t14 4h12zM131 711q-4 7 -4 11q0 8 13 8h44q14 0 19 -3.5t14 -18.5l61 -99q4 -7 4 -11q0 -8 -13 -8h-34q-12 0 -17 3t-16 19z" />
    <glyph glyph-name="uni0302" unicode="&#x302;" 
d="M0 679l-52 -67q-11 -14 -16 -18t-17 -4h-32q-13 0 -13 8q0 5 5 11l76 99q11 14 16.5 18t16.5 4h32q11 0 16.5 -4t16.5 -18l76 -99q5 -6 5 -11q0 -8 -13 -8h-31q-11 0 -16 3t-17 19z" />
    <glyph glyph-name="uni0302.cap" 
d="M0 843l-61 -65q-10 -10 -16.5 -13t-16.5 -3h-36q-13 0 -13 8q0 5 7 12l80 89q13 14 20 18.5t18 4.5h36q11 0 18 -4.5t20 -18.5l80 -89q7 -7 7 -12q0 -8 -13 -8h-36q-11 0 -17.5 3t-15.5 13z" />
    <glyph glyph-name="circumflex" unicode="&#x2c6;" horiz-adv-x="500" 
d="M250 679l-52 -67q-11 -14 -16 -18t-17 -4h-32q-13 0 -13 8q0 5 5 11l76 99q11 14 16.5 18t16.5 4h32q11 0 16.5 -4t16.5 -18l76 -99q5 -6 5 -11q0 -8 -13 -8h-31q-11 0 -16 3t-17 19z" />
    <glyph glyph-name="tildecomb" unicode="&#x303;" 
d="M-73 717q18 0 32.5 -5t39.5 -20l29 -18q15 -9 22 -12t15 -3q25 0 25 43v7q0 11 11 11h36q11 0 11 -11v-7q0 -50 -19 -76t-56 -26q-18 0 -32.5 5t-39.5 20l-29 18q-15 9 -22 12t-15 3q-25 0 -25 -43v-7q0 -11 -11 -11h-36q-11 0 -11 11v7q0 50 19 76t56 26z" />
    <glyph glyph-name="tildecomb.cap" 
d="M30 847q16 -9 24 -12t16 -3q14 0 19.5 10t5.5 33v7q0 11 11 11h38q11 0 11 -11v-7q0 -51 -20 -78t-58 -27q-17 0 -32 5t-43 20l-32 17q-16 9 -24 12t-16 3q-14 0 -20 -10t-6 -33v-7q0 -11 -11 -11h-37q-11 0 -11 11v7q0 51 20 78t58 27q17 0 31.5 -4.5t43.5 -20.5z" />
    <glyph glyph-name="tilde" unicode="&#x2dc;" horiz-adv-x="480" 
d="M167 717q18 0 32.5 -5t39.5 -20l29 -18q15 -9 22 -12t15 -3q25 0 25 43v7q0 11 11 11h36q11 0 11 -11v-7q0 -50 -19 -76t-56 -26q-18 0 -32.5 5t-39.5 20l-29 18q-15 9 -22 12t-15 3q-25 0 -25 -43v-7q0 -11 -11 -11h-36q-11 0 -11 11v7q0 50 19 76t56 26z" />
    <glyph glyph-name="Acircumflex" unicode="&#xc2;" horiz-adv-x="602" 
d="M586 21q2 -6 2 -9q0 -12 -16 -12h-45q-13 0 -17 3t-8 14l-59 178h-288l-58 -178q-4 -11 -8 -14t-17 -3h-42q-16 0 -16 12q0 3 2 9l229 669q4 12 9 17t17 5h64q12 0 17 -5.5t9 -16.5zM178 265h242l-120 368zM301 843l-61 -65q-10 -10 -16.5 -13t-16.5 -3h-36q-13 0 -13 8
q0 5 7 12l80 89q13 14 20 18.5t18 4.5h36q11 0 18 -4.5t20 -18.5l80 -89q7 -7 7 -12q0 -8 -13 -8h-36q-11 0 -17.5 3t-15.5 13z" />
    <glyph glyph-name="Ccircumflex" unicode="&#x108;" horiz-adv-x="589" 
d="M463 189q1 11 5.5 14t17.5 3h35q13 0 17.5 -4t4.5 -15q0 -41 -13.5 -77t-37.5 -60q-67 -66 -189 -66q-81 0 -138.5 31.5t-85.5 97.5q-11 29 -16 64.5t-5 91.5v164q0 57 5 93t16 64q27 68 85.5 103t146.5 35q127 0 183 -64q49 -53 49 -136q0 -11 -4.5 -15t-17.5 -4h-37
q-13 0 -17.5 3t-5.5 14q-10 131 -155 131q-88 0 -127 -50t-39 -162v-178q0 -111 39 -161t126 -50q146 0 158 133zM312 843l-61 -65q-10 -10 -16.5 -13t-16.5 -3h-36q-13 0 -13 8q0 5 7 12l80 89q13 14 20 18.5t18 4.5h36q11 0 18 -4.5t20 -18.5l80 -89q7 -7 7 -12
q0 -8 -13 -8h-36q-11 0 -17.5 3t-15.5 13z" />
    <glyph glyph-name="Ecircumflex" unicode="&#xca;" horiz-adv-x="550" 
d="M492 20q0 -12 -4.5 -16t-16.5 -4h-374q-12 0 -16.5 4t-4.5 16v672q0 12 4.5 16t16.5 4h370q12 0 16.5 -4t4.5 -16v-28q0 -12 -4.5 -16t-16.5 -4h-311v-244h285q12 0 16.5 -4t4.5 -16v-28q0 -12 -4.5 -16t-16.5 -4h-285v-264h315q12 0 16.5 -4t4.5 -16v-28zM282 843
l-61 -65q-10 -10 -16.5 -13t-16.5 -3h-36q-13 0 -13 8q0 5 7 12l80 89q13 14 20 18.5t18 4.5h36q11 0 18 -4.5t20 -18.5l80 -89q7 -7 7 -12q0 -8 -13 -8h-36q-11 0 -17.5 3t-15.5 13z" />
    <glyph glyph-name="Gcircumflex" unicode="&#x11c;" horiz-adv-x="610" 
d="M58 428q0 59 5 95t16 64q28 69 87.5 105t149.5 36q60 0 104 -14.5t77 -46.5q11 -11 21 -27.5t17.5 -35.5t12 -38.5t4.5 -37.5q0 -11 -4.5 -15t-17.5 -4h-37q-12 0 -16 3.5t-5 13.5q-7 65 -48 98.5t-115 33.5q-89 0 -129 -50.5t-40 -162.5v-178q0 -112 40 -162.5
t129 -50.5q162 0 162 178v47h-102q-12 0 -16.5 4t-4.5 16v31q0 12 4.5 16t16.5 4h162q21 0 21 -20v-106q0 -114 -64.5 -177t-180.5 -63q-85 0 -142.5 32.5t-85.5 98.5q-11 29 -16 63t-5 86v164zM312 843l-61 -65q-10 -10 -16.5 -13t-16.5 -3h-36q-13 0 -13 8q0 5 7 12l80 89
q13 14 20 18.5t18 4.5h36q11 0 18 -4.5t20 -18.5l80 -89q7 -7 7 -12q0 -8 -13 -8h-36q-11 0 -17.5 3t-15.5 13z" />
    <glyph glyph-name="Hcircumflex" unicode="&#x124;" horiz-adv-x="642" 
d="M566 20q0 -12 -4.5 -16t-16.5 -4h-38q-12 0 -16.5 4t-4.5 16v322h-330v-322q0 -12 -4.5 -16t-16.5 -4h-38q-12 0 -16.5 4t-4.5 16v672q0 12 4.5 16t16.5 4h38q12 0 16.5 -4t4.5 -16v-280h330v280q0 12 4.5 16t16.5 4h38q12 0 16.5 -4t4.5 -16v-672zM321 843l-61 -65
q-10 -10 -16.5 -13t-16.5 -3h-36q-13 0 -13 8q0 5 7 12l80 89q13 14 20 18.5t18 4.5h36q11 0 18 -4.5t20 -18.5l80 -89q7 -7 7 -12q0 -8 -13 -8h-36q-11 0 -17.5 3t-15.5 13z" />
    <glyph glyph-name="Icircumflex" unicode="&#xce;" horiz-adv-x="232" 
d="M156 20q0 -12 -4.5 -16t-16.5 -4h-38q-12 0 -16.5 4t-4.5 16v672q0 12 4.5 16t16.5 4h38q12 0 16.5 -4t4.5 -16v-672zM116 843l-61 -65q-10 -10 -16.5 -13t-16.5 -3h-36q-13 0 -13 8q0 5 7 12l80 89q13 14 20 18.5t18 4.5h36q11 0 18 -4.5t20 -18.5l80 -89q7 -7 7 -12
q0 -8 -13 -8h-36q-11 0 -17.5 3t-15.5 13z" />
    <glyph glyph-name="Jcircumflex" unicode="&#x134;" horiz-adv-x="529" 
d="M109 174q5 -57 39 -87t92 -30q39 0 65.5 10.5t43 34.5t24 62.5t7.5 94.5v433q0 12 4.5 16t16.5 4h38q12 0 16.5 -4t4.5 -16v-456q0 -129 -52.5 -190.5t-163.5 -61.5q-100 0 -157.5 50t-57.5 138q0 11 4.5 15t17.5 4h35q13 0 17.5 -3t5.5 -14zM420 843l-61 -65
q-10 -10 -16.5 -13t-16.5 -3h-36q-13 0 -13 8q0 5 7 12l80 89q13 14 20 18.5t18 4.5h36q11 0 18 -4.5t20 -18.5l80 -89q7 -7 7 -12q0 -8 -13 -8h-36q-11 0 -17.5 3t-15.5 13z" />
    <glyph glyph-name="Ocircumflex" unicode="&#xd4;" horiz-adv-x="616" 
d="M308 658q-88 0 -128 -50.5t-40 -162.5v-178q0 -112 40 -162.5t128 -50.5t128 50.5t40 162.5v178q0 112 -40 162.5t-128 50.5zM308 728q172 0 228 -136q6 -15 10.5 -30t7 -33t3.5 -40t1 -51v-154q0 -30 -1 -53t-3.5 -41.5t-7 -34t-10.5 -30.5q-56 -141 -228 -141
q-173 0 -228 134q-6 15 -10.5 30.5t-7 33.5t-3.5 40.5t-1 51.5v154q0 30 1 53t3.5 41.5t7 34t10.5 30.5q56 141 228 141zM308 843l-61 -65q-10 -10 -16.5 -13t-16.5 -3h-36q-13 0 -13 8q0 5 7 12l80 89q13 14 20 18.5t18 4.5h36q11 0 18 -4.5t20 -18.5l80 -89q7 -7 7 -12
q0 -8 -13 -8h-36q-11 0 -17.5 3t-15.5 13z" />
    <glyph glyph-name="Scircumflex" unicode="&#x15c;" horiz-adv-x="550" 
d="M124 155q11 -49 50.5 -74.5t104.5 -25.5q69 0 107 32.5t38 92.5q0 92 -99 127l-129 43q-141 48 -141 178v5q0 93 60.5 144t171.5 51q63 0 105 -16t71 -51q16 -19 26 -46t10 -50q0 -11 -4.5 -15t-17.5 -4h-35q-13 0 -17 3t-6 14q-15 97 -140 97q-68 0 -106 -32t-38 -89
q0 -24 5.5 -42.5t18 -33t33.5 -25.5t52 -21l129 -43q66 -23 100 -70.5t34 -115.5v-5q0 -45 -16 -82t-45 -63t-71 -40t-93 -14q-125 0 -186 58q-22 21 -37 53t-15 58q0 11 4.5 15t17.5 4h35q12 0 16.5 -3t6.5 -14zM280 843l-61 -65q-10 -10 -16.5 -13t-16.5 -3h-36
q-13 0 -13 8q0 5 7 12l80 89q13 14 20 18.5t18 4.5h36q11 0 18 -4.5t20 -18.5l80 -89q7 -7 7 -12q0 -8 -13 -8h-36q-11 0 -17.5 3t-15.5 13z" />
    <glyph glyph-name="Ucircumflex" unicode="&#xdb;" horiz-adv-x="616" 
d="M547 242q0 -128 -59.5 -193t-175.5 -65h-9q-234 0 -234 258v450q0 12 4.5 16t16.5 4h38q12 0 16.5 -4t4.5 -16v-451q0 -183 152 -183h13q153 0 153 183v451q0 12 4.5 16t16.5 4h38q12 0 16.5 -4t4.5 -16v-450zM308 843l-61 -65q-10 -10 -16.5 -13t-16.5 -3h-36
q-13 0 -13 8q0 5 7 12l80 89q13 14 20 18.5t18 4.5h36q11 0 18 -4.5t20 -18.5l80 -89q7 -7 7 -12q0 -8 -13 -8h-36q-11 0 -17.5 3t-15.5 13z" />
    <glyph glyph-name="Wcircumflex" unicode="&#x174;" horiz-adv-x="776" 
d="M74 712q13 0 18 -3.5t7 -14.5l122 -593l122 564q3 13 9 17.5t17 4.5h42q22 0 26 -22l114 -566l127 595q2 11 7 14.5t18 3.5h39q16 0 16 -12q0 -1 -2 -11l-150 -667q-3 -13 -9 -17.5t-17 -4.5h-59q-22 0 -26 22l-109 527l-113 -527q-3 -13 -9 -17.5t-17 -4.5h-59
q-22 0 -26 22l-142 667q-2 10 -2 11q0 12 16 12h40zM388 843l-61 -65q-10 -10 -16.5 -13t-16.5 -3h-36q-13 0 -13 8q0 5 7 12l80 89q13 14 20 18.5t18 4.5h36q11 0 18 -4.5t20 -18.5l80 -89q7 -7 7 -12q0 -8 -13 -8h-36q-11 0 -17.5 3t-15.5 13z" />
    <glyph glyph-name="Ycircumflex" unicode="&#x176;" horiz-adv-x="539" 
d="M76 712q12 0 17 -3t10 -14l170 -344l167 344q5 11 10 14t17 3h40q18 0 18 -12q0 -4 -3 -10l-212 -420v-250q0 -12 -4.5 -16t-16.5 -4h-38q-12 0 -16.5 4t-4.5 16v250l-213 420q-3 6 -3 10q0 12 18 12h44zM269 843l-61 -65q-10 -10 -16.5 -13t-16.5 -3h-36q-13 0 -13 8
q0 5 7 12l80 89q13 14 20 18.5t18 4.5h36q11 0 18 -4.5t20 -18.5l80 -89q7 -7 7 -12q0 -8 -13 -8h-36q-11 0 -17.5 3t-15.5 13z" />
    <glyph glyph-name="Atilde" unicode="&#xc3;" horiz-adv-x="602" 
d="M586 21q2 -6 2 -9q0 -12 -16 -12h-45q-13 0 -17 3t-8 14l-59 178h-288l-58 -178q-4 -11 -8 -14t-17 -3h-42q-16 0 -16 12q0 3 2 9l229 669q4 12 9 17t17 5h64q12 0 17 -5.5t9 -16.5zM178 265h242l-120 368zM331 847q16 -9 24 -12t16 -3q14 0 19.5 10t5.5 33v7q0 11 11 11
h38q11 0 11 -11v-7q0 -51 -20 -78t-58 -27q-17 0 -32 5t-43 20l-32 17q-16 9 -24 12t-16 3q-14 0 -20 -10t-6 -33v-7q0 -11 -11 -11h-37q-11 0 -11 11v7q0 51 20 78t58 27q17 0 31.5 -4.5t43.5 -20.5z" />
    <glyph glyph-name="Itilde" unicode="&#x128;" horiz-adv-x="232" 
d="M156 20q0 -12 -4.5 -16t-16.5 -4h-38q-12 0 -16.5 4t-4.5 16v672q0 12 4.5 16t16.5 4h38q12 0 16.5 -4t4.5 -16v-672zM146 847q16 -9 24 -12t16 -3q14 0 19.5 10t5.5 33v7q0 11 11 11h38q11 0 11 -11v-7q0 -51 -20 -78t-58 -27q-17 0 -32 5t-43 20l-32 17q-16 9 -24 12
t-16 3q-14 0 -20 -10t-6 -33v-7q0 -11 -11 -11h-37q-11 0 -11 11v7q0 51 20 78t58 27q17 0 31.5 -4.5t43.5 -20.5z" />
    <glyph glyph-name="Ntilde" unicode="&#xd1;" horiz-adv-x="622" 
d="M154 577v-557q0 -12 -4.5 -16t-16.5 -4h-36q-12 0 -16.5 4t-4.5 16v672q0 12 4.5 16t16.5 4h49q11 0 16.5 -4t11.5 -15l294 -558v557q0 12 4.5 16t16.5 4h36q12 0 16.5 -4t4.5 -16v-672q0 -12 -4.5 -16t-16.5 -4h-49q-11 0 -16.5 4t-11.5 15zM346 847q16 -9 24 -12t16 -3
q14 0 19.5 10t5.5 33v7q0 11 11 11h38q11 0 11 -11v-7q0 -51 -20 -78t-58 -27q-17 0 -32 5t-43 20l-32 17q-16 9 -24 12t-16 3q-14 0 -20 -10t-6 -33v-7q0 -11 -11 -11h-37q-11 0 -11 11v7q0 51 20 78t58 27q17 0 31.5 -4.5t43.5 -20.5z" />
    <glyph glyph-name="Otilde" unicode="&#xd5;" horiz-adv-x="616" 
d="M308 658q-88 0 -128 -50.5t-40 -162.5v-178q0 -112 40 -162.5t128 -50.5t128 50.5t40 162.5v178q0 112 -40 162.5t-128 50.5zM308 728q172 0 228 -136q6 -15 10.5 -30t7 -33t3.5 -40t1 -51v-154q0 -30 -1 -53t-3.5 -41.5t-7 -34t-10.5 -30.5q-56 -141 -228 -141
q-173 0 -228 134q-6 15 -10.5 30.5t-7 33.5t-3.5 40.5t-1 51.5v154q0 30 1 53t3.5 41.5t7 34t10.5 30.5q56 141 228 141zM338 847q16 -9 24 -12t16 -3q14 0 19.5 10t5.5 33v7q0 11 11 11h38q11 0 11 -11v-7q0 -51 -20 -78t-58 -27q-17 0 -32 5t-43 20l-32 17q-16 9 -24 12
t-16 3q-14 0 -20 -10t-6 -33v-7q0 -11 -11 -11h-37q-11 0 -11 11v7q0 51 20 78t58 27q17 0 31.5 -4.5t43.5 -20.5z" />
    <glyph glyph-name="Utilde" unicode="&#x168;" horiz-adv-x="616" 
d="M547 242q0 -128 -59.5 -193t-175.5 -65h-9q-234 0 -234 258v450q0 12 4.5 16t16.5 4h38q12 0 16.5 -4t4.5 -16v-451q0 -183 152 -183h13q153 0 153 183v451q0 12 4.5 16t16.5 4h38q12 0 16.5 -4t4.5 -16v-450zM338 847q16 -9 24 -12t16 -3q14 0 19.5 10t5.5 33v7
q0 11 11 11h38q11 0 11 -11v-7q0 -51 -20 -78t-58 -27q-17 0 -32 5t-43 20l-32 17q-16 9 -24 12t-16 3q-14 0 -20 -10t-6 -33v-7q0 -11 -11 -11h-37q-11 0 -11 11v7q0 51 20 78t58 27q17 0 31.5 -4.5t43.5 -20.5z" />
    <glyph glyph-name="acircumflex" unicode="&#xe2;" horiz-adv-x="506" 
d="M255 320q20 0 51 -2t62 -6v59q0 55 -25.5 79.5t-83.5 24.5q-47 0 -71.5 -13.5t-38.5 -46.5q-5 -11 -8 -14t-15 -3h-36q-13 0 -17.5 4t-4.5 15q0 14 8 30.5t20 30.5q26 30 65 45t98 15q100 0 144 -38.5t44 -126.5v-205q0 -91 -45 -134.5t-144 -43.5h-15
q-102 0 -150.5 37.5t-48.5 121.5q0 89 51 130t160 41zM261 254q-77 0 -106.5 -24t-29.5 -80q0 -49 27.5 -71t96.5 -22h9q59 0 84.5 28.5t25.5 91.5v68q-30 4 -59.5 6.5t-47.5 2.5zM263 679l-52 -67q-11 -14 -16 -18t-17 -4h-32q-13 0 -13 8q0 5 5 11l76 99q11 14 16.5 18
t16.5 4h32q11 0 16.5 -4t16.5 -18l76 -99q5 -6 5 -11q0 -8 -13 -8h-31q-11 0 -16 3t-17 19z" />
    <glyph glyph-name="ccircumflex" unicode="&#x109;" horiz-adv-x="496" 
d="M256 54q102 0 117 86q2 11 6 14t17 3h33q13 0 17.5 -4t4.5 -15q0 -18 -7.5 -40.5t-21.5 -42.5q-46 -69 -168 -69q-101 0 -153 55t-52 163v99q0 117 52 176t153 59q109 0 158 -55q38 -43 38 -97q0 -11 -4.5 -15t-17.5 -4h-32q-13 0 -17 3t-6 14q-5 42 -34.5 64.5
t-80.5 22.5q-68 0 -99 -39.5t-31 -127.5v-84q0 -86 31 -126t97 -40zM258 679l-52 -67q-11 -14 -16 -18t-17 -4h-32q-13 0 -13 8q0 5 5 11l76 99q11 14 16.5 18t16.5 4h32q11 0 16.5 -4t16.5 -18l76 -99q5 -6 5 -11q0 -8 -13 -8h-31q-11 0 -16 3t-17 19z" />
    <glyph glyph-name="ecircumflex" unicode="&#xea;" horiz-adv-x="513" 
d="M128 238v-19q0 -165 134 -165q85 0 113 65q5 12 8.5 14.5t14.5 2.5h36q14 0 18 -2.5t4 -13.5q0 -14 -11 -36t-25 -38q-25 -28 -67.5 -44t-93.5 -16q-101 0 -155.5 59t-54.5 168v75q0 121 54 185.5t157 64.5q206 0 206 -229v-51q0 -12 -4.5 -16t-16.5 -4h-317zM260 476
q-131 0 -132 -173h258q0 89 -30.5 131t-95.5 42zM262 679l-52 -67q-11 -14 -16 -18t-17 -4h-32q-13 0 -13 8q0 5 5 11l76 99q11 14 16.5 18t16.5 4h32q11 0 16.5 -4t16.5 -18l76 -99q5 -6 5 -11q0 -8 -13 -8h-31q-11 0 -16 3t-17 19z" />
    <glyph glyph-name="gcircumflex" unicode="&#x11d;" horiz-adv-x="537" 
d="M155 -74q11 -23 36 -34.5t70 -11.5q71 0 103 28q35 32 35 100v47q-25 -29 -62 -44t-84 -15q-99 0 -151.5 56t-52.5 162v96q0 109 55.5 168.5t158.5 59.5t159 -57t56 -161v-308q0 -57 -15 -95t-43.5 -60.5t-68.5 -32t-91 -9.5q-42 0 -76.5 8t-59 23t-38.5 35.5t-14 45.5
q0 11 4 13.5t18 2.5h38q11 0 14.5 -2.5t8.5 -14.5zM128 230q0 -166 136 -166q135 0 135 166v74q0 166 -136 166q-135 0 -135 -166v-74zM264 679l-52 -67q-11 -14 -16 -18t-17 -4h-32q-13 0 -13 8q0 5 5 11l76 99q11 14 16.5 18t16.5 4h32q11 0 16.5 -4t16.5 -18l76 -99
q5 -6 5 -11q0 -8 -13 -8h-31q-11 0 -16 3t-17 19z" />
    <glyph glyph-name="hcircumflex" unicode="&#x125;" horiz-adv-x="536" 
d="M148 471q26 32 65 49.5t87 17.5q84 0 128 -45t44 -131v-342q0 -12 -4.5 -16t-16.5 -4h-37q-12 0 -16.5 4t-4.5 16v325q0 64 -27 93.5t-87 29.5t-95.5 -38.5t-35.5 -102.5v-307q0 -12 -4.5 -16t-16.5 -4h-37q-12 0 -16.5 4t-4.5 16v672q0 12 4.5 16t16.5 4h37
q12 0 16.5 -4t4.5 -16v-221zM212 843l-61 -65q-10 -10 -16.5 -13t-16.5 -3h-36q-13 0 -13 8q0 5 7 12l80 89q13 14 20 18.5t18 4.5h36q11 0 18 -4.5t20 -18.5l80 -89q7 -7 7 -12q0 -8 -13 -8h-36q-11 0 -17.5 3t-15.5 13z" />
    <glyph glyph-name="icircumflex" unicode="&#xee;" horiz-adv-x="217" 
d="M91 0q-22 0 -22 21v482q0 14 4 17.5t18 3.5h35q14 0 18 -3.5t4 -17.5v-482q0 -14 -4 -17.5t-18 -3.5h-35zM108 679l-52 -67q-11 -14 -16 -18t-17 -4h-32q-13 0 -13 8q0 5 5 11l76 99q11 14 16.5 18t16.5 4h32q11 0 16.5 -4t16.5 -18l76 -99q5 -6 5 -11q0 -8 -13 -8h-31
q-11 0 -16 3t-17 19z" />
    <glyph glyph-name="jcircumflex" unicode="&#x135;" horiz-adv-x="217" 
d="M-7 -101q44 0 60 14.5t16 52.5v538q0 12 4.5 16t16.5 4h37q12 0 16.5 -4t4.5 -16v-543q0 -132 -139 -132h-45q-11 0 -14 4t-3 16v30q0 12 3 16t14 4h29zM108 679l-52 -67q-11 -14 -16 -18t-17 -4h-32q-13 0 -13 8q0 5 5 11l76 99q11 14 16.5 18t16.5 4h32q11 0 16.5 -4
t16.5 -18l76 -99q5 -6 5 -11q0 -8 -13 -8h-31q-11 0 -16 3t-17 19z" />
    <glyph glyph-name="ocircumflex" unicode="&#xf4;" horiz-adv-x="530" 
d="M265 -14q-103 0 -159.5 57t-56.5 161v106q0 109 56.5 168.5t159.5 59.5t159.5 -57t56.5 -161v-106q0 -109 -56.5 -168.5t-159.5 -59.5zM265 54q137 0 137 166v84q0 166 -137 166t-137 -166v-84q0 -166 137 -166zM265 679l-52 -67q-11 -14 -16 -18t-17 -4h-32q-13 0 -13 8
q0 5 5 11l76 99q11 14 16.5 18t16.5 4h32q11 0 16.5 -4t16.5 -18l76 -99q5 -6 5 -11q0 -8 -13 -8h-31q-11 0 -16 3t-17 19z" />
    <glyph glyph-name="scircumflex" unicode="&#x15d;" horiz-adv-x="475" 
d="M241 -14q-109 0 -161 49q-39 37 -39 88q0 11 4.5 15t17.5 4h29q12 0 16.5 -3t6.5 -14q9 -40 38 -58t86 -18q114 0 114 81q0 38 -20.5 59.5t-70.5 34.5l-89 23q-62 17 -91 49.5t-29 86.5v5q0 69 50 109.5t137 40.5q105 0 152 -50q36 -36 36 -85q0 -11 -4.5 -15t-17.5 -4
h-29q-13 0 -17 3t-6 14q-12 75 -121 75q-50 0 -77.5 -22t-27.5 -62q0 -17 5 -29t17 -22t31.5 -18t48.5 -15l82 -21q120 -30 120 -146v-5q0 -150 -191 -150zM238 679l-52 -67q-11 -14 -16 -18t-17 -4h-32q-13 0 -13 8q0 5 5 11l76 99q11 14 16.5 18t16.5 4h32q11 0 16.5 -4
t16.5 -18l76 -99q5 -6 5 -11q0 -8 -13 -8h-31q-11 0 -16 3t-17 19z" />
    <glyph glyph-name="ucircumflex" unicode="&#xfb;" horiz-adv-x="526" 
d="M380 54q-26 -33 -63.5 -50.5t-85.5 -17.5q-81 0 -124 45t-43 131v342q0 12 4.5 16t16.5 4h37q12 0 16.5 -4t4.5 -16v-325q0 -64 26 -93.5t83 -29.5t91.5 38.5t34.5 102.5v307q0 12 4.5 16t16.5 4h37q12 0 16.5 -4t4.5 -16v-484q0 -12 -4.5 -16t-16.5 -4h-35
q-12 0 -16.5 4t-4.5 16v34zM260 679l-52 -67q-11 -14 -16 -18t-17 -4h-32q-13 0 -13 8q0 5 5 11l76 99q11 14 16.5 18t16.5 4h32q11 0 16.5 -4t16.5 -18l76 -99q5 -6 5 -11q0 -8 -13 -8h-31q-11 0 -16 3t-17 19z" />
    <glyph glyph-name="wcircumflex" unicode="&#x175;" horiz-adv-x="721" 
d="M385 504q11 0 17 -4.5t9 -17.5l108 -412l111 433q3 12 7.5 16.5t15.5 4.5h41q16 0 16 -12q0 -3 -3 -13l-132 -477q-4 -13 -9.5 -17.5t-16.5 -4.5h-66q-11 0 -17 4.5t-9 17.5l-97 383l-97 -383q-3 -13 -9 -17.5t-17 -4.5h-66q-11 0 -16.5 4.5t-9.5 17.5l-131 477
q-3 10 -3 13q0 12 16 12h42q10 0 14.5 -4t8.5 -17l115 -433l104 412q3 13 9 17.5t17 4.5h48zM360 679l-52 -67q-11 -14 -16 -18t-17 -4h-32q-13 0 -13 8q0 5 5 11l76 99q11 14 16.5 18t16.5 4h32q11 0 16.5 -4t16.5 -18l76 -99q5 -6 5 -11q0 -8 -13 -8h-31q-11 0 -16 3
t-17 19z" />
    <glyph glyph-name="ycircumflex" unicode="&#x177;" horiz-adv-x="462" 
d="M82 -101q21 0 36.5 3t27.5 12t21.5 25t18.5 41l12 35l-184 485q-3 9 -3 12q0 12 16 12h44q10 0 14 -4t9 -17l143 -386l133 386q5 13 9 17t14 4h42q16 0 16 -12q0 -3 -3 -12l-188 -526q-16 -46 -33.5 -74.5t-37.5 -44t-43.5 -21t-52.5 -5.5h-23q-11 0 -14 4t-3 16v30
q0 12 3 16t14 4h12zM232 679l-52 -67q-11 -14 -16 -18t-17 -4h-32q-13 0 -13 8q0 5 5 11l76 99q11 14 16.5 18t16.5 4h32q11 0 16.5 -4t16.5 -18l76 -99q5 -6 5 -11q0 -8 -13 -8h-31q-11 0 -16 3t-17 19z" />
    <glyph glyph-name="atilde" unicode="&#xe3;" horiz-adv-x="506" 
d="M255 320q20 0 51 -2t62 -6v59q0 55 -25.5 79.5t-83.5 24.5q-47 0 -71.5 -13.5t-38.5 -46.5q-5 -11 -8 -14t-15 -3h-36q-13 0 -17.5 4t-4.5 15q0 14 8 30.5t20 30.5q26 30 65 45t98 15q100 0 144 -38.5t44 -126.5v-205q0 -91 -45 -134.5t-144 -43.5h-15
q-102 0 -150.5 37.5t-48.5 121.5q0 89 51 130t160 41zM261 254q-77 0 -106.5 -24t-29.5 -80q0 -49 27.5 -71t96.5 -22h9q59 0 84.5 28.5t25.5 91.5v68q-30 4 -59.5 6.5t-47.5 2.5zM190 717q18 0 32.5 -5t39.5 -20l29 -18q15 -9 22 -12t15 -3q25 0 25 43v7q0 11 11 11h36
q11 0 11 -11v-7q0 -50 -19 -76t-56 -26q-18 0 -32.5 5t-39.5 20l-29 18q-15 9 -22 12t-15 3q-25 0 -25 -43v-7q0 -11 -11 -11h-36q-11 0 -11 11v7q0 50 19 76t56 26z" />
    <glyph glyph-name="itilde" unicode="&#x129;" horiz-adv-x="217" 
d="M91 0q-22 0 -22 21v482q0 14 4 17.5t18 3.5h35q14 0 18 -3.5t4 -17.5v-482q0 -14 -4 -17.5t-18 -3.5h-35zM35 717q18 0 32.5 -5t39.5 -20l29 -18q15 -9 22 -12t15 -3q25 0 25 43v7q0 11 11 11h36q11 0 11 -11v-7q0 -50 -19 -76t-56 -26q-18 0 -32.5 5t-39.5 20l-29 18
q-15 9 -22 12t-15 3q-25 0 -25 -43v-7q0 -11 -11 -11h-36q-11 0 -11 11v7q0 50 19 76t56 26z" />
    <glyph glyph-name="ntilde" unicode="&#xf1;" horiz-adv-x="536" 
d="M300 538q84 0 128 -45t44 -131v-342q0 -12 -4.5 -16t-16.5 -4h-37q-12 0 -16.5 4t-4.5 16v325q0 64 -27 93.5t-87 29.5t-95.5 -38.5t-35.5 -102.5v-307q0 -12 -4.5 -16t-16.5 -4h-37q-12 0 -16.5 4t-4.5 16v484q0 12 4.5 16t16.5 4h35q12 0 16.5 -4t4.5 -16v-35
q25 33 64.5 51t89.5 18zM207 717q18 0 32.5 -5t39.5 -20l29 -18q15 -9 22 -12t15 -3q25 0 25 43v7q0 11 11 11h36q11 0 11 -11v-7q0 -50 -19 -76t-56 -26q-18 0 -32.5 5t-39.5 20l-29 18q-15 9 -22 12t-15 3q-25 0 -25 -43v-7q0 -11 -11 -11h-36q-11 0 -11 11v7q0 50 19 76
t56 26z" />
    <glyph glyph-name="otilde" unicode="&#xf5;" horiz-adv-x="530" 
d="M265 -14q-103 0 -159.5 57t-56.5 161v106q0 109 56.5 168.5t159.5 59.5t159.5 -57t56.5 -161v-106q0 -109 -56.5 -168.5t-159.5 -59.5zM265 54q137 0 137 166v84q0 166 -137 166t-137 -166v-84q0 -166 137 -166zM192 717q18 0 32.5 -5t39.5 -20l29 -18q15 -9 22 -12
t15 -3q25 0 25 43v7q0 11 11 11h36q11 0 11 -11v-7q0 -50 -19 -76t-56 -26q-18 0 -32.5 5t-39.5 20l-29 18q-15 9 -22 12t-15 3q-25 0 -25 -43v-7q0 -11 -11 -11h-36q-11 0 -11 11v7q0 50 19 76t56 26z" />
    <glyph glyph-name="utilde" unicode="&#x169;" horiz-adv-x="526" 
d="M380 54q-26 -33 -63.5 -50.5t-85.5 -17.5q-81 0 -124 45t-43 131v342q0 12 4.5 16t16.5 4h37q12 0 16.5 -4t4.5 -16v-325q0 -64 26 -93.5t83 -29.5t91.5 38.5t34.5 102.5v307q0 12 4.5 16t16.5 4h37q12 0 16.5 -4t4.5 -16v-484q0 -12 -4.5 -16t-16.5 -4h-35
q-12 0 -16.5 4t-4.5 16v34zM187 717q18 0 32.5 -5t39.5 -20l29 -18q15 -9 22 -12t15 -3q25 0 25 43v7q0 11 11 11h36q11 0 11 -11v-7q0 -50 -19 -76t-56 -26q-18 0 -32.5 5t-39.5 20l-29 18q-15 9 -22 12t-15 3q-25 0 -25 -43v-7q0 -11 -11 -11h-36q-11 0 -11 11v7
q0 50 19 76t56 26z" />
    <glyph glyph-name="uni030C" unicode="&#x30c;" 
d="M0 641l52 67q12 16 17 19t16 3h32q13 0 13 -8q0 -6 -5 -11l-76 -99q-11 -14 -16.5 -18t-16.5 -4h-32q-11 0 -16.5 4t-16.5 18l-76 99q-5 5 -5 11q0 8 13 8h31q12 0 17 -3t16 -19z" />
    <glyph glyph-name="uni030C.cap" 
d="M0 813l61 65q9 10 15.5 13t17.5 3h36q13 0 13 -8q0 -5 -7 -12l-80 -89q-13 -14 -20 -18.5t-18 -4.5h-36q-11 0 -18 4.5t-20 18.5l-80 89q-7 7 -7 12q0 8 13 8h36q11 0 18 -3.5t15 -12.5z" />
    <glyph glyph-name="caron" unicode="&#x2c7;" horiz-adv-x="500" 
d="M250 641l52 67q12 16 17 19t16 3h32q13 0 13 -8q0 -6 -5 -11l-76 -99q-11 -14 -16.5 -18t-16.5 -4h-32q-11 0 -16.5 4t-16.5 18l-76 99q-5 5 -5 11q0 8 13 8h31q12 0 17 -3t16 -19z" />
    <glyph glyph-name="uni0315" unicode="&#x315;" 
d="M93 694q0 -5 -0.5 -11t-1.5 -14l-16 -120q-2 -11 -5.5 -15t-16.5 -4h-12q-12 0 -16.5 4t-4.5 16v142q0 12 4.5 16t17.5 4h28q14 0 18.5 -4.5t4.5 -13.5z" />
    <glyph glyph-name="uni0315.short" 
d="M102 694q0 -7 -3 -25l-13 -80q-2 -13 -6 -16.5t-17 -3.5h-13q-12 0 -16.5 4t-4.5 16v103q0 12 4.5 16t17.5 4h28q14 0 18.5 -4.5t4.5 -13.5z" />
    <glyph glyph-name="uni0304" unicode="&#x304;" 
d="M117 686q11 0 14 -4t3 -16v-26q0 -12 -3 -16t-14 -4h-234q-11 0 -14 4t-3 16v26q0 12 3 16t14 4h234z" />
    <glyph glyph-name="uni0304.cap" 
d="M117 858q11 0 14 -4t3 -16v-26q0 -12 -3 -16t-14 -4h-234q-11 0 -14 4t-3 16v26q0 12 3 16t14 4h234z" />
    <glyph glyph-name="uni02C9" unicode="&#x2c9;" horiz-adv-x="500" 
d="M367 686q11 0 14 -4t3 -16v-26q0 -12 -3 -16t-14 -4h-234q-11 0 -14 4t-3 16v26q0 12 3 16t14 4h234z" />
    <glyph glyph-name="macron" unicode="&#xaf;" horiz-adv-x="500" 
d="M367 686q11 0 14 -4t3 -16v-26q0 -12 -3 -16t-14 -4h-234q-11 0 -14 4t-3 16v26q0 12 3 16t14 4h234z" />
    <glyph glyph-name="Ccaron" unicode="&#x10c;" horiz-adv-x="589" 
d="M463 189q1 11 5.5 14t17.5 3h35q13 0 17.5 -4t4.5 -15q0 -41 -13.5 -77t-37.5 -60q-67 -66 -189 -66q-81 0 -138.5 31.5t-85.5 97.5q-11 29 -16 64.5t-5 91.5v164q0 57 5 93t16 64q27 68 85.5 103t146.5 35q127 0 183 -64q49 -53 49 -136q0 -11 -4.5 -15t-17.5 -4h-37
q-13 0 -17.5 3t-5.5 14q-10 131 -155 131q-88 0 -127 -50t-39 -162v-178q0 -111 39 -161t126 -50q146 0 158 133zM312 813l61 65q9 10 15.5 13t17.5 3h36q13 0 13 -8q0 -5 -7 -12l-80 -89q-13 -14 -20 -18.5t-18 -4.5h-36q-11 0 -18 4.5t-20 18.5l-80 89q-7 7 -7 12
q0 8 13 8h36q11 0 18 -3.5t15 -12.5z" />
    <glyph glyph-name="Dcaron" unicode="&#x10e;" horiz-adv-x="607" 
d="M300 712q82 0 142.5 -35t83.5 -96q23 -63 23 -152v-151q0 -49 -5.5 -84.5t-17.5 -64.5q-25 -62 -82.5 -95.5t-138.5 -33.5h-208q-12 0 -16.5 4t-4.5 16v672q0 12 4.5 16t16.5 4h203zM156 68h142q88 0 128.5 50t40.5 158v160q0 108 -40.5 158t-128.5 50h-142v-576z
M290 813l61 65q9 10 15.5 13t17.5 3h36q13 0 13 -8q0 -5 -7 -12l-80 -89q-13 -14 -20 -18.5t-18 -4.5h-36q-11 0 -18 4.5t-20 18.5l-80 89q-7 7 -7 12q0 8 13 8h36q11 0 18 -3.5t15 -12.5z" />
    <glyph glyph-name="Ecaron" unicode="&#x11a;" horiz-adv-x="550" 
d="M492 20q0 -12 -4.5 -16t-16.5 -4h-374q-12 0 -16.5 4t-4.5 16v672q0 12 4.5 16t16.5 4h370q12 0 16.5 -4t4.5 -16v-28q0 -12 -4.5 -16t-16.5 -4h-311v-244h285q12 0 16.5 -4t4.5 -16v-28q0 -12 -4.5 -16t-16.5 -4h-285v-264h315q12 0 16.5 -4t4.5 -16v-28zM282 813l61 65
q9 10 15.5 13t17.5 3h36q13 0 13 -8q0 -5 -7 -12l-80 -89q-13 -14 -20 -18.5t-18 -4.5h-36q-11 0 -18 4.5t-20 18.5l-80 89q-7 7 -7 12q0 8 13 8h36q11 0 18 -3.5t15 -12.5z" />
    <glyph glyph-name="Lcaron" unicode="&#x13d;" horiz-adv-x="498" 
d="M469 20q0 -12 -4.5 -16t-16.5 -4h-351q-12 0 -16.5 4t-4.5 16v672q0 12 4.5 16t16.5 4h38q12 0 16.5 -4t4.5 -16v-624h292q12 0 16.5 -4t4.5 -16v-28zM307 745q0 -5 -0.5 -11t-1.5 -14l-16 -120q-2 -11 -5.5 -15t-16.5 -4h-12q-12 0 -16.5 4t-4.5 16v142q0 12 4.5 16
t17.5 4h28q14 0 18.5 -4.5t4.5 -13.5z" />
    <glyph glyph-name="Ncaron" unicode="&#x147;" horiz-adv-x="622" 
d="M154 577v-557q0 -12 -4.5 -16t-16.5 -4h-36q-12 0 -16.5 4t-4.5 16v672q0 12 4.5 16t16.5 4h49q11 0 16.5 -4t11.5 -15l294 -558v557q0 12 4.5 16t16.5 4h36q12 0 16.5 -4t4.5 -16v-672q0 -12 -4.5 -16t-16.5 -4h-49q-11 0 -16.5 4t-11.5 15zM316 813l61 65q9 10 15.5 13
t17.5 3h36q13 0 13 -8q0 -5 -7 -12l-80 -89q-13 -14 -20 -18.5t-18 -4.5h-36q-11 0 -18 4.5t-20 18.5l-80 89q-7 7 -7 12q0 8 13 8h36q11 0 18 -3.5t15 -12.5z" />
    <glyph glyph-name="Rcaron" unicode="&#x158;" horiz-adv-x="590" 
d="M154 301v-281q0 -12 -4.5 -16t-16.5 -4h-36q-12 0 -16.5 4t-4.5 16v672q0 12 4.5 16t16.5 4h200q112 0 170 -44.5t58 -153.5v-19q0 -78 -36 -124t-103 -62l163 -289q3 -6 3 -9q0 -11 -18 -11h-49q-11 0 -16.5 3.5t-12.5 16.5l-154 281h-148zM154 369h146q47 0 75 10
t43 27t19.5 40t4.5 49v15q0 28 -4.5 52.5t-19.5 42.5t-43 28.5t-75 10.5h-146v-275zM286 813l61 65q9 10 15.5 13t17.5 3h36q13 0 13 -8q0 -5 -7 -12l-80 -89q-13 -14 -20 -18.5t-18 -4.5h-36q-11 0 -18 4.5t-20 18.5l-80 89q-7 7 -7 12q0 8 13 8h36q11 0 18 -3.5t15 -12.5z
" />
    <glyph glyph-name="Scaron" unicode="&#x160;" horiz-adv-x="550" 
d="M124 155q11 -49 50.5 -74.5t104.5 -25.5q69 0 107 32.5t38 92.5q0 92 -99 127l-129 43q-141 48 -141 178v5q0 93 60.5 144t171.5 51q63 0 105 -16t71 -51q16 -19 26 -46t10 -50q0 -11 -4.5 -15t-17.5 -4h-35q-13 0 -17 3t-6 14q-15 97 -140 97q-68 0 -106 -32t-38 -89
q0 -24 5.5 -42.5t18 -33t33.5 -25.5t52 -21l129 -43q66 -23 100 -70.5t34 -115.5v-5q0 -45 -16 -82t-45 -63t-71 -40t-93 -14q-125 0 -186 58q-22 21 -37 53t-15 58q0 11 4.5 15t17.5 4h35q12 0 16.5 -3t6.5 -14zM280 813l61 65q9 10 15.5 13t17.5 3h36q13 0 13 -8
q0 -5 -7 -12l-80 -89q-13 -14 -20 -18.5t-18 -4.5h-36q-11 0 -18 4.5t-20 18.5l-80 89q-7 7 -7 12q0 8 13 8h36q11 0 18 -3.5t15 -12.5z" />
    <glyph glyph-name="Tcaron" unicode="&#x164;" horiz-adv-x="550" 
d="M235 644h-192q-12 0 -16.5 4t-4.5 16v28q0 12 4.5 16t16.5 4h464q12 0 16.5 -4t4.5 -16v-28q0 -12 -4.5 -16t-16.5 -4h-192v-624q0 -12 -4.5 -16t-16.5 -4h-38q-12 0 -16.5 4t-4.5 16v624zM275 813l61 65q9 10 15.5 13t17.5 3h36q13 0 13 -8q0 -5 -7 -12l-80 -89
q-13 -14 -20 -18.5t-18 -4.5h-36q-11 0 -18 4.5t-20 18.5l-80 89q-7 7 -7 12q0 8 13 8h36q11 0 18 -3.5t15 -12.5z" />
    <glyph glyph-name="Zcaron" unicode="&#x17d;" horiz-adv-x="548" 
d="M500 662q0 -10 -2.5 -17t-6.5 -13l-361 -564h357q12 0 16.5 -4t4.5 -16v-28q0 -12 -4.5 -16t-16.5 -4h-426q-12 0 -16.5 4t-4.5 16v30q0 10 2.5 17t6.5 13l361 564h-334q-12 0 -16.5 4t-4.5 16v28q0 12 4.5 16t16.5 4h403q12 0 16.5 -4t4.5 -16v-30zM277 813l61 65
q9 10 15.5 13t17.5 3h36q13 0 13 -8q0 -5 -7 -12l-80 -89q-13 -14 -20 -18.5t-18 -4.5h-36q-11 0 -18 4.5t-20 18.5l-80 89q-7 7 -7 12q0 8 13 8h36q11 0 18 -3.5t15 -12.5z" />
    <glyph glyph-name="Amacron" unicode="&#x100;" horiz-adv-x="602" 
d="M586 21q2 -6 2 -9q0 -12 -16 -12h-45q-13 0 -17 3t-8 14l-59 178h-288l-58 -178q-4 -11 -8 -14t-17 -3h-42q-16 0 -16 12q0 3 2 9l229 669q4 12 9 17t17 5h64q12 0 17 -5.5t9 -16.5zM178 265h242l-120 368zM418 858q11 0 14 -4t3 -16v-26q0 -12 -3 -16t-14 -4h-234
q-11 0 -14 4t-3 16v26q0 12 3 16t14 4h234z" />
    <glyph glyph-name="Emacron" unicode="&#x112;" horiz-adv-x="550" 
d="M492 20q0 -12 -4.5 -16t-16.5 -4h-374q-12 0 -16.5 4t-4.5 16v672q0 12 4.5 16t16.5 4h370q12 0 16.5 -4t4.5 -16v-28q0 -12 -4.5 -16t-16.5 -4h-311v-244h285q12 0 16.5 -4t4.5 -16v-28q0 -12 -4.5 -16t-16.5 -4h-285v-264h315q12 0 16.5 -4t4.5 -16v-28zM399 858
q11 0 14 -4t3 -16v-26q0 -12 -3 -16t-14 -4h-234q-11 0 -14 4t-3 16v26q0 12 3 16t14 4h234z" />
    <glyph glyph-name="Imacron" unicode="&#x12a;" horiz-adv-x="232" 
d="M156 20q0 -12 -4.5 -16t-16.5 -4h-38q-12 0 -16.5 4t-4.5 16v672q0 12 4.5 16t16.5 4h38q12 0 16.5 -4t4.5 -16v-672zM233 858q11 0 14 -4t3 -16v-26q0 -12 -3 -16t-14 -4h-234q-11 0 -14 4t-3 16v26q0 12 3 16t14 4h234z" />
    <glyph glyph-name="Omacron" unicode="&#x14c;" horiz-adv-x="616" 
d="M308 658q-88 0 -128 -50.5t-40 -162.5v-178q0 -112 40 -162.5t128 -50.5t128 50.5t40 162.5v178q0 112 -40 162.5t-128 50.5zM308 728q172 0 228 -136q6 -15 10.5 -30t7 -33t3.5 -40t1 -51v-154q0 -30 -1 -53t-3.5 -41.5t-7 -34t-10.5 -30.5q-56 -141 -228 -141
q-173 0 -228 134q-6 15 -10.5 30.5t-7 33.5t-3.5 40.5t-1 51.5v154q0 30 1 53t3.5 41.5t7 34t10.5 30.5q56 141 228 141zM425 858q11 0 14 -4t3 -16v-26q0 -12 -3 -16t-14 -4h-234q-11 0 -14 4t-3 16v26q0 12 3 16t14 4h234z" />
    <glyph glyph-name="Umacron" unicode="&#x16a;" horiz-adv-x="616" 
d="M547 242q0 -128 -59.5 -193t-175.5 -65h-9q-234 0 -234 258v450q0 12 4.5 16t16.5 4h38q12 0 16.5 -4t4.5 -16v-451q0 -183 152 -183h13q153 0 153 183v451q0 12 4.5 16t16.5 4h38q12 0 16.5 -4t4.5 -16v-450zM425 858q11 0 14 -4t3 -16v-26q0 -12 -3 -16t-14 -4h-234
q-11 0 -14 4t-3 16v26q0 12 3 16t14 4h234z" />
    <glyph glyph-name="ccaron" unicode="&#x10d;" horiz-adv-x="496" 
d="M256 54q102 0 117 86q2 11 6 14t17 3h33q13 0 17.5 -4t4.5 -15q0 -18 -7.5 -40.5t-21.5 -42.5q-46 -69 -168 -69q-101 0 -153 55t-52 163v99q0 117 52 176t153 59q109 0 158 -55q38 -43 38 -97q0 -11 -4.5 -15t-17.5 -4h-32q-13 0 -17 3t-6 14q-5 42 -34.5 64.5
t-80.5 22.5q-68 0 -99 -39.5t-31 -127.5v-84q0 -86 31 -126t97 -40zM258 641l52 67q12 16 17 19t16 3h32q13 0 13 -8q0 -6 -5 -11l-76 -99q-11 -14 -16.5 -18t-16.5 -4h-32q-11 0 -16.5 4t-16.5 18l-76 99q-5 5 -5 11q0 8 13 8h31q12 0 17 -3t16 -19z" />
    <glyph glyph-name="dcaron" unicode="&#x10f;" horiz-adv-x="549" 
d="M254 538q97 0 147 -62v216q0 12 4.5 16t16.5 4h37q12 0 16.5 -4t4.5 -16v-478q0 -109 -56.5 -168.5t-159.5 -59.5t-159 55.5t-56 157.5v111q0 107 54 167.5t151 60.5zM128 220q0 -166 136 -166q137 0 137 166v84q0 166 -136 166q-137 0 -137 -166v-84zM604 694
q0 -5 -0.5 -11t-1.5 -14l-16 -120q-2 -11 -5.5 -15t-16.5 -4h-12q-12 0 -16.5 4t-4.5 16v142q0 12 4.5 16t17.5 4h28q14 0 18.5 -4.5t4.5 -13.5z" />
    <glyph glyph-name="ecaron" unicode="&#x11b;" horiz-adv-x="513" 
d="M128 238v-19q0 -165 134 -165q85 0 113 65q5 12 8.5 14.5t14.5 2.5h36q14 0 18 -2.5t4 -13.5q0 -14 -11 -36t-25 -38q-25 -28 -67.5 -44t-93.5 -16q-101 0 -155.5 59t-54.5 168v75q0 121 54 185.5t157 64.5q206 0 206 -229v-51q0 -12 -4.5 -16t-16.5 -4h-317zM260 476
q-131 0 -132 -173h258q0 89 -30.5 131t-95.5 42zM262 641l52 67q12 16 17 19t16 3h32q13 0 13 -8q0 -6 -5 -11l-76 -99q-11 -14 -16.5 -18t-16.5 -4h-32q-11 0 -16.5 4t-16.5 18l-76 99q-5 5 -5 11q0 8 13 8h31q12 0 17 -3t16 -19z" />
    <glyph glyph-name="lcaron" unicode="&#x13e;" horiz-adv-x="217" 
d="M148 20q0 -12 -4.5 -16t-16.5 -4h-37q-12 0 -16.5 4t-4.5 16v672q0 12 4.5 16t16.5 4h37q12 0 16.5 -4t4.5 -16v-672zM272 694q0 -5 -0.5 -11t-1.5 -14l-16 -120q-2 -11 -5.5 -15t-16.5 -4h-12q-12 0 -16.5 4t-4.5 16v142q0 12 4.5 16t17.5 4h28q14 0 18.5 -4.5
t4.5 -13.5z" />
    <glyph glyph-name="ncaron" unicode="&#x148;" horiz-adv-x="536" 
d="M300 538q84 0 128 -45t44 -131v-342q0 -12 -4.5 -16t-16.5 -4h-37q-12 0 -16.5 4t-4.5 16v325q0 64 -27 93.5t-87 29.5t-95.5 -38.5t-35.5 -102.5v-307q0 -12 -4.5 -16t-16.5 -4h-37q-12 0 -16.5 4t-4.5 16v484q0 12 4.5 16t16.5 4h35q12 0 16.5 -4t4.5 -16v-35
q25 33 64.5 51t89.5 18zM280 641l52 67q12 16 17 19t16 3h32q13 0 13 -8q0 -6 -5 -11l-76 -99q-11 -14 -16.5 -18t-16.5 -4h-32q-11 0 -16.5 4t-16.5 18l-76 99q-5 5 -5 11q0 8 13 8h31q12 0 17 -3t16 -19z" />
    <glyph glyph-name="rcaron" unicode="&#x159;" horiz-adv-x="340" 
d="M146 428q19 43 57.5 69.5t86.5 26.5h13q11 0 14 -4t3 -16v-36q0 -12 -3 -16t-14 -4h-26q-30 0 -53.5 -13t-40.5 -36.5t-26 -55t-9 -68.5v-255q0 -12 -4.5 -16t-16.5 -4h-37q-12 0 -16.5 4t-4.5 16v484q0 12 4.5 16t16.5 4h35q12 0 16.5 -4t4.5 -16v-76zM186 641l52 67
q12 16 17 19t16 3h32q13 0 13 -8q0 -6 -5 -11l-76 -99q-11 -14 -16.5 -18t-16.5 -4h-32q-11 0 -16.5 4t-16.5 18l-76 99q-5 5 -5 11q0 8 13 8h31q12 0 17 -3t16 -19z" />
    <glyph glyph-name="scaron" unicode="&#x161;" horiz-adv-x="475" 
d="M241 -14q-109 0 -161 49q-39 37 -39 88q0 11 4.5 15t17.5 4h29q12 0 16.5 -3t6.5 -14q9 -40 38 -58t86 -18q114 0 114 81q0 38 -20.5 59.5t-70.5 34.5l-89 23q-62 17 -91 49.5t-29 86.5v5q0 69 50 109.5t137 40.5q105 0 152 -50q36 -36 36 -85q0 -11 -4.5 -15t-17.5 -4
h-29q-13 0 -17 3t-6 14q-12 75 -121 75q-50 0 -77.5 -22t-27.5 -62q0 -17 5 -29t17 -22t31.5 -18t48.5 -15l82 -21q120 -30 120 -146v-5q0 -150 -191 -150zM238 641l52 67q12 16 17 19t16 3h32q13 0 13 -8q0 -6 -5 -11l-76 -99q-11 -14 -16.5 -18t-16.5 -4h-32
q-11 0 -16.5 4t-16.5 18l-76 99q-5 5 -5 11q0 8 13 8h31q12 0 17 -3t16 -19z" />
    <glyph glyph-name="tcaron" unicode="&#x165;" horiz-adv-x="340" 
d="M233 0q-68 0 -99 32t-31 101v325h-65q-11 0 -14 4t-3 16v26q0 12 3 16t14 4h65v127q0 12 4.5 16t16.5 4h37q12 0 16.5 -4t4.5 -16v-127h103q11 0 14 -4t3 -16v-26q0 -12 -3 -16t-14 -4h-103v-312q0 -41 13.5 -58.5t44.5 -17.5h47q11 0 14 -4t3 -16v-30q0 -12 -3 -16
t-14 -4h-54zM301 694q0 -7 -3 -25l-13 -80q-2 -13 -6 -16.5t-17 -3.5h-13q-12 0 -16.5 4t-4.5 16v103q0 12 4.5 16t17.5 4h28q14 0 18.5 -4.5t4.5 -13.5z" />
    <glyph glyph-name="zcaron" unicode="&#x17e;" horiz-adv-x="469" 
d="M54 0q-11 0 -14 4t-3 16v19q0 18 9 30l283 388h-260q-11 0 -14 4t-3 16v27q0 12 3 16t14 4h339q11 0 14 -4t3 -16v-19q0 -18 -9 -30l-283 -388h285q11 0 14 -4t3 -16v-27q0 -12 -3 -16t-14 -4h-364zM238 641l52 67q12 16 17 19t16 3h32q13 0 13 -8q0 -6 -5 -11l-76 -99
q-11 -14 -16.5 -18t-16.5 -4h-32q-11 0 -16.5 4t-16.5 18l-76 99q-5 5 -5 11q0 8 13 8h31q12 0 17 -3t16 -19z" />
    <glyph glyph-name="amacron" unicode="&#x101;" horiz-adv-x="506" 
d="M255 320q20 0 51 -2t62 -6v59q0 55 -25.5 79.5t-83.5 24.5q-47 0 -71.5 -13.5t-38.5 -46.5q-5 -11 -8 -14t-15 -3h-36q-13 0 -17.5 4t-4.5 15q0 14 8 30.5t20 30.5q26 30 65 45t98 15q100 0 144 -38.5t44 -126.5v-205q0 -91 -45 -134.5t-144 -43.5h-15
q-102 0 -150.5 37.5t-48.5 121.5q0 89 51 130t160 41zM261 254q-77 0 -106.5 -24t-29.5 -80q0 -49 27.5 -71t96.5 -22h9q59 0 84.5 28.5t25.5 91.5v68q-30 4 -59.5 6.5t-47.5 2.5zM380 686q11 0 14 -4t3 -16v-26q0 -12 -3 -16t-14 -4h-234q-11 0 -14 4t-3 16v26q0 12 3 16
t14 4h234z" />
    <glyph glyph-name="emacron" unicode="&#x113;" horiz-adv-x="513" 
d="M128 238v-19q0 -165 134 -165q85 0 113 65q5 12 8.5 14.5t14.5 2.5h36q14 0 18 -2.5t4 -13.5q0 -14 -11 -36t-25 -38q-25 -28 -67.5 -44t-93.5 -16q-101 0 -155.5 59t-54.5 168v75q0 121 54 185.5t157 64.5q206 0 206 -229v-51q0 -12 -4.5 -16t-16.5 -4h-317zM260 476
q-131 0 -132 -173h258q0 89 -30.5 131t-95.5 42zM379 686q11 0 14 -4t3 -16v-26q0 -12 -3 -16t-14 -4h-234q-11 0 -14 4t-3 16v26q0 12 3 16t14 4h234z" />
    <glyph glyph-name="imacron" unicode="&#x12b;" horiz-adv-x="217" 
d="M91 0q-22 0 -22 21v482q0 14 4 17.5t18 3.5h35q14 0 18 -3.5t4 -17.5v-482q0 -14 -4 -17.5t-18 -3.5h-35zM225 686q11 0 14 -4t3 -16v-26q0 -12 -3 -16t-14 -4h-234q-11 0 -14 4t-3 16v26q0 12 3 16t14 4h234z" />
    <glyph glyph-name="omacron" unicode="&#x14d;" horiz-adv-x="530" 
d="M265 -14q-103 0 -159.5 57t-56.5 161v106q0 109 56.5 168.5t159.5 59.5t159.5 -57t56.5 -161v-106q0 -109 -56.5 -168.5t-159.5 -59.5zM265 54q137 0 137 166v84q0 166 -137 166t-137 -166v-84q0 -166 137 -166zM382 686q11 0 14 -4t3 -16v-26q0 -12 -3 -16t-14 -4h-234
q-11 0 -14 4t-3 16v26q0 12 3 16t14 4h234z" />
    <glyph glyph-name="umacron" unicode="&#x16b;" horiz-adv-x="526" 
d="M380 54q-26 -33 -63.5 -50.5t-85.5 -17.5q-81 0 -124 45t-43 131v342q0 12 4.5 16t16.5 4h37q12 0 16.5 -4t4.5 -16v-325q0 -64 26 -93.5t83 -29.5t91.5 38.5t34.5 102.5v307q0 12 4.5 16t16.5 4h37q12 0 16.5 -4t4.5 -16v-484q0 -12 -4.5 -16t-16.5 -4h-35
q-12 0 -16.5 4t-4.5 16v34zM377 686q11 0 14 -4t3 -16v-26q0 -12 -3 -16t-14 -4h-234q-11 0 -14 4t-3 16v26q0 12 3 16t14 4h234z" />
    <glyph glyph-name="uni0308" unicode="&#x308;" 
d="M-87 620q-22 0 -34.5 11t-12.5 31v16q0 19 12.5 30t34.5 11q23 0 36 -11t13 -30v-16q0 -20 -13 -31t-36 -11zM85 620q-22 0 -34.5 11t-12.5 31v16q0 19 12.5 30t34.5 11q23 0 36 -11t13 -30v-16q0 -20 -13 -31t-36 -11z" />
    <glyph glyph-name="uni0308.cap" 
d="M-94 791q-23 0 -35.5 11.5t-12.5 31.5v16q0 20 12.5 31t35.5 11t36.5 -11t13.5 -31v-16q0 -20 -13.5 -31.5t-36.5 -11.5zM92 791q-23 0 -35.5 11.5t-12.5 31.5v16q0 20 12.5 31t35.5 11t36.5 -11t13.5 -31v-16q0 -20 -13.5 -31.5t-36.5 -11.5z" />
    <glyph glyph-name="dieresis" unicode="&#xa8;" horiz-adv-x="500" 
d="M163 620q-22 0 -34.5 11t-12.5 31v16q0 19 12.5 30t34.5 11q23 0 36 -11t13 -30v-16q0 -20 -13 -31t-36 -11zM335 620q-22 0 -34.5 11t-12.5 31v16q0 19 12.5 30t34.5 11q23 0 36 -11t13 -30v-16q0 -20 -13 -31t-36 -11z" />
    <glyph glyph-name="uni0306" unicode="&#x306;" 
d="M0 590q-37 0 -63 12t-46 37q-13 17 -20 37.5t-7 40.5q0 8 3.5 10.5t14.5 2.5h22q11 0 14.5 -3t5.5 -14q14 -68 76 -68t76 68q2 11 5.5 14t14.5 3h22q11 0 14.5 -2.5t3.5 -10.5q0 -20 -7 -40.5t-20 -37.5q-20 -25 -46 -37t-63 -12z" />
    <glyph glyph-name="uni0306.cap" 
d="M0 759q-74 0 -110 48q-13 17 -20 37.5t-7 41.5q0 8 3.5 10.5t14.5 2.5h22q11 0 14.5 -3t5.5 -14q13 -66 77 -66q63 0 77 66q2 11 5.5 14t14.5 3h22q11 0 14.5 -2.5t3.5 -10.5q0 -21 -7 -41.5t-20 -37.5q-36 -48 -110 -48z" />
    <glyph glyph-name="breve" unicode="&#x2d8;" horiz-adv-x="500" 
d="M250 590q-37 0 -63 12t-46 37q-13 17 -20 37.5t-7 40.5q0 8 3.5 10.5t14.5 2.5h22q11 0 14.5 -3t5.5 -14q14 -68 76 -68t76 68q2 11 5.5 14t14.5 3h22q11 0 14.5 -2.5t3.5 -10.5q0 -20 -7 -40.5t-20 -37.5q-20 -25 -46 -37t-63 -12z" />
    <glyph glyph-name="Adieresis" unicode="&#xc4;" horiz-adv-x="602" 
d="M586 21q2 -6 2 -9q0 -12 -16 -12h-45q-13 0 -17 3t-8 14l-59 178h-288l-58 -178q-4 -11 -8 -14t-17 -3h-42q-16 0 -16 12q0 3 2 9l229 669q4 12 9 17t17 5h64q12 0 17 -5.5t9 -16.5zM178 265h242l-120 368zM207 791q-23 0 -35.5 11.5t-12.5 31.5v16q0 20 12.5 31t35.5 11
t36.5 -11t13.5 -31v-16q0 -20 -13.5 -31.5t-36.5 -11.5zM393 791q-23 0 -35.5 11.5t-12.5 31.5v16q0 20 12.5 31t35.5 11t36.5 -11t13.5 -31v-16q0 -20 -13.5 -31.5t-36.5 -11.5z" />
    <glyph glyph-name="Edieresis" unicode="&#xcb;" horiz-adv-x="550" 
d="M492 20q0 -12 -4.5 -16t-16.5 -4h-374q-12 0 -16.5 4t-4.5 16v672q0 12 4.5 16t16.5 4h370q12 0 16.5 -4t4.5 -16v-28q0 -12 -4.5 -16t-16.5 -4h-311v-244h285q12 0 16.5 -4t4.5 -16v-28q0 -12 -4.5 -16t-16.5 -4h-285v-264h315q12 0 16.5 -4t4.5 -16v-28zM188 791
q-23 0 -35.5 11.5t-12.5 31.5v16q0 20 12.5 31t35.5 11t36.5 -11t13.5 -31v-16q0 -20 -13.5 -31.5t-36.5 -11.5zM374 791q-23 0 -35.5 11.5t-12.5 31.5v16q0 20 12.5 31t35.5 11t36.5 -11t13.5 -31v-16q0 -20 -13.5 -31.5t-36.5 -11.5z" />
    <glyph glyph-name="Idieresis" unicode="&#xcf;" horiz-adv-x="232" 
d="M156 20q0 -12 -4.5 -16t-16.5 -4h-38q-12 0 -16.5 4t-4.5 16v672q0 12 4.5 16t16.5 4h38q12 0 16.5 -4t4.5 -16v-672zM22 791q-23 0 -35.5 11.5t-12.5 31.5v16q0 20 12.5 31t35.5 11t36.5 -11t13.5 -31v-16q0 -20 -13.5 -31.5t-36.5 -11.5zM208 791q-23 0 -35.5 11.5
t-12.5 31.5v16q0 20 12.5 31t35.5 11t36.5 -11t13.5 -31v-16q0 -20 -13.5 -31.5t-36.5 -11.5z" />
    </font>
</defs>
</svg>
